<svg version="1.1" xmlns="http://www.w3.org/2000/svg" xmlns:xlink="http://www.w3.org/1999/xlink" width="628" height="690"><defs/><g><g transform="translate(-54,-38) scale(1,1)"><rect fill="#C0C0C0" stroke="none" x="159" y="343" width="46.80000000000001" height="15" opacity="0.2"/></g><g transform="translate(-54,-38) scale(1,1)"><rect fill="#C0C0C0" stroke="none" x="159" y="357" width="117" height="40" opacity="0.2"/></g><g transform="translate(-54,-38) scale(1,1)"><rect fill="#ffffff" stroke="none" x="152" y="351" width="117" height="39"/></g><g transform="translate(-54,-38) scale(1,1)"><path fill="none" stroke="#000000" d="M 152 351 L 269 351 L 269 390 L 152 390 L 152 351 Z Z" stroke-miterlimit="10"/></g><g transform="translate(-54,-38) scale(1,1)"><rect fill="#ffffff" stroke="none" x="152" y="336" width="46.80000000000001" height="15"/></g><g transform="translate(-54,-38) scale(1,1)"><path fill="none" stroke="#000000" d="M 152 336 L 198.8 336 L 198.8 351 L 152 351 L 152 336 Z Z" stroke-miterlimit="10"/></g><g transform="translate(-54,-38) scale(1,1)"><rect fill="#ffffff" stroke="none" x="152" y="350" width="117" height="40"/></g><g transform="translate(-54,-38) scale(1,1)"><path fill="none" stroke="#000000" d="M 152 350 L 269 350 L 269 390 L 152 390 L 152 350 Z Z" stroke-miterlimit="10"/></g><g transform="translate(-54,-38) scale(1,1)"><path fill="none" stroke="#000000" d="M 190.8 339 L 190.8 343" stroke-miterlimit="10"/></g><g transform="translate(-54,-38) scale(1,1)"><path fill="none" stroke="#000000" d="M 187.8 347 L 187.8 343 L 193.8 343" stroke-miterlimit="10"/></g><g transform="translate(-54,-38) scale(1,1)"><path fill="none" stroke="#000000" d="M 193.8 347 L 193.8 343 L 187.8 343" stroke-miterlimit="10"/></g><g transform="translate(-54,-38) scale(1,1)"><g><path fill="none" stroke="none"/><text fill="#000000" stroke="none" font-family="Arial" font-size="13px" font-style="normal" font-weight="bold" text-decoration="none" x="161" y="370.5">uranus-scheduler</text></g></g><g transform="translate(-54,-38) scale(1,1)"><g><path fill="none" stroke="none"/><text fill="#000000" stroke="none" font-family="Arial" font-size="13px" font-style="normal" font-weight="normal" text-decoration="none" x="171" y="385.5">(from Uranus)</text></g></g><g transform="translate(-54,-38) scale(1,1)"><path fill="none" stroke="#000000" d="M 270 361 L 311 360" stroke-miterlimit="10" stroke-dasharray="3"/></g><g transform="translate(-54,-38) scale(1,1)"><path fill="none" stroke="#000000" d="M 300.94298724038555 364.456062651372 L 311 360 L 300.73770596101974 356.03953019737423" stroke-miterlimit="10"/></g><g transform="translate(-54,-38) scale(1,1)"><rect fill="#C0C0C0" stroke="none" x="319" y="327" width="360" height="71" opacity="0.2"/></g><g transform="translate(-54,-38) scale(1,1)"><rect fill="#ffffff" stroke="none" x="312" y="320" width="360" height="71"/></g><g transform="translate(-54,-38) scale(1,1)"><path fill="none" stroke="#000000" d="M 312 320 L 672 320 L 672 391 L 312 391 L 312 320 Z Z" stroke-miterlimit="10"/></g><g transform="translate(-54,-38) scale(1,1)"><path fill="none" stroke="#000000" d="M 312 358 L 672 358" stroke-miterlimit="10"/></g><g transform="translate(-54,-38) scale(1,1)"><g><path fill="none" stroke="none"/><text fill="#000000" stroke="none" font-family="Arial" font-size="13px" font-style="normal" font-weight="normal" text-decoration="none" x="460" y="337.5">«interface»</text></g></g><g transform="translate(-54,-38) scale(1,1)"><g><path fill="none" stroke="none"/><text fill="#000000" stroke="none" font-family="Arial" font-size="13px" font-style="normal" font-weight="bold" text-decoration="none" x="472" y="352.5">Fetche</text></g></g><g transform="translate(-54,-38) scale(1,1)"><g><path fill="none" stroke="none"/><text fill="#000000" stroke="none" font-family="Arial" font-size="13px" font-style="normal" font-weight="normal" text-decoration="none" x="317" y="375.5">+sendCrawleCommand(String data, collectType collectType)</text></g></g><g transform="translate(-54,-38) scale(1,1)"><rect fill="#C0C0C0" stroke="none" x="175" y="671" width="37.599999999999994" height="15" opacity="0.2"/></g><g transform="translate(-54,-38) scale(1,1)"><rect fill="#C0C0C0" stroke="none" x="175" y="685" width="94" height="40" opacity="0.2"/></g><g transform="translate(-54,-38) scale(1,1)"><rect fill="#ffffff" stroke="none" x="168" y="679" width="94" height="39"/></g><g transform="translate(-54,-38) scale(1,1)"><path fill="none" stroke="#000000" d="M 168 679 L 262 679 L 262 718 L 168 718 L 168 679 Z Z" stroke-miterlimit="10"/></g><g transform="translate(-54,-38) scale(1,1)"><rect fill="#ffffff" stroke="none" x="168" y="664" width="37.599999999999994" height="15"/></g><g transform="translate(-54,-38) scale(1,1)"><path fill="none" stroke="#000000" d="M 168 664 L 205.6 664 L 205.6 679 L 168 679 L 168 664 Z Z" stroke-miterlimit="10"/></g><g transform="translate(-54,-38) scale(1,1)"><rect fill="#ffffff" stroke="none" x="168" y="678" width="94" height="40"/></g><g transform="translate(-54,-38) scale(1,1)"><path fill="none" stroke="#000000" d="M 168 678 L 262 678 L 262 718 L 168 718 L 168 678 Z Z" stroke-miterlimit="10"/></g><g transform="translate(-54,-38) scale(1,1)"><path fill="none" stroke="#000000" d="M 197.6 667 L 197.6 671" stroke-miterlimit="10"/></g><g transform="translate(-54,-38) scale(1,1)"><path fill="none" stroke="#000000" d="M 194.6 675 L 194.6 671 L 200.6 671" stroke-miterlimit="10"/></g><g transform="translate(-54,-38) scale(1,1)"><path fill="none" stroke="#000000" d="M 200.6 675 L 200.6 671 L 194.6 671" stroke-miterlimit="10"/></g><g transform="translate(-54,-38) scale(1,1)"><g><path fill="none" stroke="none"/><text fill="#000000" stroke="none" font-family="Arial" font-size="13px" font-style="normal" font-weight="bold" text-decoration="none" x="175.5" y="698.5">uranus-server</text></g></g><g transform="translate(-54,-38) scale(1,1)"><g><path fill="none" stroke="none"/><text fill="#000000" stroke="none" font-family="Arial" font-size="13px" font-style="normal" font-weight="normal" text-decoration="none" x="175.5" y="713.5">(from Uranus)</text></g></g><g transform="translate(-54,-38) scale(1,1)"><rect fill="#C0C0C0" stroke="none" x="473" y="175" width="158" height="88" opacity="0.2"/></g><g transform="translate(-54,-38) scale(1,1)"><rect fill="#ffffff" stroke="none" x="466" y="168" width="158" height="88"/></g><g transform="translate(-54,-38) scale(1,1)"><path fill="none" stroke="#000000" d="M 466 168 L 624 168 L 624 256 L 466 256 L 466 168 Z Z" stroke-miterlimit="10"/></g><g transform="translate(-54,-38) scale(1,1)"><rect fill="#ffffff" stroke="none" x="456" y="175" width="20" height="10"/></g><g transform="translate(-54,-38) scale(1,1)"><path fill="none" stroke="#000000" d="M 456 175 L 476 175 L 476 185 L 456 185 L 456 175 Z Z" stroke-miterlimit="10"/></g><g transform="translate(-54,-38) scale(1,1)"><rect fill="#ffffff" stroke="none" x="456" y="195" width="20" height="10"/></g><g transform="translate(-54,-38) scale(1,1)"><path fill="none" stroke="#000000" d="M 456 195 L 476 195 L 476 205 L 456 205 L 456 195 Z Z" stroke-miterlimit="10"/></g><g transform="translate(-54,-38) scale(1,1)"><g><path fill="none" stroke="none"/><text fill="#000000" stroke="none" font-family="Arial" font-size="13px" font-style="normal" font-weight="bold" text-decoration="none" x="490" y="187.5">uranus-schedule-dao</text></g></g><g transform="translate(-54,-38) scale(1,1)"><g><path fill="none" stroke="none"/><text fill="#000000" stroke="none" font-family="Arial" font-size="13px" font-style="normal" font-weight="normal" text-decoration="none" x="510.5" y="202.5">(from Uranus)</text></g></g><g transform="translate(-54,-38) scale(1,1)"><rect fill="#C0C0C0" stroke="none" x="71" y="143" width="312" height="131" opacity="0.2"/></g><g transform="translate(-54,-38) scale(1,1)"><rect fill="#ffffff" stroke="none" x="64" y="136" width="312" height="131"/></g><g transform="translate(-54,-38) scale(1,1)"><path fill="none" stroke="#000000" d="M 64 136 L 376 136 L 376 267 L 64 267 L 64 136 Z Z" stroke-miterlimit="10"/></g><g transform="translate(-54,-38) scale(1,1)"><path fill="none" stroke="#000000" d="M 64 174 L 376 174" stroke-miterlimit="10"/></g><g transform="translate(-54,-38) scale(1,1)"><g><path fill="none" stroke="none"/><text fill="#000000" stroke="none" font-family="Arial" font-size="13px" font-style="normal" font-weight="normal" text-decoration="none" x="188" y="153.5">«interface»</text></g></g><g transform="translate(-54,-38) scale(1,1)"><g><path fill="none" stroke="none"/><text fill="#000000" stroke="none" font-family="Arial" font-size="13px" font-style="normal" font-weight="bold" text-decoration="none" x="182.5" y="168.5">scheduleDao</text></g></g><g transform="translate(-54,-38) scale(1,1)"><g><path fill="none" stroke="none"/><text fill="#000000" stroke="none" font-family="Arial" font-size="13px" font-style="normal" font-weight="normal" text-decoration="none" x="69" y="191.5">+addCollScheduler(ScheduleObject scheduleObject)</text></g></g><g transform="translate(-54,-38) scale(1,1)"><g><path fill="none" stroke="none"/><text fill="#000000" stroke="none" font-family="Arial" font-size="13px" font-style="normal" font-weight="normal" text-decoration="none" x="69" y="206.5">+delCollScheduler(string scheduleID)</text></g></g><g transform="translate(-54,-38) scale(1,1)"><g><path fill="none" stroke="none"/><text fill="#000000" stroke="none" font-family="Arial" font-size="13px" font-style="normal" font-weight="normal" text-decoration="none" x="69" y="221.5">+updateScheduler(ScheduleObject scheduleObject)</text></g></g><g transform="translate(-54,-38) scale(1,1)"><g><path fill="none" stroke="none"/><text fill="#000000" stroke="none" font-family="Arial" font-size="13px" font-style="normal" font-weight="normal" text-decoration="none" x="69" y="236.5">+ScheduleObject getScheduler(String scheduleID)</text></g></g><g transform="translate(-54,-38) scale(1,1)"><g><path fill="none" stroke="none"/><text fill="#000000" stroke="none" font-family="Arial" font-size="13px" font-style="normal" font-weight="normal" text-decoration="none" x="69" y="251.5">+delAllScheduler()</text></g></g><g transform="translate(-54,-38) scale(1,1)"><path fill="none" stroke="#000000" d="M 455 209 L 377 206" stroke-miterlimit="10" stroke-dasharray="3"/></g><g transform="translate(-54,-38) scale(1,1)"><path fill="#FFFFFF" stroke="none" d="M 397.6339026510596 198.36835133234 L 377 206 L 396.986763011443 215.19398196237165"/></g><g transform="translate(-54,-38) scale(1,1)"><path fill="none" stroke="#000000" d="M 397.6339026510596 198.36835133234 L 377 206 L 396.986763011443 215.19398196237165 L 397.6339026510596 198.36835133234" stroke-miterlimit="10"/></g><g transform="translate(-54,-38) scale(1,1)"><path fill="none" stroke="#000000" d="M 212 335 L 216 268" stroke-miterlimit="10" stroke-dasharray="3"/></g><g transform="translate(-54,-38) scale(1,1)"><path fill="none" stroke="#000000" d="M 219.59638735519317 278.39547969029843 L 216 268 L 211.19231570393362 277.8937440693277" stroke-miterlimit="10"/></g><g transform="translate(-54,-38) scale(1,1)"><rect fill="#C0C0C0" stroke="none" x="409" y="55" width="98" height="44" opacity="0.2"/></g><g transform="translate(-54,-38) scale(1,1)"><rect fill="#ffffff" stroke="none" x="402" y="48" width="98" height="44"/></g><g transform="translate(-54,-38) scale(1,1)"><path fill="none" stroke="#000000" d="M 402 48 L 500 48 L 500 92 L 402 92 L 402 48 Z Z" stroke-miterlimit="10"/></g><g transform="translate(-54,-38) scale(1,1)"><rect fill="#ffffff" stroke="none" x="392" y="55" width="20" height="10"/></g><g transform="translate(-54,-38) scale(1,1)"><path fill="none" stroke="#000000" d="M 392 55 L 412 55 L 412 65 L 392 65 L 392 55 Z Z" stroke-miterlimit="10"/></g><g transform="translate(-54,-38) scale(1,1)"><rect fill="#ffffff" stroke="none" x="392" y="75" width="20" height="10"/></g><g transform="translate(-54,-38) scale(1,1)"><path fill="none" stroke="#000000" d="M 392 75 L 412 75 L 412 85 L 392 85 L 392 75 Z Z" stroke-miterlimit="10"/></g><g transform="translate(-54,-38) scale(1,1)"><g><path fill="none" stroke="none"/><text fill="#000000" stroke="none" font-family="Arial" font-size="13px" font-style="normal" font-weight="bold" text-decoration="none" x="424" y="67.5">uranus-sdk</text></g></g><g transform="translate(-54,-38) scale(1,1)"><g><path fill="none" stroke="none"/><text fill="#000000" stroke="none" font-family="Arial" font-size="13px" font-style="normal" font-weight="normal" text-decoration="none" x="416.5" y="82.5">(from Uranus)</text></g></g><g transform="translate(-54,-38) scale(1,1)"><path fill="none" stroke="#000000" d="M 406 93 L 334 135" stroke-miterlimit="10" stroke-dasharray="3"/></g><g transform="translate(-54,-38) scale(1,1)"><path fill="none" stroke="#000000" d="M 340.65725009002114 126.24322997681715 L 334 135 L 344.8993581473924 133.515415218025" stroke-miterlimit="10"/></g><g transform="translate(-54,-38) scale(1,1)"><rect fill="#C0C0C0" stroke="none" x="457" y="455" width="98" height="44" opacity="0.2"/></g><g transform="translate(-54,-38) scale(1,1)"><rect fill="#ffffff" stroke="none" x="450" y="448" width="98" height="44"/></g><g transform="translate(-54,-38) scale(1,1)"><path fill="none" stroke="#000000" d="M 450 448 L 548 448 L 548 492 L 450 492 L 450 448 Z Z" stroke-miterlimit="10"/></g><g transform="translate(-54,-38) scale(1,1)"><rect fill="#ffffff" stroke="none" x="440" y="455" width="20" height="10"/></g><g transform="translate(-54,-38) scale(1,1)"><path fill="none" stroke="#000000" d="M 440 455 L 460 455 L 460 465 L 440 465 L 440 455 Z Z" stroke-miterlimit="10"/></g><g transform="translate(-54,-38) scale(1,1)"><rect fill="#ffffff" stroke="none" x="440" y="475" width="20" height="10"/></g><g transform="translate(-54,-38) scale(1,1)"><path fill="none" stroke="#000000" d="M 440 475 L 460 475 L 460 485 L 440 485 L 440 475 Z Z" stroke-miterlimit="10"/></g><g transform="translate(-54,-38) scale(1,1)"><g><path fill="none" stroke="none"/><text fill="#000000" stroke="none" font-family="Arial" font-size="13px" font-style="normal" font-weight="bold" text-decoration="none" x="476" y="467.5">uranus-cli</text></g></g><g transform="translate(-54,-38) scale(1,1)"><g><path fill="none" stroke="none"/><text fill="#000000" stroke="none" font-family="Arial" font-size="13px" font-style="normal" font-weight="normal" text-decoration="none" x="464.5" y="482.5">(from Uranus)</text></g></g><g transform="translate(-54,-38) scale(1,1)"><path fill="none" stroke="#000000" d="M 494 447 L 493 392" stroke-miterlimit="10" stroke-dasharray="3"/></g><g transform="translate(-54,-38) scale(1,1)"><path fill="#FFFFFF" stroke="none" d="M 501.7871350260387 412.16894290819835 L 493 392 L 484.95184646436246 412.47503906386515"/></g><g transform="translate(-54,-38) scale(1,1)"><path fill="none" stroke="#000000" d="M 501.7871350260387 412.16894290819835 L 493 392 L 484.95184646436246 412.47503906386515 L 501.7871350260387 412.16894290819835" stroke-miterlimit="10"/></g><g transform="translate(-54,-38) scale(1,1)"><rect fill="#C0C0C0" stroke="none" x="361" y="543" width="109" height="44" opacity="0.2"/></g><g transform="translate(-54,-38) scale(1,1)"><rect fill="#ffffff" stroke="none" x="354" y="536" width="109" height="44"/></g><g transform="translate(-54,-38) scale(1,1)"><path fill="none" stroke="#000000" d="M 354 536 L 463 536 L 463 580 L 354 580 L 354 536 Z Z" stroke-miterlimit="10"/></g><g transform="translate(-54,-38) scale(1,1)"><rect fill="#ffffff" stroke="none" x="344" y="543" width="20" height="10"/></g><g transform="translate(-54,-38) scale(1,1)"><path fill="none" stroke="#000000" d="M 344 543 L 364 543 L 364 553 L 344 553 L 344 543 Z Z" stroke-miterlimit="10"/></g><g transform="translate(-54,-38) scale(1,1)"><rect fill="#ffffff" stroke="none" x="344" y="563" width="20" height="10"/></g><g transform="translate(-54,-38) scale(1,1)"><path fill="none" stroke="#000000" d="M 344 563 L 364 563 L 364 573 L 344 573 L 344 563 Z Z" stroke-miterlimit="10"/></g><g transform="translate(-54,-38) scale(1,1)"><g><path fill="none" stroke="none"/><text fill="#000000" stroke="none" font-family="Arial" font-size="13px" font-style="normal" font-weight="bold" text-decoration="none" x="389" y="555.5">gaia-bus</text></g></g><g transform="translate(-54,-38) scale(1,1)"><g><path fill="none" stroke="none"/><text fill="#000000" stroke="none" font-family="Arial" font-size="13px" font-style="normal" font-weight="normal" text-decoration="none" x="368.5" y="570.5">(from 逻辑视图)</text></g></g><g transform="translate(-54,-38) scale(1,1)"><rect fill="#C0C0C0" stroke="none" x="175" y="535" width="88" height="60" opacity="0.2"/></g><g transform="translate(-54,-38) scale(1,1)"><rect fill="#ffffff" stroke="none" x="168" y="528" width="88" height="60"/></g><g transform="translate(-54,-38) scale(1,1)"><path fill="none" stroke="#000000" d="M 168 528 L 256 528 L 256 588 L 168 588 L 168 528 Z Z" stroke-miterlimit="10"/></g><g transform="translate(-54,-38) scale(1,1)"><path fill="none" stroke="#000000" d="M 168 566 L 256 566" stroke-miterlimit="10"/></g><g transform="translate(-54,-38) scale(1,1)"><g><path fill="none" stroke="none"/><text fill="#000000" stroke="none" font-family="Arial" font-size="13px" font-style="normal" font-weight="normal" text-decoration="none" x="180" y="545.5">«interface»</text></g></g><g transform="translate(-54,-38) scale(1,1)"><g><path fill="none" stroke="none"/><text fill="#000000" stroke="none" font-family="Arial" font-size="13px" font-style="normal" font-weight="bold" text-decoration="none" x="189" y="560.5">receiver</text></g></g><g transform="translate(-54,-38) scale(1,1)"><g><path fill="none" stroke="none"/><text fill="#000000" stroke="none" font-family="Arial" font-size="13px" font-style="normal" font-weight="normal" text-decoration="none" x="173" y="583.5">+receive()</text></g></g><g transform="translate(-54,-38) scale(1,1)"><rect fill="#C0C0C0" stroke="none" x="559" y="535" width="88" height="60" opacity="0.2"/></g><g transform="translate(-54,-38) scale(1,1)"><rect fill="#ffffff" stroke="none" x="552" y="528" width="88" height="60"/></g><g transform="translate(-54,-38) scale(1,1)"><path fill="none" stroke="#000000" d="M 552 528 L 640 528 L 640 588 L 552 588 L 552 528 Z Z" stroke-miterlimit="10"/></g><g transform="translate(-54,-38) scale(1,1)"><path fill="none" stroke="#000000" d="M 552 566 L 640 566" stroke-miterlimit="10"/></g><g transform="translate(-54,-38) scale(1,1)"><g><path fill="none" stroke="none"/><text fill="#000000" stroke="none" font-family="Arial" font-size="13px" font-style="normal" font-weight="normal" text-decoration="none" x="564" y="545.5">«interface»</text></g></g><g transform="translate(-54,-38) scale(1,1)"><g><path fill="none" stroke="none"/><text fill="#000000" stroke="none" font-family="Arial" font-size="13px" font-style="normal" font-weight="bold" text-decoration="none" x="576.5" y="560.5">sender</text></g></g><g transform="translate(-54,-38) scale(1,1)"><g><path fill="none" stroke="none"/><text fill="#000000" stroke="none" font-family="Arial" font-size="13px" font-style="normal" font-weight="normal" text-decoration="none" x="557" y="583.5">+send()</text></g></g><g transform="translate(-54,-38) scale(1,1)"><path fill="none" stroke="#000000" d="M 464 558 L 551 558" stroke-miterlimit="10" stroke-dasharray="3"/></g><g transform="translate(-54,-38) scale(1,1)"><path fill="#FFFFFF" stroke="none" d="M 530.6746502847517 566.419035512032 L 551 558 L 530.6746502847517 549.580964487968"/></g><g transform="translate(-54,-38) scale(1,1)"><path fill="none" stroke="#000000" d="M 530.6746502847517 566.419035512032 L 551 558 L 530.6746502847517 549.580964487968 L 530.6746502847517 566.419035512032" stroke-miterlimit="10"/></g><g transform="translate(-54,-38) scale(1,1)"><path fill="none" stroke="#000000" d="M 343 558 L 257 558" stroke-miterlimit="10" stroke-dasharray="3"/></g><g transform="translate(-54,-38) scale(1,1)"><path fill="#FFFFFF" stroke="none" d="M 277.3253497152483 549.580964487968 L 257 558 L 277.3253497152483 566.419035512032"/></g><g transform="translate(-54,-38) scale(1,1)"><path fill="none" stroke="#000000" d="M 277.3253497152483 549.580964487968 L 257 558 L 277.3253497152483 566.419035512032 L 277.3253497152483 549.580964487968" stroke-miterlimit="10"/></g><g transform="translate(-54,-38) scale(1,1)"><path fill="none" stroke="#000000" d="M 214 663 L 213 589" stroke-miterlimit="10" stroke-dasharray="3"/></g><g transform="translate(-54,-38) scale(1,1)"><path fill="none" stroke="#000000" d="M 217.34645435417048 599.1048668742894 L 213 589 L 208.92818745815435 599.2186272377492" stroke-miterlimit="10"/></g><g transform="translate(-54,-38) scale(1,1)"><path fill="none" stroke="#000000" d="M 521 493 L 560 527" stroke-miterlimit="10" stroke-dasharray="3"/></g><g transform="translate(-54,-38) scale(1,1)"><path fill="none" stroke="#000000" d="M 549.57343053508 523.494768311053 L 560 527 L 555.1058751237268 517.1487289299581" stroke-miterlimit="10"/></g><g transform="translate(-54,-38) scale(1,1)"><path fill="none" stroke="#000000" d="M 263 691 L 559 688" stroke-miterlimit="10" stroke-dasharray="3"/></g><g transform="translate(-54,-38) scale(1,1)"><path fill="none" stroke="#000000" d="M 548.8805089022818 692.3122963630997 L 559 688 L 548.7951852218127 683.8936932234805" stroke-miterlimit="10"/></g><g transform="translate(-54,-38) scale(1,1)"><rect fill="#C0C0C0" stroke="none" x="567" y="671" width="73" height="48" opacity="0.2"/></g><g transform="translate(-54,-38) scale(1,1)"><rect fill="#ffffff" stroke="none" x="560" y="664" width="73" height="48"/></g><g transform="translate(-54,-38) scale(1,1)"><path fill="none" stroke="#000000" d="M 560 664 L 633 664 L 633 712 L 560 712 L 560 664 Z Z" stroke-miterlimit="10"/></g><g transform="translate(-54,-38) scale(1,1)"><g><path fill="none" stroke="none"/><text fill="#000000" stroke="none" font-family="Arial" font-size="13px" font-style="normal" font-weight="normal" text-decoration="none" x="564.5" y="681.5">«interface»</text></g></g><g transform="translate(-54,-38) scale(1,1)"><g><path fill="none" stroke="none"/><text fill="#000000" stroke="none" font-family="Arial" font-size="13px" font-style="normal" font-weight="bold" text-decoration="none" x="582.5" y="696.5">push</text></g></g><g transform="translate(-54,-38) scale(1,1)"><path fill="none" stroke="#000000" d="M 596 663 L 596 589" stroke-miterlimit="10" stroke-dasharray="3"/></g><g transform="translate(-54,-38) scale(1,1)"><path fill="none" stroke="#000000" d="M 600.209517756016 599.1626748576241 L 596 589 L 591.790482243984 599.1626748576241" stroke-miterlimit="10"/></g></g></svg>