<svg version="1.1" xmlns="http://www.w3.org/2000/svg" xmlns:xlink="http://www.w3.org/1999/xlink" width="827" height="586"><defs/><g><g transform="translate(-6,-54) scale(1,1)"><path fill="#C0C0C0" stroke="none" d="M 191 170.5 C 191 155.31216799999999 224.1309248 143 265 143 C 305.8690752 143 339 155.31216799999999 339 170.5 C 339 185.68783200000001 305.8690752 198 265 198 C 224.1309248 198 191 185.68783200000001 191 170.5 Z" opacity="0.2"/></g><g transform="translate(-6,-54) scale(1,1)"><path fill="#ffffff" stroke="none" d="M 184 163.5 C 184 148.31216799999999 217.1309248 136 258 136 C 298.8690752 136 332 148.31216799999999 332 163.5 C 332 178.68783200000001 298.8690752 191 258 191 C 217.1309248 191 184 178.68783200000001 184 163.5 Z"/></g><g transform="translate(-6,-54) scale(1,1)"><path fill="none" stroke="#000000" d="M 184 163.5 C 184 148.31216799999999 217.1309248 136 258 136 C 298.8690752 136 332 148.31216799999999 332 163.5 C 332 178.68783200000001 298.8690752 191 258 191 C 217.1309248 191 184 178.68783200000001 184 163.5 Z" stroke-miterlimit="10"/></g><g transform="translate(-6,-54) scale(1,1)"><g><path fill="none" stroke="none"/><text fill="#000000" stroke="none" font-family="Arial" font-size="13px" font-style="normal" font-weight="bold" text-decoration="none" x="219" y="163">采集微信数据</text></g></g><g transform="translate(-6,-54) scale(1,1)"><g><path fill="none" stroke="none"/><text fill="#000000" stroke="none" font-family="Arial" font-size="13px" font-style="normal" font-weight="normal" text-decoration="none" x="213" y="178">(from 用例视图)</text></g></g><g transform="translate(-6,-54) scale(1,1)"><path fill="#C0C0C0" stroke="none" d="M 175 280 C 175 270.6111584 210.817216 263 255 263 C 299.18278399999997 263 335 270.6111584 335 280 C 335 289.3888416 299.18278399999997 297 255 297 C 210.817216 297 175 289.3888416 175 280 Z" opacity="0.2"/></g><g transform="translate(-6,-54) scale(1,1)"><path fill="#ffffff" stroke="none" d="M 168 273 C 168 263.6111584 203.817216 256 248 256 C 292.18278399999997 256 328 263.6111584 328 273 C 328 282.3888416 292.18278399999997 290 248 290 C 203.817216 290 168 282.3888416 168 273 Z"/></g><g transform="translate(-6,-54) scale(1,1)"><path fill="none" stroke="#000000" d="M 168 273 C 168 263.6111584 203.817216 256 248 256 C 292.18278399999997 256 328 263.6111584 328 273 C 328 282.3888416 292.18278399999997 290 248 290 C 203.817216 290 168 282.3888416 168 273 Z" stroke-miterlimit="10"/></g><g transform="translate(-6,-54) scale(1,1)"><g><path fill="none" stroke="none"/><text fill="#000000" stroke="none" font-family="Arial" font-size="13px" font-style="normal" font-weight="bold" text-decoration="none" x="196" y="280">收集微信文章数据</text></g></g><g transform="translate(-6,-54) scale(1,1)"><path fill="none" stroke="#000000" d="M 255 192 L 250 255" stroke-miterlimit="10" stroke-dasharray="3"/></g><g transform="translate(-6,-54) scale(1,1)"><path fill="none" stroke="#000000" d="M 246.6077106725739 244.53613966458693 L 250 255 L 255.00035581338977 245.20222261227073" stroke-miterlimit="10"/></g><g transform="translate(-6,-54) scale(1,1)"><g><path fill="none" stroke="none"/><text fill="#000000" stroke="none" font-family="Arial" font-size="13px" font-style="normal" font-weight="normal" text-decoration="none" x="254" y="231">«include»</text></g></g><g transform="translate(-6,-54) scale(1,1)"><path fill="#C0C0C0" stroke="none" d="M 399 200 C 399 190.6111584 438.8466528 183 488 183 C 537.1533472 183 577 190.6111584 577 200 C 577 209.3888416 537.1533472 217 488 217 C 438.8466528 217 399 209.3888416 399 200 Z" opacity="0.2"/></g><g transform="translate(-6,-54) scale(1,1)"><path fill="#ffffff" stroke="none" d="M 392 193 C 392 183.6111584 431.8466528 176 481 176 C 530.1533472 176 570 183.6111584 570 193 C 570 202.3888416 530.1533472 210 481 210 C 431.8466528 210 392 202.3888416 392 193 Z"/></g><g transform="translate(-6,-54) scale(1,1)"><path fill="none" stroke="#000000" d="M 392 193 C 392 183.6111584 431.8466528 176 481 176 C 530.1533472 176 570 183.6111584 570 193 C 570 202.3888416 530.1533472 210 481 210 C 431.8466528 210 392 202.3888416 392 193 Z" stroke-miterlimit="10"/></g><g transform="translate(-6,-54) scale(1,1)"><g><path fill="none" stroke="none"/><text fill="#000000" stroke="none" font-family="Arial" font-size="13px" font-style="normal" font-weight="bold" text-decoration="none" x="422.5" y="200">采集微信自媒体信息</text></g></g><g transform="translate(-6,-54) scale(1,1)"><path fill="none" stroke="#000000" d="M 333 173 L 391 181" stroke-miterlimit="10" stroke-dasharray="3"/></g><g transform="translate(-6,-54) scale(1,1)"><path fill="none" stroke="#000000" d="M 380.3574620070219 183.7814357925393 L 391 181 L 381.50781710579025 175.44136132646926" stroke-miterlimit="10"/></g><g transform="translate(-6,-54) scale(1,1)"><g><path fill="none" stroke="none"/><text fill="#000000" stroke="none" font-family="Arial" font-size="13px" font-style="normal" font-weight="normal" text-decoration="none" x="339" y="154">«include»</text></g></g><g transform="translate(-6,-54) scale(1,1)"><path fill="#ffffff" stroke="none" d="M 168 424 L 293 424 L 303 434 L 303 629 L 168 629 L 168 424"/></g><g transform="translate(-6,-54) scale(1,1)"><path fill="none" stroke="#000000" d="M 168 424 L 293 424 L 303 434 L 303 629 L 168 629 L 168 424 L 168 424" stroke-miterlimit="10"/></g><g transform="translate(-6,-54) scale(1,1)"><path fill="none" stroke="#000000" d="M 293 424 L 293 434 L 303 434 L 293 424" stroke-miterlimit="10"/></g><g transform="translate(-6,-54) scale(1,1)"><g><path fill="none" stroke="none"/><text fill="#000000" stroke="none" font-family="Arial" font-size="13px" font-style="normal" font-weight="normal" text-decoration="none" x="173" y="442">采集的字段：</text></g></g><g transform="translate(-6,-54) scale(1,1)"><g><path fill="none" stroke="none"/><text fill="#000000" stroke="none" font-family="Arial" font-size="13px" font-style="normal" font-weight="normal" text-decoration="none" x="173" y="457">1.文章标题</text></g></g><g transform="translate(-6,-54) scale(1,1)"><g><path fill="none" stroke="none"/><text fill="#000000" stroke="none" font-family="Arial" font-size="13px" font-style="normal" font-weight="normal" text-decoration="none" x="173" y="472">2.文章正文</text></g></g><g transform="translate(-6,-54) scale(1,1)"><g><path fill="none" stroke="none"/><text fill="#000000" stroke="none" font-family="Arial" font-size="13px" font-style="normal" font-weight="normal" text-decoration="none" x="173" y="487">3.发布时间</text></g></g><g transform="translate(-6,-54) scale(1,1)"><g><path fill="none" stroke="none"/><text fill="#000000" stroke="none" font-family="Arial" font-size="13px" font-style="normal" font-weight="normal" text-decoration="none" x="173" y="502">4.作者</text></g></g><g transform="translate(-6,-54) scale(1,1)"><g><path fill="none" stroke="none"/><text fill="#000000" stroke="none" font-family="Arial" font-size="13px" font-style="normal" font-weight="normal" text-decoration="none" x="173" y="517">5.发布的媒体名称</text></g></g><g transform="translate(-6,-54) scale(1,1)"><g><path fill="none" stroke="none"/><text fill="#000000" stroke="none" font-family="Arial" font-size="13px" font-style="normal" font-weight="normal" text-decoration="none" x="173" y="532">6.发布的媒体ID</text></g></g><g transform="translate(-6,-54) scale(1,1)"><g><path fill="none" stroke="none"/><text fill="#000000" stroke="none" font-family="Arial" font-size="13px" font-style="normal" font-weight="normal" text-decoration="none" x="173" y="547">7.原文链接</text></g></g><g transform="translate(-6,-54) scale(1,1)"><g><path fill="none" stroke="none"/><text fill="#000000" stroke="none" font-family="Arial" font-size="13px" font-style="normal" font-weight="normal" text-decoration="none" x="173" y="562">8.文章摘要</text></g></g><g transform="translate(-6,-54) scale(1,1)"><g><path fill="none" stroke="none"/><text fill="#000000" stroke="none" font-family="Arial" font-size="13px" font-style="normal" font-weight="normal" text-decoration="none" x="173" y="577">9.文章正文</text></g></g><g transform="translate(-6,-54) scale(1,1)"><g><path fill="none" stroke="none"/><text fill="#000000" stroke="none" font-family="Arial" font-size="13px" font-style="normal" font-weight="normal" text-decoration="none" x="173" y="592">9.封面图片</text></g></g><g transform="translate(-6,-54) scale(1,1)"><g><path fill="none" stroke="none"/></g></g><g transform="translate(-6,-54) scale(1,1)"><g><path fill="none" stroke="none"/><text fill="#000000" stroke="none" font-family="Arial" font-size="13px" font-style="normal" font-weight="normal" text-decoration="none" x="173" y="609">采集方式</text></g></g><g transform="translate(-6,-54) scale(1,1)"><g><path fill="none" stroke="none"/><text fill="#000000" stroke="none" font-family="Arial" font-size="13px" font-style="normal" font-weight="normal" text-decoration="none" x="173" y="624">一次性采集</text></g></g><g transform="translate(-6,-54) scale(1,1)"><path fill="none" stroke="#000000" d="M 159 395 L 176 423" stroke-miterlimit="10" stroke-dasharray="3"/></g><g transform="translate(-6,-54) scale(1,1)"><path fill="#C0C0C0" stroke="none" d="M 95 384 C 95 374.6111584 122.5344848 367 156.5 367 C 190.4655152 367 218 374.6111584 218 384 C 218 393.3888416 190.4655152 401 156.5 401 C 122.5344848 401 95 393.3888416 95 384 Z" opacity="0.2"/></g><g transform="translate(-6,-54) scale(1,1)"><path fill="#ffffff" stroke="none" d="M 88 377 C 88 367.6111584 115.5344848 360 149.5 360 C 183.4655152 360 211 367.6111584 211 377 C 211 386.3888416 183.4655152 394 149.5 394 C 115.5344848 394 88 386.3888416 88 377 Z"/></g><g transform="translate(-6,-54) scale(1,1)"><path fill="none" stroke="#000000" d="M 88 377 C 88 367.6111584 115.5344848 360 149.5 360 C 183.4655152 360 211 367.6111584 211 377 C 211 386.3888416 183.4655152 394 149.5 394 C 115.5344848 394 88 386.3888416 88 377 Z" stroke-miterlimit="10"/></g><g transform="translate(-6,-54) scale(1,1)"><g><path fill="none" stroke="none"/><text fill="#000000" stroke="none" font-family="Arial" font-size="13px" font-style="normal" font-weight="bold" text-decoration="none" x="110.5" y="384">文章静态数据</text></g></g><g transform="translate(-6,-54) scale(1,1)"><path fill="none" stroke="#000000" d="M 231 291 L 166 359" stroke-miterlimit="10" stroke-dasharray="3"/></g><g transform="translate(-6,-54) scale(1,1)"><path fill="none" stroke="#000000" d="M 169.97927230876252 348.74498211153605 L 166 359 L 176.06516312383604 354.56237774359164" stroke-miterlimit="10"/></g><g transform="translate(-6,-54) scale(1,1)"><g><path fill="none" stroke="none"/><text fill="#000000" stroke="none" font-family="Arial" font-size="13px" font-style="normal" font-weight="normal" text-decoration="none" x="219" y="325">«include»</text></g></g><g transform="translate(-6,-54) scale(1,1)"><path fill="#C0C0C0" stroke="none" d="M 319 408 C 319 398.6111584 346.5344848 391 380.5 391 C 414.4655152 391 442 398.6111584 442 408 C 442 417.3888416 414.4655152 425 380.5 425 C 346.5344848 425 319 417.3888416 319 408 Z" opacity="0.2"/></g><g transform="translate(-6,-54) scale(1,1)"><path fill="#ffffff" stroke="none" d="M 312 401 C 312 391.6111584 339.5344848 384 373.5 384 C 407.4655152 384 435 391.6111584 435 401 C 435 410.3888416 407.4655152 418 373.5 418 C 339.5344848 418 312 410.3888416 312 401 Z"/></g><g transform="translate(-6,-54) scale(1,1)"><path fill="none" stroke="#000000" d="M 312 401 C 312 391.6111584 339.5344848 384 373.5 384 C 407.4655152 384 435 391.6111584 435 401 C 435 410.3888416 407.4655152 418 373.5 418 C 339.5344848 418 312 410.3888416 312 401 Z" stroke-miterlimit="10"/></g><g transform="translate(-6,-54) scale(1,1)"><g><path fill="none" stroke="none"/><text fill="#000000" stroke="none" font-family="Arial" font-size="13px" font-style="normal" font-weight="bold" text-decoration="none" x="334.5" y="408">文章动态数据</text></g></g><g transform="translate(-6,-54) scale(1,1)"><path fill="none" stroke="#000000" d="M 266 291 L 355 383" stroke-miterlimit="10" stroke-dasharray="3"/></g><g transform="translate(-6,-54) scale(1,1)"><path fill="none" stroke="#000000" d="M 344.908482214905 378.6226413451589 L 355 383 L 350.95947933021847 372.76895935317094" stroke-miterlimit="10"/></g><g transform="translate(-6,-54) scale(1,1)"><g><path fill="none" stroke="none"/><text fill="#000000" stroke="none" font-family="Arial" font-size="13px" font-style="normal" font-weight="normal" text-decoration="none" x="312" y="332">«include»</text></g></g><g transform="translate(-6,-54) scale(1,1)"><path fill="#ffffff" stroke="none" d="M 424 432 L 565 432 L 575 442 L 575 599 L 424 599 L 424 432"/></g><g transform="translate(-6,-54) scale(1,1)"><path fill="none" stroke="#000000" d="M 424 432 L 565 432 L 575 442 L 575 599 L 424 599 L 424 432 L 424 432" stroke-miterlimit="10"/></g><g transform="translate(-6,-54) scale(1,1)"><path fill="none" stroke="#000000" d="M 565 432 L 565 442 L 575 442 L 565 432" stroke-miterlimit="10"/></g><g transform="translate(-6,-54) scale(1,1)"><g><path fill="none" stroke="none"/><text fill="#000000" stroke="none" font-family="Arial" font-size="13px" font-style="normal" font-weight="normal" text-decoration="none" x="429" y="450">采集的字段</text></g></g><g transform="translate(-6,-54) scale(1,1)"><g><path fill="none" stroke="none"/><text fill="#000000" stroke="none" font-family="Arial" font-size="13px" font-style="normal" font-weight="normal" text-decoration="none" x="429" y="465">1.阅读数</text></g></g><g transform="translate(-6,-54) scale(1,1)"><g><path fill="none" stroke="none"/><text fill="#000000" stroke="none" font-family="Arial" font-size="13px" font-style="normal" font-weight="normal" text-decoration="none" x="429" y="480">2.点赞数</text></g></g><g transform="translate(-6,-54) scale(1,1)"><g><path fill="none" stroke="none"/></g></g><g transform="translate(-6,-54) scale(1,1)"><g><path fill="none" stroke="none"/><text fill="#000000" stroke="none" font-family="Arial" font-size="13px" font-style="normal" font-weight="normal" text-decoration="none" x="429" y="497">采集方式</text></g></g><g transform="translate(-6,-54) scale(1,1)"><g><path fill="none" stroke="none"/><text fill="#000000" stroke="none" font-family="Arial" font-size="13px" font-style="normal" font-weight="normal" text-decoration="none" x="429" y="512">定时采集</text></g></g><g transform="translate(-6,-54) scale(1,1)"><g><path fill="none" stroke="none"/><text fill="#000000" stroke="none" font-family="Arial" font-size="13px" font-style="normal" font-weight="normal" text-decoration="none" x="429" y="527">周期采集</text></g></g><g transform="translate(-6,-54) scale(1,1)"><g><path fill="none" stroke="none"/><text fill="#000000" stroke="none" font-family="Arial" font-size="13px" font-style="normal" font-weight="normal" text-decoration="none" x="429" y="542">实时采集</text></g></g><g transform="translate(-6,-54) scale(1,1)"><path fill="none" stroke="#000000" d="M 393 419 L 423 446" stroke-miterlimit="10" stroke-dasharray="3"/></g><g transform="translate(-6,-54) scale(1,1)"><path fill="#ffffff" stroke="none" d="M 448 232 L 584 232 L 594 242 L 594 379 L 448 379 L 448 232"/></g><g transform="translate(-6,-54) scale(1,1)"><path fill="none" stroke="#000000" d="M 448 232 L 584 232 L 594 242 L 594 379 L 448 379 L 448 232 L 448 232" stroke-miterlimit="10"/></g><g transform="translate(-6,-54) scale(1,1)"><path fill="none" stroke="#000000" d="M 584 232 L 584 242 L 594 242 L 584 232" stroke-miterlimit="10"/></g><g transform="translate(-6,-54) scale(1,1)"><g><path fill="none" stroke="none"/><text fill="#000000" stroke="none" font-family="Arial" font-size="13px" font-style="normal" font-weight="normal" text-decoration="none" x="453" y="250">采集的字段：</text></g></g><g transform="translate(-6,-54) scale(1,1)"><g><path fill="none" stroke="none"/><text fill="#000000" stroke="none" font-family="Arial" font-size="13px" font-style="normal" font-weight="normal" text-decoration="none" x="453" y="265">1.公众号ID</text></g></g><g transform="translate(-6,-54) scale(1,1)"><g><path fill="none" stroke="none"/><text fill="#000000" stroke="none" font-family="Arial" font-size="13px" font-style="normal" font-weight="normal" text-decoration="none" x="453" y="280">2.公众号名称</text></g></g><g transform="translate(-6,-54) scale(1,1)"><g><path fill="none" stroke="none"/><text fill="#000000" stroke="none" font-family="Arial" font-size="13px" font-style="normal" font-weight="normal" text-decoration="none" x="453" y="295">3.认证信息</text></g></g><g transform="translate(-6,-54) scale(1,1)"><g><path fill="none" stroke="none"/><text fill="#000000" stroke="none" font-family="Arial" font-size="13px" font-style="normal" font-weight="normal" text-decoration="none" x="453" y="310">4.头像</text></g></g><g transform="translate(-6,-54) scale(1,1)"><g><path fill="none" stroke="none"/><text fill="#000000" stroke="none" font-family="Arial" font-size="13px" font-style="normal" font-weight="normal" text-decoration="none" x="453" y="325">5.简述</text></g></g><g transform="translate(-6,-54) scale(1,1)"><g><path fill="none" stroke="none"/><text fill="#000000" stroke="none" font-family="Arial" font-size="13px" font-style="normal" font-weight="normal" text-decoration="none" x="453" y="340">6.二维码</text></g></g><g transform="translate(-6,-54) scale(1,1)"><g><path fill="none" stroke="none"/></g></g><g transform="translate(-6,-54) scale(1,1)"><g><path fill="none" stroke="none"/><text fill="#000000" stroke="none" font-family="Arial" font-size="13px" font-style="normal" font-weight="normal" text-decoration="none" x="453" y="357">采集方式</text></g></g><g transform="translate(-6,-54) scale(1,1)"><g><path fill="none" stroke="none"/><text fill="#000000" stroke="none" font-family="Arial" font-size="13px" font-style="normal" font-weight="normal" text-decoration="none" x="453" y="372">一次性采集</text></g></g><g transform="translate(-6,-54) scale(1,1)"><g><path fill="none" stroke="none"/></g></g><g transform="translate(-6,-54) scale(1,1)"><path fill="none" stroke="#000000" d="M 487 211 L 494 231" stroke-miterlimit="10" stroke-dasharray="3"/></g><g transform="translate(-6,-54) scale(1,1)"><path fill="#C0C0C0" stroke="none" d="M 415 88 C 415 78.6111584 450.81721600000003 71 495 71 C 539.182784 71 575 78.6111584 575 88 C 575 97.3888416 539.182784 105 495 105 C 450.81721600000003 105 415 97.3888416 415 88 Z" opacity="0.2"/></g><g transform="translate(-6,-54) scale(1,1)"><path fill="#ffffff" stroke="none" d="M 408 81 C 408 71.6111584 443.81721600000003 64 488 64 C 532.182784 64 568 71.6111584 568 81 C 568 90.3888416 532.182784 98 488 98 C 443.81721600000003 98 408 90.3888416 408 81 Z"/></g><g transform="translate(-6,-54) scale(1,1)"><path fill="none" stroke="#000000" d="M 408 81 C 408 71.6111584 443.81721600000003 64 488 64 C 532.182784 64 568 71.6111584 568 81 C 568 90.3888416 532.182784 98 488 98 C 443.81721600000003 98 408 90.3888416 408 81 Z" stroke-miterlimit="10"/></g><g transform="translate(-6,-54) scale(1,1)"><g><path fill="none" stroke="none"/><text fill="#000000" stroke="none" font-family="Arial" font-size="13px" font-style="normal" font-weight="bold" text-decoration="none" x="436" y="88">自动收录微信文章</text></g></g><g transform="translate(-6,-54) scale(1,1)"><path fill="none" stroke="#000000" d="M 333 136 L 438 99" stroke-miterlimit="10" stroke-dasharray="3"/></g><g transform="translate(-6,-54) scale(1,1)"><path fill="none" stroke="#000000" d="M 429.814045939513 106.34779940659759 L 438 99 L 427.0159775861444 98.40733516055171" stroke-miterlimit="10"/></g><g transform="translate(-6,-54) scale(1,1)"><g><path fill="none" stroke="none"/><text fill="#000000" stroke="none" font-family="Arial" font-size="13px" font-style="normal" font-weight="normal" text-decoration="none" x="348" y="95">«include»</text></g></g><g transform="translate(-6,-54) scale(1,1)"><path fill="#ffffff" stroke="none" d="M 608 64 L 812 64 L 822 74 L 822 112 L 608 112 L 608 64"/></g><g transform="translate(-6,-54) scale(1,1)"><path fill="none" stroke="#000000" d="M 608 64 L 812 64 L 822 74 L 822 112 L 608 112 L 608 64 L 608 64" stroke-miterlimit="10"/></g><g transform="translate(-6,-54) scale(1,1)"><path fill="none" stroke="#000000" d="M 812 64 L 812 74 L 822 74 L 812 64" stroke-miterlimit="10"/></g><g transform="translate(-6,-54) scale(1,1)"><g><path fill="none" stroke="none"/><text fill="#000000" stroke="none" font-family="Arial" font-size="13px" font-style="normal" font-weight="normal" text-decoration="none" x="613" y="82">定时收录24小时内的微信媒体文章</text></g></g><g transform="translate(-6,-54) scale(1,1)"><path fill="none" stroke="#000000" d="M 569 83 L 607 85" stroke-miterlimit="10" stroke-dasharray="3"/></g><g transform="translate(-6,-54) scale(1,1)"><path fill="#C0C0C0" stroke="none" d="M 23 544 C 23 534.6111584 46.505048 527 75.5 527 C 104.494952 527 128 534.6111584 128 544 C 128 553.3888416 104.494952 561 75.5 561 C 46.505048 561 23 553.3888416 23 544 Z" opacity="0.2"/></g><g transform="translate(-6,-54) scale(1,1)"><path fill="#ffffff" stroke="none" d="M 16 537 C 16 527.6111584 39.505048 520 68.5 520 C 97.494952 520 121 527.6111584 121 537 C 121 546.3888416 97.494952 554 68.5 554 C 39.505048 554 16 546.3888416 16 537 Z"/></g><g transform="translate(-6,-54) scale(1,1)"><path fill="none" stroke="#000000" d="M 16 537 C 16 527.6111584 39.505048 520 68.5 520 C 97.494952 520 121 527.6111584 121 537 C 121 546.3888416 97.494952 554 68.5 554 C 39.505048 554 16 546.3888416 16 537 Z" stroke-miterlimit="10"/></g><g transform="translate(-6,-54) scale(1,1)"><g><path fill="none" stroke="none"/><text fill="#000000" stroke="none" font-family="Arial" font-size="13px" font-style="normal" font-weight="bold" text-decoration="none" x="42.5" y="544">文章分析</text></g></g><g transform="translate(-6,-54) scale(1,1)"><path fill="none" stroke="#000000" d="M 140 395 L 77 519" stroke-miterlimit="10" stroke-dasharray="3"/></g><g transform="translate(-6,-54) scale(1,1)"><path fill="none" stroke="#000000" d="M 77.85032322207103 508.0329151358254 L 77 519 L 85.35616939383299 511.8463692392206" stroke-miterlimit="10"/></g><g transform="translate(-6,-54) scale(1,1)"><g><path fill="none" stroke="none"/><text fill="#000000" stroke="none" font-family="Arial" font-size="13px" font-style="normal" font-weight="normal" text-decoration="none" x="108" y="477">«extend»</text></g></g></g></svg>