<svg version="1.1" xmlns="http://www.w3.org/2000/svg" xmlns:xlink="http://www.w3.org/1999/xlink" width="1036" height="733"><defs/><g><g transform="translate(10,-22) scale(1,1)"><rect fill="#C0C0C0" stroke="none" x="159" y="311" width="540" height="60" opacity="0.2"/></g><g transform="translate(10,-22) scale(1,1)"><rect fill="#ffffff" stroke="none" x="152" y="304" width="540" height="60"/></g><g transform="translate(10,-22) scale(1,1)"><path fill="none" stroke="#000000" d="M 152 304 L 692 304 L 692 364 L 152 364 L 152 304 Z Z" stroke-miterlimit="10"/></g><g transform="translate(10,-22) scale(1,1)"><path fill="none" stroke="#000000" d="M 152 342 L 692 342" stroke-miterlimit="10"/></g><g transform="translate(10,-22) scale(1,1)"><g><path fill="none" stroke="none"/><text fill="#000000" stroke="none" font-family="Arial" font-size="13px" font-style="normal" font-weight="normal" text-decoration="none" x="390" y="321.5">«interface»</text></g></g><g transform="translate(10,-22) scale(1,1)"><g><path fill="none" stroke="none"/><text fill="#000000" stroke="none" font-family="Arial" font-size="13px" font-style="normal" font-weight="bold" text-decoration="none" x="396.5" y="336.5">Collector</text></g></g><g transform="translate(10,-22) scale(1,1)"><g><path fill="none" stroke="none"/><text fill="#000000" stroke="none" font-family="Arial" font-size="13px" font-style="normal" font-weight="normal" text-decoration="none" x="157" y="359.5">+bollean collect(condition: String, collectType: collectType, trigger : Trigger, priority Priority)</text></g></g><g transform="translate(10,-22) scale(1,1)"><rect fill="#C0C0C0" stroke="none" x="167" y="431" width="128" height="15" opacity="0.2"/></g><g transform="translate(10,-22) scale(1,1)"><rect fill="#C0C0C0" stroke="none" x="167" y="445" width="320" height="162" opacity="0.2"/></g><g transform="translate(10,-22) scale(1,1)"><rect fill="#ffffff" stroke="none" x="160" y="439" width="320" height="161"/></g><g transform="translate(10,-22) scale(1,1)"><path fill="none" stroke="#000000" d="M 160 439 L 480 439 L 480 600 L 160 600 L 160 439 Z Z" stroke-miterlimit="10"/></g><g transform="translate(10,-22) scale(1,1)"><rect fill="#ffffff" stroke="none" x="160" y="424" width="128" height="15"/></g><g transform="translate(10,-22) scale(1,1)"><path fill="none" stroke="#000000" d="M 160 424 L 288 424 L 288 439 L 160 439 L 160 424 Z Z" stroke-miterlimit="10"/></g><g transform="translate(10,-22) scale(1,1)"><rect fill="#ffffff" stroke="none" x="160" y="438" width="320" height="162"/></g><g transform="translate(10,-22) scale(1,1)"><path fill="none" stroke="#000000" d="M 160 438 L 480 438 L 480 600 L 160 600 L 160 438 Z Z" stroke-miterlimit="10"/></g><g transform="translate(10,-22) scale(1,1)"><g><path fill="none" stroke="none"/><text fill="#000000" stroke="none" font-family="Arial" font-size="13px" font-style="normal" font-weight="bold" text-decoration="none" x="299.5" y="458.5">Uranus</text></g></g><g transform="translate(10,-22) scale(1,1)"><rect fill="#C0C0C0" stroke="none" x="519" y="551" width="123" height="48" opacity="0.2"/></g><g transform="translate(10,-22) scale(1,1)"><rect fill="#ffffff" stroke="none" x="512" y="544" width="123" height="48"/></g><g transform="translate(10,-22) scale(1,1)"><path fill="none" stroke="#000000" d="M 512 544 L 635 544 L 635 592 L 512 592 L 512 544 Z Z" stroke-miterlimit="10"/></g><g transform="translate(10,-22) scale(1,1)"><g><path fill="none" stroke="none"/><text fill="#000000" stroke="none" font-family="Arial" font-size="13px" font-style="normal" font-weight="normal" text-decoration="none" x="541.5" y="561.5">«interface»</text></g></g><g transform="translate(10,-22) scale(1,1)"><g><path fill="none" stroke="none"/><text fill="#000000" stroke="none" font-family="Arial" font-size="13px" font-style="normal" font-weight="bold" text-decoration="none" x="519.5" y="576.5">CollectDataSender</text></g></g><g transform="translate(10,-22) scale(1,1)"><rect fill="#C0C0C0" stroke="none" x="351" y="559" width="37.60000000000002" height="15" opacity="0.2"/></g><g transform="translate(10,-22) scale(1,1)"><rect fill="#C0C0C0" stroke="none" x="351" y="573" width="94" height="25" opacity="0.2"/></g><g transform="translate(10,-22) scale(1,1)"><rect fill="#ffffff" stroke="none" x="344" y="567" width="94" height="24"/></g><g transform="translate(10,-22) scale(1,1)"><path fill="none" stroke="#000000" d="M 344 567 L 438 567 L 438 591 L 344 591 L 344 567 Z Z" stroke-miterlimit="10"/></g><g transform="translate(10,-22) scale(1,1)"><rect fill="#ffffff" stroke="none" x="344" y="552" width="37.60000000000002" height="15"/></g><g transform="translate(10,-22) scale(1,1)"><path fill="none" stroke="#000000" d="M 344 552 L 381.6 552 L 381.6 567 L 344 567 L 344 552 Z Z" stroke-miterlimit="10"/></g><g transform="translate(10,-22) scale(1,1)"><rect fill="#ffffff" stroke="none" x="344" y="566" width="94" height="25"/></g><g transform="translate(10,-22) scale(1,1)"><path fill="none" stroke="#000000" d="M 344 566 L 438 566 L 438 591 L 344 591 L 344 566 Z Z" stroke-miterlimit="10"/></g><g transform="translate(10,-22) scale(1,1)"><path fill="none" stroke="#000000" d="M 373.6 555 L 373.6 559" stroke-miterlimit="10"/></g><g transform="translate(10,-22) scale(1,1)"><path fill="none" stroke="#000000" d="M 370.6 563 L 370.6 559 L 376.6 559" stroke-miterlimit="10"/></g><g transform="translate(10,-22) scale(1,1)"><path fill="none" stroke="#000000" d="M 376.6 563 L 376.6 559 L 370.6 559" stroke-miterlimit="10"/></g><g transform="translate(10,-22) scale(1,1)"><g><path fill="none" stroke="none"/><text fill="#000000" stroke="none" font-family="Arial" font-size="13px" font-style="normal" font-weight="bold" text-decoration="none" x="351.5" y="586.5">uranus-server</text></g></g><g transform="translate(10,-22) scale(1,1)"><path fill="none" stroke="#000000" d="M 439 570 L 511 569" stroke-miterlimit="10"/></g><g transform="translate(10,-22) scale(1,1)"><path fill="none" stroke="#000000" d="M 500.89676508302 573.3502464542042 L 511 569 L 500.7798453106822 564.9320228458832" stroke-miterlimit="10"/></g><g transform="translate(10,-22) scale(1,1)"><rect fill="#C0C0C0" stroke="none" x="727" y="311" width="73" height="48" opacity="0.2"/></g><g transform="translate(10,-22) scale(1,1)"><rect fill="#ffffff" stroke="none" x="720" y="304" width="73" height="48"/></g><g transform="translate(10,-22) scale(1,1)"><path fill="none" stroke="#000000" d="M 720 304 L 793 304 L 793 352 L 720 352 L 720 304 Z Z" stroke-miterlimit="10"/></g><g transform="translate(10,-22) scale(1,1)"><g><path fill="none" stroke="none"/><text fill="#000000" stroke="none" font-family="Arial" font-size="13px" font-style="normal" font-weight="normal" text-decoration="none" x="724.5" y="321.5">«interface»</text></g></g><g transform="translate(10,-22) scale(1,1)"><g><path fill="none" stroke="none"/><text fill="#000000" stroke="none" font-family="Arial" font-size="13px" font-style="normal" font-weight="bold" text-decoration="none" x="736.5" y="336.5">Trigger</text></g></g><g transform="translate(10,-22) scale(1,1)"><path fill="none" stroke="#000000" d="M 693 329 L 719 329" stroke-miterlimit="10"/></g><g transform="translate(10,-22) scale(1,1)"><path fill="none" stroke="#000000" d="M 708.8373251423759 333.209517756016 L 719 329 L 708.8373251423758 324.790482243984" stroke-miterlimit="10"/></g><g transform="translate(10,-22) scale(1,1)"><rect fill="#C0C0C0" stroke="none" x="695" y="391" width="125" height="102" opacity="0.2"/></g><g transform="translate(10,-22) scale(1,1)"><rect fill="#ffffff" stroke="none" x="688" y="384" width="125" height="102"/></g><g transform="translate(10,-22) scale(1,1)"><path fill="none" stroke="#000000" d="M 688 384 L 813 384 L 813 486 L 688 486 L 688 384 Z Z" stroke-miterlimit="10"/></g><g transform="translate(10,-22) scale(1,1)"><path fill="none" stroke="#000000" d="M 688 409 L 813 409" stroke-miterlimit="10"/></g><g transform="translate(10,-22) scale(1,1)"><path fill="none" stroke="#000000" d="M 688 477 L 813 477" stroke-miterlimit="10"/></g><g transform="translate(10,-22) scale(1,1)"><g><path fill="none" stroke="none"/><text fill="#000000" stroke="none" font-family="Arial" font-size="13px" font-style="normal" font-weight="bold" text-decoration="none" x="707" y="403.5">PeriodicTrigger</text></g></g><g transform="translate(10,-22) scale(1,1)"><g><path fill="none" stroke="none"/><text fill="#000000" stroke="none" font-family="Arial" font-size="13px" font-style="normal" font-weight="normal" text-decoration="none" x="693" y="426.5">+u: TimeUnit</text></g></g><g transform="translate(10,-22) scale(1,1)"><g><path fill="none" stroke="none"/><text fill="#000000" stroke="none" font-family="Arial" font-size="13px" font-style="normal" font-weight="normal" text-decoration="none" x="693" y="441.5">+v: Long</text></g></g><g transform="translate(10,-22) scale(1,1)"><g><path fill="none" stroke="none"/><text fill="#000000" stroke="none" font-family="Arial" font-size="13px" font-style="normal" font-weight="normal" text-decoration="none" x="693" y="456.5">+st: Long</text></g></g><g transform="translate(10,-22) scale(1,1)"><g><path fill="none" stroke="none"/><text fill="#000000" stroke="none" font-family="Arial" font-size="13px" font-style="normal" font-weight="normal" text-decoration="none" x="693" y="471.5">+et: Long</text></g></g><g transform="translate(10,-22) scale(1,1)"><path fill="none" stroke="#000000" d="M 753 383 L 755 353" stroke-miterlimit="10" stroke-dasharray="3"/></g><g transform="translate(10,-22) scale(1,1)"><path fill="#FFFFFF" stroke="none" d="M 762.0483665257652 373.8403581859447 L 755 353 L 745.2475891710188 372.72030636229493"/></g><g transform="translate(10,-22) scale(1,1)"><path fill="none" stroke="#000000" d="M 762.0483665257652 373.8403581859447 L 755 353 L 745.2475891710188 372.72030636229493 L 762.0483665257652 373.8403581859447" stroke-miterlimit="10"/></g><g transform="translate(10,-22) scale(1,1)"><rect fill="#C0C0C0" stroke="none" x="847" y="311" width="108" height="57" opacity="0.2"/></g><g transform="translate(10,-22) scale(1,1)"><rect fill="#ffffff" stroke="none" x="840" y="304" width="108" height="57"/></g><g transform="translate(10,-22) scale(1,1)"><path fill="none" stroke="#000000" d="M 840 304 L 948 304 L 948 361 L 840 361 L 840 304 Z Z" stroke-miterlimit="10"/></g><g transform="translate(10,-22) scale(1,1)"><path fill="none" stroke="#000000" d="M 840 329 L 948 329" stroke-miterlimit="10"/></g><g transform="translate(10,-22) scale(1,1)"><path fill="none" stroke="#000000" d="M 840 352 L 948 352" stroke-miterlimit="10"/></g><g transform="translate(10,-22) scale(1,1)"><g><path fill="none" stroke="none"/><text fill="#000000" stroke="none" font-family="Arial" font-size="13px" font-style="normal" font-weight="bold" text-decoration="none" x="849.5" y="323.5">JustOneTrigger</text></g></g><g transform="translate(10,-22) scale(1,1)"><g><path fill="none" stroke="none"/><text fill="#000000" stroke="none" font-family="Arial" font-size="13px" font-style="normal" font-weight="normal" text-decoration="none" x="845" y="346.5">+s: Long</text></g></g><g transform="translate(10,-22) scale(1,1)"><rect fill="#C0C0C0" stroke="none" x="55" y="639" width="174" height="60" opacity="0.2"/></g><g transform="translate(10,-22) scale(1,1)"><rect fill="#ffffff" stroke="none" x="48" y="632" width="174" height="60"/></g><g transform="translate(10,-22) scale(1,1)"><path fill="none" stroke="#000000" d="M 48 632 L 222 632 L 222 692 L 48 692 L 48 632 Z Z" stroke-miterlimit="10"/></g><g transform="translate(10,-22) scale(1,1)"><path fill="none" stroke="#000000" d="M 48 670 L 222 670" stroke-miterlimit="10"/></g><g transform="translate(10,-22) scale(1,1)"><g><path fill="none" stroke="none"/><text fill="#000000" stroke="none" font-family="Arial" font-size="13px" font-style="normal" font-weight="normal" text-decoration="none" x="103" y="649.5">«interface»</text></g></g><g transform="translate(10,-22) scale(1,1)"><g><path fill="none" stroke="none"/><text fill="#000000" stroke="none" font-family="Arial" font-size="13px" font-style="normal" font-weight="bold" text-decoration="none" x="101" y="664.5">UrlFormater</text></g></g><g transform="translate(10,-22) scale(1,1)"><g><path fill="none" stroke="none"/><text fill="#000000" stroke="none" font-family="Arial" font-size="13px" font-style="normal" font-weight="normal" text-decoration="none" x="53" y="687.5">+String urlFormat(url: String)</text></g></g><g transform="translate(10,-22) scale(1,1)"><path fill="#ffffff" stroke="none" d="M 344 696 L 550 696 L 560 706 L 560 744 L 344 744 L 344 696"/></g><g transform="translate(10,-22) scale(1,1)"><path fill="none" stroke="#000000" d="M 344 696 L 550 696 L 560 706 L 560 744 L 344 744 L 344 696 L 344 696" stroke-miterlimit="10"/></g><g transform="translate(10,-22) scale(1,1)"><path fill="none" stroke="#000000" d="M 550 696 L 550 706 L 560 706 L 550 696" stroke-miterlimit="10"/></g><g transform="translate(10,-22) scale(1,1)"><g><path fill="none" stroke="none"/><text fill="#000000" stroke="none" font-family="Arial" font-size="13px" font-style="normal" font-weight="normal" text-decoration="none" x="349" y="714">Url采集请求需该接口进行格式化</text></g></g><g transform="translate(10,-22) scale(1,1)"><path fill="none" stroke="#000000" d="M 223 678 L 343 700" stroke-miterlimit="10" stroke-dasharray="3"/></g><g transform="translate(10,-22) scale(1,1)"><path fill="none" stroke="#000000" d="M 839 330 L 794 329" stroke-miterlimit="10" stroke-dasharray="3"/></g><g transform="translate(10,-22) scale(1,1)"><path fill="#FFFFFF" stroke="none" d="M 814.5073764685235 321.03460544742126 L 794 329 L 814.1332894681932 337.8685204622835"/></g><g transform="translate(10,-22) scale(1,1)"><path fill="none" stroke="#000000" d="M 814.5073764685235 321.03460544742126 L 794 329 L 814.1332894681932 337.8685204622835 L 814.5073764685235 321.03460544742126" stroke-miterlimit="10"/></g><g transform="translate(10,-22) scale(1,1)"><rect fill="#C0C0C0" stroke="none" x="369" y="471" width="98" height="44" opacity="0.2"/></g><g transform="translate(10,-22) scale(1,1)"><rect fill="#ffffff" stroke="none" x="362" y="464" width="98" height="44"/></g><g transform="translate(10,-22) scale(1,1)"><path fill="none" stroke="#000000" d="M 362 464 L 460 464 L 460 508 L 362 508 L 362 464 Z Z" stroke-miterlimit="10"/></g><g transform="translate(10,-22) scale(1,1)"><rect fill="#ffffff" stroke="none" x="352" y="471" width="20" height="10"/></g><g transform="translate(10,-22) scale(1,1)"><path fill="none" stroke="#000000" d="M 352 471 L 372 471 L 372 481 L 352 481 L 352 471 Z Z" stroke-miterlimit="10"/></g><g transform="translate(10,-22) scale(1,1)"><rect fill="#ffffff" stroke="none" x="352" y="491" width="20" height="10"/></g><g transform="translate(10,-22) scale(1,1)"><path fill="none" stroke="#000000" d="M 352 491 L 372 491 L 372 501 L 352 501 L 352 491 Z Z" stroke-miterlimit="10"/></g><g transform="translate(10,-22) scale(1,1)"><g><path fill="none" stroke="none"/><text fill="#000000" stroke="none" font-family="Arial" font-size="13px" font-style="normal" font-weight="bold" text-decoration="none" x="384" y="483.5">uranus-sdk</text></g></g><g transform="translate(10,-22) scale(1,1)"><g><path fill="none" stroke="none"/><text fill="#000000" stroke="none" font-family="Arial" font-size="13px" font-style="normal" font-weight="normal" text-decoration="none" x="376.5" y="498.5">(from Uranus)</text></g></g><g transform="translate(10,-22) scale(1,1)"><path fill="none" stroke="#000000" d="M 408 463 L 419 365" stroke-miterlimit="10" stroke-dasharray="3"/></g><g transform="translate(10,-22) scale(1,1)"><path fill="#FFFFFF" stroke="none" d="M 425.09931657895476 386.1376048139255 L 419 365 L 408.3663244116143 384.2594118155506"/></g><g transform="translate(10,-22) scale(1,1)"><path fill="none" stroke="#000000" d="M 425.09931657895476 386.1376048139255 L 419 365 L 408.3663244116143 384.2594118155506 L 425.09931657895476 386.1376048139255" stroke-miterlimit="10"/></g><g transform="translate(10,-22) scale(1,1)"><path fill="#ffffff" stroke="none" d="M 40.82072727272727 289.68 C 40.82072727272727 284.886167936 44.706569597672726 281 49.5 281 C 54.293430402327274 281 58.17927272727273 284.886167936 58.17927272727273 289.68 C 58.17927272727273 294.473832064 54.293430402327274 298.36 49.5 298.36 C 44.706569597672726 298.36 40.82072727272727 294.473832064 40.82072727272727 289.68 Z"/></g><g transform="translate(10,-22) scale(1,1)"><path fill="none" stroke="#000000" d="M 40.82072727272727 289.68 C 40.82072727272727 284.886167936 44.706569597672726 281 49.5 281 C 54.293430402327274 281 58.17927272727273 284.886167936 58.17927272727273 289.68 C 58.17927272727273 294.473832064 54.293430402327274 298.36 49.5 298.36 C 44.706569597672726 298.36 40.82072727272727 294.473832064 40.82072727272727 289.68 Z" stroke-miterlimit="10"/></g><g transform="translate(10,-22) scale(1,1)"><path fill="none" stroke="#000000" d="M 49.5 298.36 L 49.5 315.64" stroke-miterlimit="10"/></g><g transform="translate(10,-22) scale(1,1)"><path fill="none" stroke="#000000" d="M 40.31018181818182 304.84 L 58.68981818181818 304.84" stroke-miterlimit="10"/></g><g transform="translate(10,-22) scale(1,1)"><path fill="none" stroke="#000000" d="M 49.5 315.64 L 36.736363636363635 333" stroke-miterlimit="10"/></g><g transform="translate(10,-22) scale(1,1)"><path fill="none" stroke="#000000" d="M 49.5 315.64 L 62.263636363636365 333" stroke-miterlimit="10"/></g><g transform="translate(10,-22) scale(1,1)"><g><path fill="none" stroke="none"/><text fill="#000000" stroke="none" font-family="Arial" font-size="13px" font-style="normal" font-weight="bold" text-decoration="none" x="37.5" y="353.5">gaia</text></g></g><g transform="translate(10,-22) scale(1,1)"><g><path fill="none" stroke="none"/><text fill="#000000" stroke="none" font-family="Arial" font-size="13px" font-style="normal" font-weight="normal" text-decoration="none" x="4.5" y="368.5">(from 用例视图)</text></g></g><g transform="translate(10,-22) scale(1,1)"><path fill="none" stroke="#000000" d="M 100 328 L 151 329" stroke-miterlimit="10"/></g><g transform="translate(10,-22) scale(1,1)"><path fill="none" stroke="#000000" d="M 140.7567544868664 333.00947893842437 L 151 329 L 140.92180188992006 324.5920613826891" stroke-miterlimit="10"/></g><g transform="translate(10,-22) scale(1,1)"><path fill="#ffffff" stroke="none" d="M 720.8207272727273 601.6800000000001 C 720.8207272727273 596.8861679360001 724.7065695976727 593 729.5 593 C 734.2934304023273 593 738.1792727272727 596.8861679360001 738.1792727272727 601.6800000000001 C 738.1792727272727 606.473832064 734.2934304023273 610.36 729.5 610.36 C 724.7065695976727 610.36 720.8207272727273 606.473832064 720.8207272727273 601.6800000000001 Z"/></g><g transform="translate(10,-22) scale(1,1)"><path fill="none" stroke="#000000" d="M 720.8207272727273 601.6800000000001 C 720.8207272727273 596.8861679360001 724.7065695976727 593 729.5 593 C 734.2934304023273 593 738.1792727272727 596.8861679360001 738.1792727272727 601.6800000000001 C 738.1792727272727 606.473832064 734.2934304023273 610.36 729.5 610.36 C 724.7065695976727 610.36 720.8207272727273 606.473832064 720.8207272727273 601.6800000000001 Z" stroke-miterlimit="10"/></g><g transform="translate(10,-22) scale(1,1)"><path fill="none" stroke="#000000" d="M 729.5 610.36 L 729.5 627.64" stroke-miterlimit="10"/></g><g transform="translate(10,-22) scale(1,1)"><path fill="none" stroke="#000000" d="M 720.3101818181818 616.84 L 738.6898181818182 616.84" stroke-miterlimit="10"/></g><g transform="translate(10,-22) scale(1,1)"><path fill="none" stroke="#000000" d="M 729.5 627.64 L 716.7363636363636 645" stroke-miterlimit="10"/></g><g transform="translate(10,-22) scale(1,1)"><path fill="none" stroke="#000000" d="M 729.5 627.64 L 742.2636363636364 645" stroke-miterlimit="10"/></g><g transform="translate(10,-22) scale(1,1)"><g><path fill="none" stroke="none"/><text fill="#000000" stroke="none" font-family="Arial" font-size="13px" font-style="normal" font-weight="bold" text-decoration="none" x="717.5" y="665.5">gaia</text></g></g><g transform="translate(10,-22) scale(1,1)"><g><path fill="none" stroke="none"/><text fill="#000000" stroke="none" font-family="Arial" font-size="13px" font-style="normal" font-weight="normal" text-decoration="none" x="684.5" y="680.5">(from 用例视图)</text></g></g><g transform="translate(10,-22) scale(1,1)"><path fill="none" stroke="#000000" d="M 679 616 L 628 593" stroke-miterlimit="10"/></g><g transform="translate(10,-22) scale(1,1)"><path fill="none" stroke="#000000" d="M 638.9947252011183 593.3406137869996 L 628 593 L 635.5335944284403 601.0152950655464" stroke-miterlimit="10"/></g><g transform="translate(10,-22) scale(1,1)"><rect fill="#C0C0C0" stroke="none" x="439" y="39" width="96" height="195" opacity="0.2"/></g><g transform="translate(10,-22) scale(1,1)"><rect fill="#ffffff" stroke="none" x="432" y="32" width="96" height="195"/></g><g transform="translate(10,-22) scale(1,1)"><path fill="none" stroke="#000000" d="M 432 32 L 528 32 L 528 227 L 432 227 L 432 32 Z Z" stroke-miterlimit="10"/></g><g transform="translate(10,-22) scale(1,1)"><path fill="none" stroke="#000000" d="M 432 70 L 528 70" stroke-miterlimit="10"/></g><g transform="translate(10,-22) scale(1,1)"><g><path fill="none" stroke="none"/><text fill="#000000" stroke="none" font-family="Arial" font-size="13px" font-style="normal" font-weight="normal" text-decoration="none" x="437.5" y="49.5">«enumeration»</text></g></g><g transform="translate(10,-22) scale(1,1)"><g><path fill="none" stroke="none"/><text fill="#000000" stroke="none" font-family="Arial" font-size="13px" font-style="normal" font-weight="bold" text-decoration="none" x="440" y="64.5">CollectorType</text></g></g><g transform="translate(10,-22) scale(1,1)"><g><path fill="none" stroke="none"/><text fill="#000000" stroke="none" font-family="Arial" font-size="13px" font-style="normal" font-weight="normal" text-decoration="none" x="437" y="87.5">C_A_A_S</text></g></g><g transform="translate(10,-22) scale(1,1)"><g><path fill="none" stroke="none"/><text fill="#000000" stroke="none" font-family="Arial" font-size="13px" font-style="normal" font-weight="normal" text-decoration="none" x="437" y="102.5">C_A_A_D</text></g></g><g transform="translate(10,-22) scale(1,1)"><g><path fill="none" stroke="none"/><text fill="#000000" stroke="none" font-family="Arial" font-size="13px" font-style="normal" font-weight="normal" text-decoration="none" x="437" y="117.5">C_WX_A_D</text></g></g><g transform="translate(10,-22) scale(1,1)"><g><path fill="none" stroke="none"/><text fill="#000000" stroke="none" font-family="Arial" font-size="13px" font-style="normal" font-weight="normal" text-decoration="none" x="437" y="132.5">C_WX_A_S</text></g></g><g transform="translate(10,-22) scale(1,1)"><g><path fill="none" stroke="none"/><text fill="#000000" stroke="none" font-family="Arial" font-size="13px" font-style="normal" font-weight="normal" text-decoration="none" x="437" y="147.5">C_WX_M_S</text></g></g><g transform="translate(10,-22) scale(1,1)"><g><path fill="none" stroke="none"/><text fill="#000000" stroke="none" font-family="Arial" font-size="13px" font-style="normal" font-weight="normal" text-decoration="none" x="437" y="162.5">C_WX_M_D</text></g></g><g transform="translate(10,-22) scale(1,1)"><g><path fill="none" stroke="none"/><text fill="#000000" stroke="none" font-family="Arial" font-size="13px" font-style="normal" font-weight="normal" text-decoration="none" x="437" y="177.5">C_WB_A_D</text></g></g><g transform="translate(10,-22) scale(1,1)"><g><path fill="none" stroke="none"/><text fill="#000000" stroke="none" font-family="Arial" font-size="13px" font-style="normal" font-weight="normal" text-decoration="none" x="437" y="192.5">C_WB_A_S</text></g></g><g transform="translate(10,-22) scale(1,1)"><g><path fill="none" stroke="none"/><text fill="#000000" stroke="none" font-family="Arial" font-size="13px" font-style="normal" font-weight="normal" text-decoration="none" x="437" y="207.5">C_WB_M_S</text></g></g><g transform="translate(10,-22) scale(1,1)"><g><path fill="none" stroke="none"/><text fill="#000000" stroke="none" font-family="Arial" font-size="13px" font-style="normal" font-weight="normal" text-decoration="none" x="437" y="222.5">C_WB_M_D</text></g></g><g transform="translate(10,-22) scale(1,1)"><path fill="none" stroke="#000000" d="M 431 303 L 452 228" stroke-miterlimit="10"/></g><g transform="translate(10,-22) scale(1,1)"><path fill="none" stroke="#000000" d="M 453.3134528744465 238.92130219097558 L 452 228 L 445.20622459566374 236.65127827291641" stroke-miterlimit="10"/></g><g transform="translate(10,-22) scale(1,1)"><rect fill="#C0C0C0" stroke="none" x="559" y="175" width="96" height="90" opacity="0.2"/></g><g transform="translate(10,-22) scale(1,1)"><rect fill="#ffffff" stroke="none" x="552" y="168" width="96" height="90"/></g><g transform="translate(10,-22) scale(1,1)"><path fill="none" stroke="#000000" d="M 552 168 L 648 168 L 648 258 L 552 258 L 552 168 Z Z" stroke-miterlimit="10"/></g><g transform="translate(10,-22) scale(1,1)"><path fill="none" stroke="#000000" d="M 552 206 L 648 206" stroke-miterlimit="10"/></g><g transform="translate(10,-22) scale(1,1)"><g><path fill="none" stroke="none"/><text fill="#000000" stroke="none" font-family="Arial" font-size="13px" font-style="normal" font-weight="normal" text-decoration="none" x="557.5" y="185.5">«enumeration»</text></g></g><g transform="translate(10,-22) scale(1,1)"><g><path fill="none" stroke="none"/><text fill="#000000" stroke="none" font-family="Arial" font-size="13px" font-style="normal" font-weight="bold" text-decoration="none" x="579.5" y="200.5">Priority</text></g></g><g transform="translate(10,-22) scale(1,1)"><g><path fill="none" stroke="none"/><text fill="#000000" stroke="none" font-family="Arial" font-size="13px" font-style="normal" font-weight="normal" text-decoration="none" x="557" y="223.5">L1</text></g></g><g transform="translate(10,-22) scale(1,1)"><g><path fill="none" stroke="none"/><text fill="#000000" stroke="none" font-family="Arial" font-size="13px" font-style="normal" font-weight="normal" text-decoration="none" x="557" y="238.5">L2</text></g></g><g transform="translate(10,-22) scale(1,1)"><g><path fill="none" stroke="none"/><text fill="#000000" stroke="none" font-family="Arial" font-size="13px" font-style="normal" font-weight="normal" text-decoration="none" x="557" y="253.5">L3</text></g></g><g transform="translate(10,-22) scale(1,1)"><path fill="none" stroke="#000000" d="M 468 303 L 551 246" stroke-miterlimit="10"/></g><g transform="translate(10,-22) scale(1,1)"><path fill="none" stroke="#000000" d="M 545.0056244604067 255.2232023663327 L 551 246 L 540.2395474694852 248.28312534446448" stroke-miterlimit="10"/></g><g transform="translate(10,-22) scale(1,1)"><path fill="#ffffff" stroke="none" d="M 144 40 L 348 40 L 358 50 L 358 198 L 144 198 L 144 40"/></g><g transform="translate(10,-22) scale(1,1)"><path fill="none" stroke="#000000" d="M 144 40 L 348 40 L 358 50 L 358 198 L 144 198 L 144 40 L 144 40" stroke-miterlimit="10"/></g><g transform="translate(10,-22) scale(1,1)"><path fill="none" stroke="#000000" d="M 348 40 L 348 50 L 358 50 L 348 40" stroke-miterlimit="10"/></g><g transform="translate(10,-22) scale(1,1)"><g><path fill="none" stroke="none"/><text fill="#000000" stroke="none" font-family="Arial" font-size="13px" font-style="normal" font-weight="normal" text-decoration="none" x="149" y="58">    C_WX_M_D  //微信媒体动态</text></g></g><g transform="translate(10,-22) scale(1,1)"><g><path fill="none" stroke="none"/><text fill="#000000" stroke="none" font-family="Arial" font-size="13px" font-style="normal" font-weight="normal" text-decoration="none" x="149" y="73">    C_WX_M_S  //微信媒体静态</text></g></g><g transform="translate(10,-22) scale(1,1)"><g><path fill="none" stroke="none"/><text fill="#000000" stroke="none" font-family="Arial" font-size="13px" font-style="normal" font-weight="normal" text-decoration="none" x="149" y="88">    C_WX_A_D  //微信文章动态</text></g></g><g transform="translate(10,-22) scale(1,1)"><g><path fill="none" stroke="none"/><text fill="#000000" stroke="none" font-family="Arial" font-size="13px" font-style="normal" font-weight="normal" text-decoration="none" x="149" y="103">    C_WX_A_S  //微信文章静态</text></g></g><g transform="translate(10,-22) scale(1,1)"><g><path fill="none" stroke="none"/><text fill="#000000" stroke="none" font-family="Arial" font-size="13px" font-style="normal" font-weight="normal" text-decoration="none" x="149" y="118">    C_WB_A_S  //微博文章静态</text></g></g><g transform="translate(10,-22) scale(1,1)"><g><path fill="none" stroke="none"/><text fill="#000000" stroke="none" font-family="Arial" font-size="13px" font-style="normal" font-weight="normal" text-decoration="none" x="149" y="133">    C_WB_A_D  //微博文章动态</text></g></g><g transform="translate(10,-22) scale(1,1)"><g><path fill="none" stroke="none"/><text fill="#000000" stroke="none" font-family="Arial" font-size="13px" font-style="normal" font-weight="normal" text-decoration="none" x="149" y="148">    C_WB_M_D  //微博媒体动态</text></g></g><g transform="translate(10,-22) scale(1,1)"><g><path fill="none" stroke="none"/><text fill="#000000" stroke="none" font-family="Arial" font-size="13px" font-style="normal" font-weight="normal" text-decoration="none" x="149" y="163">    C_WB_M_S  //微博媒体静态</text></g></g><g transform="translate(10,-22) scale(1,1)"><g><path fill="none" stroke="none"/><text fill="#000000" stroke="none" font-family="Arial" font-size="13px" font-style="normal" font-weight="normal" text-decoration="none" x="149" y="178">    C_A_A_D   //通用文章动态</text></g></g><g transform="translate(10,-22) scale(1,1)"><g><path fill="none" stroke="none"/><text fill="#000000" stroke="none" font-family="Arial" font-size="13px" font-style="normal" font-weight="normal" text-decoration="none" x="149" y="193">    C_A_A_S   //通用文章静态</text></g></g><g transform="translate(10,-22) scale(1,1)"><path fill="none" stroke="#000000" d="M 431 127 L 360 124" stroke-miterlimit="10" stroke-dasharray="3"/></g><g transform="translate(10,-22) scale(1,1)"><path fill="#ffffff" stroke="none" d="M 608 80 L 714 80 L 724 90 L 724 128 L 608 128 L 608 80"/></g><g transform="translate(10,-22) scale(1,1)"><path fill="none" stroke="#000000" d="M 608 80 L 714 80 L 724 90 L 724 128 L 608 128 L 608 80 L 608 80" stroke-miterlimit="10"/></g><g transform="translate(10,-22) scale(1,1)"><path fill="none" stroke="#000000" d="M 714 80 L 714 90 L 724 90 L 714 80" stroke-miterlimit="10"/></g><g transform="translate(10,-22) scale(1,1)"><g><path fill="none" stroke="none"/><text fill="#000000" stroke="none" font-family="Arial" font-size="13px" font-style="normal" font-weight="normal" text-decoration="none" x="613" y="98">L1,L2,L3</text><text fill="#000000" stroke="none" font-family="Arial" font-size="13px" font-style="normal" font-weight="normal" text-decoration="none" x="613" y="111">越靠近1权限越高</text></g></g><g transform="translate(10,-22) scale(1,1)"><g><path fill="none" stroke="none"/></g></g><g transform="translate(10,-22) scale(1,1)"><path fill="none" stroke="#000000" d="M 628 167 L 650 130" stroke-miterlimit="10" stroke-dasharray="3"/></g><g transform="translate(10,-22) scale(1,1)"><path fill="#ffffff" stroke="none" d="M 704 192 L 907 192 L 917 202 L 917 240 L 704 240 L 704 192"/></g><g transform="translate(10,-22) scale(1,1)"><path fill="none" stroke="#000000" d="M 704 192 L 907 192 L 917 202 L 917 240 L 704 240 L 704 192 L 704 192" stroke-miterlimit="10"/></g><g transform="translate(10,-22) scale(1,1)"><path fill="none" stroke="#000000" d="M 907 192 L 907 202 L 917 202 L 907 192" stroke-miterlimit="10"/></g><g transform="translate(10,-22) scale(1,1)"><g><path fill="none" stroke="none"/><text fill="#000000" stroke="none" font-family="Arial" font-size="13px" font-style="normal" font-weight="normal" text-decoration="none" x="709" y="210">trigger:触发方式：</text></g></g><g transform="translate(10,-22) scale(1,1)"><g><path fill="none" stroke="none"/><text fill="#000000" stroke="none" font-family="Arial" font-size="13px" font-style="normal" font-weight="normal" text-decoration="none" x="709" y="225">现支持一次性触发，和周期性触发</text></g></g><g transform="translate(10,-22) scale(1,1)"><path fill="none" stroke="#000000" d="M 768 303 L 798 242" stroke-miterlimit="10" stroke-dasharray="3"/></g><g transform="translate(10,-22) scale(1,1)"><path fill="#ffffff" stroke="none" d="M 880 384 L 1005 384 L 1015 394 L 1015 437 L 880 437 L 880 384"/></g><g transform="translate(10,-22) scale(1,1)"><path fill="none" stroke="#000000" d="M 880 384 L 1005 384 L 1015 394 L 1015 437 L 880 437 L 880 384 L 880 384" stroke-miterlimit="10"/></g><g transform="translate(10,-22) scale(1,1)"><path fill="none" stroke="#000000" d="M 1005 384 L 1005 394 L 1015 394 L 1005 384" stroke-miterlimit="10"/></g><g transform="translate(10,-22) scale(1,1)"><g><path fill="none" stroke="none"/><text fill="#000000" stroke="none" font-family="Arial" font-size="13px" font-style="normal" font-weight="normal" text-decoration="none" x="885" y="402">s:任务的启动时间，</text></g></g><g transform="translate(10,-22) scale(1,1)"><g><path fill="none" stroke="none"/><text fill="#000000" stroke="none" font-family="Arial" font-size="13px" font-style="normal" font-weight="normal" text-decoration="none" x="885" y="417">如果小于当前时间，</text></g></g><g transform="translate(10,-22) scale(1,1)"><g><path fill="none" stroke="none"/><text fill="#000000" stroke="none" font-family="Arial" font-size="13px" font-style="normal" font-weight="normal" text-decoration="none" x="885" y="432">则为当前时间</text></g></g><g transform="translate(10,-22) scale(1,1)"><path fill="none" stroke="#000000" d="M 915 362 L 929 383" stroke-miterlimit="10" stroke-dasharray="3"/></g><g transform="translate(10,-22) scale(1,1)"><path fill="#ffffff" stroke="none" d="M 832 488 L 933 488 L 943 498 L 943 556 L 832 556 L 832 488"/></g><g transform="translate(10,-22) scale(1,1)"><path fill="none" stroke="#000000" d="M 832 488 L 933 488 L 943 498 L 943 556 L 832 556 L 832 488 L 832 488" stroke-miterlimit="10"/></g><g transform="translate(10,-22) scale(1,1)"><path fill="none" stroke="#000000" d="M 933 488 L 933 498 L 943 498 L 933 488" stroke-miterlimit="10"/></g><g transform="translate(10,-22) scale(1,1)"><g><path fill="none" stroke="none"/><text fill="#000000" stroke="none" font-family="Arial" font-size="13px" font-style="normal" font-weight="normal" text-decoration="none" x="837" y="506">u:间隔时间单位</text></g></g><g transform="translate(10,-22) scale(1,1)"><g><path fill="none" stroke="none"/><text fill="#000000" stroke="none" font-family="Arial" font-size="13px" font-style="normal" font-weight="normal" text-decoration="none" x="837" y="521">v:间隔时间值</text></g></g><g transform="translate(10,-22) scale(1,1)"><g><path fill="none" stroke="none"/><text fill="#000000" stroke="none" font-family="Arial" font-size="13px" font-style="normal" font-weight="normal" text-decoration="none" x="837" y="536">st:任务启动时间</text></g></g><g transform="translate(10,-22) scale(1,1)"><g><path fill="none" stroke="none"/><text fill="#000000" stroke="none" font-family="Arial" font-size="13px" font-style="normal" font-weight="normal" text-decoration="none" x="837" y="551">et:任务截至时间</text></g></g><g transform="translate(10,-22) scale(1,1)"><path fill="none" stroke="#000000" d="M 814 475 L 832 487" stroke-miterlimit="10" stroke-dasharray="3"/></g><g transform="translate(10,-22) scale(1,1)"><path fill="none" stroke="#000000" d="M 61 375 L 127 631" stroke-miterlimit="10"/></g><g transform="translate(10,-22) scale(1,1)"><path fill="none" stroke="#000000" d="M 120.38666719552222 622.2100154029022 L 127 631 L 128.5391252428435 620.1082098125771" stroke-miterlimit="10"/></g><g transform="translate(10,-22) scale(1,1)"><path fill="none" stroke="#000000" d="M 183 631 L 371 509" stroke-miterlimit="10"/></g><g transform="translate(10,-22) scale(1,1)"><path fill="#000000" stroke="none" d="M 364.7665251516553 518.0633212077612 L 371 509 L 360.1835317782999 511.0010035504594 L 352.5452746055541 520.9759388198"/></g><g transform="translate(10,-22) scale(1,1)"><path fill="none" stroke="#000000" d="M 364.7665251516553 518.0633212077612 L 371 509 L 360.1835317782999 511.0010035504594 L 352.5452746055541 520.9759388198 L 364.7665251516553 518.0633212077612" stroke-miterlimit="10"/></g></g></svg>