<svg version="1.1" xmlns="http://www.w3.org/2000/svg" xmlns:xlink="http://www.w3.org/1999/xlink" width="472" height="286"><defs/><g><g transform="translate(-191,-142) scale(1,1)"><path fill="#C0C0C0" stroke="none" d="M 423 192 C 423 182.6111584 453.6684912 175 491.5 175 C 529.3315088 175 560 182.6111584 560 192 C 560 201.3888416 529.3315088 209 491.5 209 C 453.6684912 209 423 201.3888416 423 192 Z" opacity="0.2"/></g><g transform="translate(-191,-142) scale(1,1)"><path fill="#ffffff" stroke="none" d="M 416 185 C 416 175.6111584 446.6684912 168 484.5 168 C 522.3315088 168 553 175.6111584 553 185 C 553 194.3888416 522.3315088 202 484.5 202 C 446.6684912 202 416 194.3888416 416 185 Z"/></g><g transform="translate(-191,-142) scale(1,1)"><path fill="none" stroke="#000000" d="M 416 185 C 416 175.6111584 446.6684912 168 484.5 168 C 522.3315088 168 553 175.6111584 553 185 C 553 194.3888416 522.3315088 202 484.5 202 C 446.6684912 202 416 194.3888416 416 185 Z" stroke-miterlimit="10"/></g><g transform="translate(-191,-142) scale(1,1)"><g><path fill="none" stroke="none"/><text fill="#000000" stroke="none" font-family="Arial" font-size="13px" font-style="normal" font-weight="bold" text-decoration="none" x="441" y="192">HTML数据处理</text></g></g><g transform="translate(-191,-142) scale(1,1)"><path fill="#C0C0C0" stroke="none" d="M 447 408 C 447 398.6111584 470.505048 391 499.5 391 C 528.494952 391 552 398.6111584 552 408 C 552 417.3888416 528.494952 425 499.5 425 C 470.505048 425 447 417.3888416 447 408 Z" opacity="0.2"/></g><g transform="translate(-191,-142) scale(1,1)"><path fill="#ffffff" stroke="none" d="M 440 401 C 440 391.6111584 463.505048 384 492.5 384 C 521.494952 384 545 391.6111584 545 401 C 545 410.3888416 521.494952 418 492.5 418 C 463.505048 418 440 410.3888416 440 401 Z"/></g><g transform="translate(-191,-142) scale(1,1)"><path fill="none" stroke="#000000" d="M 440 401 C 440 391.6111584 463.505048 384 492.5 384 C 521.494952 384 545 391.6111584 545 401 C 545 410.3888416 521.494952 418 492.5 418 C 463.505048 418 440 410.3888416 440 401 Z" stroke-miterlimit="10"/></g><g transform="translate(-191,-142) scale(1,1)"><g><path fill="none" stroke="none"/><text fill="#000000" stroke="none" font-family="Arial" font-size="13px" font-style="normal" font-weight="bold" text-decoration="none" x="460" y="408">关键词检索</text></g></g><g transform="translate(-191,-142) scale(1,1)"><path fill="#C0C0C0" stroke="none" d="M 439 304 C 439 294.6111584 460.71418719999997 287 487.5 287 C 514.2858128 287 536 294.6111584 536 304 C 536 313.3888416 514.2858128 321 487.5 321 C 460.71418719999997 321 439 313.3888416 439 304 Z" opacity="0.2"/></g><g transform="translate(-191,-142) scale(1,1)"><path fill="#ffffff" stroke="none" d="M 432 297 C 432 287.6111584 453.71418719999997 280 480.5 280 C 507.28581280000003 280 529 287.6111584 529 297 C 529 306.3888416 507.28581280000003 314 480.5 314 C 453.71418719999997 314 432 306.3888416 432 297 Z"/></g><g transform="translate(-191,-142) scale(1,1)"><path fill="none" stroke="#000000" d="M 432 297 C 432 287.6111584 453.71418719999997 280 480.5 280 C 507.28581280000003 280 529 287.6111584 529 297 C 529 306.3888416 507.28581280000003 314 480.5 314 C 453.71418719999997 314 432 306.3888416 432 297 Z" stroke-miterlimit="10"/></g><g transform="translate(-191,-142) scale(1,1)"><g><path fill="none" stroke="none"/><text fill="#000000" stroke="none" font-family="Arial" font-size="13px" font-style="normal" font-weight="bold" text-decoration="none" x="454.5" y="304">正文分析</text></g></g><g transform="translate(-191,-142) scale(1,1)"><path fill="#ffffff" stroke="none" d="M 584 256 L 631 256 L 641 266 L 641 294 L 584 294 L 584 256"/></g><g transform="translate(-191,-142) scale(1,1)"><path fill="none" stroke="#000000" d="M 584 256 L 631 256 L 641 266 L 641 294 L 584 294 L 584 256 L 584 256" stroke-miterlimit="10"/></g><g transform="translate(-191,-142) scale(1,1)"><path fill="none" stroke="#000000" d="M 631 256 L 631 266 L 641 266 L 631 256" stroke-miterlimit="10"/></g><g transform="translate(-191,-142) scale(1,1)"><g><path fill="none" stroke="none"/><text fill="#000000" stroke="none" font-family="Arial" font-size="13px" font-style="normal" font-weight="normal" text-decoration="none" x="589" y="274">关键词</text></g></g><g transform="translate(-191,-142) scale(1,1)"><g><path fill="none" stroke="none"/><text fill="#000000" stroke="none" font-family="Arial" font-size="13px" font-style="normal" font-weight="normal" text-decoration="none" x="589" y="289">分词</text></g></g><g transform="translate(-191,-142) scale(1,1)"><path fill="none" stroke="#000000" d="M 530 289 L 583 280" stroke-miterlimit="10" stroke-dasharray="3"/></g><g transform="translate(-191,-142) scale(1,1)"><path fill="#ffffff" stroke="none" d="M 584 152 L 642 152 L 652 162 L 652 190 L 584 190 L 584 152"/></g><g transform="translate(-191,-142) scale(1,1)"><path fill="none" stroke="#000000" d="M 584 152 L 642 152 L 652 162 L 652 190 L 584 190 L 584 152 L 584 152" stroke-miterlimit="10"/></g><g transform="translate(-191,-142) scale(1,1)"><path fill="none" stroke="#000000" d="M 642 152 L 642 162 L 652 162 L 642 152" stroke-miterlimit="10"/></g><g transform="translate(-191,-142) scale(1,1)"><g><path fill="none" stroke="none"/><text fill="#000000" stroke="none" font-family="Arial" font-size="13px" font-style="normal" font-weight="normal" text-decoration="none" x="589" y="170">超链接</text></g></g><g transform="translate(-191,-142) scale(1,1)"><path fill="none" stroke="#000000" d="M 554 178 L 583 175" stroke-miterlimit="10" stroke-dasharray="3"/></g><g transform="translate(-191,-142) scale(1,1)"><path fill="#C0C0C0" stroke="none" d="M 208 301 C 208 291.6111584 227.2517536 284 251 284 C 274.74824639999997 284 294 291.6111584 294 301 C 294 310.3888416 274.74824639999997 318 251 318 C 227.2517536 318 208 310.3888416 208 301 Z" opacity="0.2"/></g><g transform="translate(-191,-142) scale(1,1)"><path fill="#ffffff" stroke="none" d="M 201 294 C 201 284.6111584 220.2517536 277 244 277 C 267.74824639999997 277 287 284.6111584 287 294 C 287 303.3888416 267.74824639999997 311 244 311 C 220.2517536 311 201 303.3888416 201 294 Z"/></g><g transform="translate(-191,-142) scale(1,1)"><path fill="none" stroke="#000000" d="M 201 294 C 201 284.6111584 220.2517536 277 244 277 C 267.74824639999997 277 287 284.6111584 287 294 C 287 303.3888416 267.74824639999997 311 244 311 C 220.2517536 311 201 303.3888416 201 294 Z" stroke-miterlimit="10"/></g><g transform="translate(-191,-142) scale(1,1)"><g><path fill="none" stroke="none"/><text fill="#000000" stroke="none" font-family="Arial" font-size="13px" font-style="normal" font-weight="bold" text-decoration="none" x="218" y="301">文章分析</text></g></g><g transform="translate(-191,-142) scale(1,1)"><path fill="none" stroke="#000000" d="M 284 276 L 444 203" stroke-miterlimit="10" stroke-dasharray="3"/></g><g transform="translate(-191,-142) scale(1,1)"><path fill="none" stroke="#000000" d="M 436.5015069298143 211.0481427470179 L 444 203 L 433.00686838901765 203.38866101376502" stroke-miterlimit="10"/></g><g transform="translate(-191,-142) scale(1,1)"><g><path fill="none" stroke="none"/><text fill="#000000" stroke="none" font-family="Arial" font-size="13px" font-style="normal" font-weight="normal" text-decoration="none" x="324" y="218">«include»</text></g></g><g transform="translate(-191,-142) scale(1,1)"><path fill="none" stroke="#000000" d="M 288 295 L 431 296" stroke-miterlimit="10" stroke-dasharray="3"/></g><g transform="translate(-191,-142) scale(1,1)"><path fill="none" stroke="#000000" d="M 420.80813715421084 300.13834891383294 L 431 296 L 420.867010088932 291.7195192487065" stroke-miterlimit="10"/></g><g transform="translate(-191,-142) scale(1,1)"><g><path fill="none" stroke="none"/><text fill="#000000" stroke="none" font-family="Arial" font-size="13px" font-style="normal" font-weight="normal" text-decoration="none" x="332" y="272">«include»</text></g></g><g transform="translate(-191,-142) scale(1,1)"><path fill="none" stroke="#000000" d="M 286 312 L 450 383" stroke-miterlimit="10" stroke-dasharray="3"/></g><g transform="translate(-191,-142) scale(1,1)"><path fill="none" stroke="#000000" d="M 439.00138456553117 382.825476291972 L 450 383 L 442.34621134004846 375.0993975451997" stroke-miterlimit="10"/></g><g transform="translate(-191,-142) scale(1,1)"><g><path fill="none" stroke="none"/><text fill="#000000" stroke="none" font-family="Arial" font-size="13px" font-style="normal" font-weight="normal" text-decoration="none" x="353" y="326">«include»</text></g></g></g></svg>