<svg version="1.1" xmlns="http://www.w3.org/2000/svg" xmlns:xlink="http://www.w3.org/1999/xlink" width="634" height="376"><defs/><g><g transform="translate(-134,-130) scale(1,1)"><rect fill="#ffffff" stroke="none" x="144" y="396" width="528" height="100"/></g><g transform="translate(-134,-130) scale(1,1)"><path fill="none" stroke="#000000" d="M 144 396 L 672 396 L 672 496 L 144 496 L 144 396 Z Z" stroke-miterlimit="10"/></g><g transform="translate(-134,-130) scale(1,1)"><rect fill="#ffffff" stroke="none" x="144" y="244" width="528" height="128"/></g><g transform="translate(-134,-130) scale(1,1)"><path fill="none" stroke="#000000" d="M 144 244 L 672 244 L 672 372 L 144 372 L 144 244 Z Z" stroke-miterlimit="10"/></g><g transform="translate(-134,-130) scale(1,1)"><rect fill="#ffffff" stroke="none" x="144" y="140" width="528" height="72"/></g><g transform="translate(-134,-130) scale(1,1)"><path fill="none" stroke="#000000" d="M 144 140 L 672 140 L 672 212 L 144 212 L 144 140 Z Z" stroke-miterlimit="10"/></g><g transform="translate(-134,-130) scale(1,1)"><g><path fill="none" stroke="none"/><text fill="#000000" stroke="none" font-family="Arial" font-size="13px" font-style="normal" font-weight="normal" text-decoration="none" x="689" y="190">采集访问层</text></g></g><g transform="translate(-134,-130) scale(1,1)"><g><path fill="none" stroke="none"/><text fill="#000000" stroke="none" font-family="Arial" font-size="13px" font-style="normal" font-weight="normal" text-decoration="none" x="689" y="294">采集调度层</text></g></g><g transform="translate(-134,-130) scale(1,1)"><g><path fill="none" stroke="none"/><text fill="#000000" stroke="none" font-family="Arial" font-size="13px" font-style="normal" font-weight="normal" text-decoration="none" x="689" y="466">采集实现层</text></g></g><g transform="translate(-134,-130) scale(1,1)"><path fill="none" stroke="#000000" d="M 721 197 L 721 275" stroke-miterlimit="10" stroke-dasharray="3"/></g><g transform="translate(-134,-130) scale(1,1)"><path fill="none" stroke="#000000" d="M 721 301 L 721 447" stroke-miterlimit="10" stroke-dasharray="3"/></g><g transform="translate(-134,-130) scale(1,1)"><rect fill="#C0C0C0" stroke="none" x="503" y="255" width="38.39999999999998" height="15" opacity="0.2"/></g><g transform="translate(-134,-130) scale(1,1)"><rect fill="#C0C0C0" stroke="none" x="503" y="269" width="96" height="34" opacity="0.2"/></g><g transform="translate(-134,-130) scale(1,1)"><rect fill="#ffffff" stroke="none" x="496" y="263" width="96" height="33"/></g><g transform="translate(-134,-130) scale(1,1)"><path fill="none" stroke="#000000" d="M 496 263 L 592 263 L 592 296 L 496 296 L 496 263 Z Z" stroke-miterlimit="10"/></g><g transform="translate(-134,-130) scale(1,1)"><rect fill="#ffffff" stroke="none" x="496" y="248" width="38.39999999999998" height="15"/></g><g transform="translate(-134,-130) scale(1,1)"><path fill="none" stroke="#000000" d="M 496 248 L 534.4 248 L 534.4 263 L 496 263 L 496 248 Z Z" stroke-miterlimit="10"/></g><g transform="translate(-134,-130) scale(1,1)"><rect fill="#ffffff" stroke="none" x="496" y="262" width="96" height="34"/></g><g transform="translate(-134,-130) scale(1,1)"><path fill="none" stroke="#000000" d="M 496 262 L 592 262 L 592 296 L 496 296 L 496 262 Z Z" stroke-miterlimit="10"/></g><g transform="translate(-134,-130) scale(1,1)"><path fill="none" stroke="#000000" d="M 526.4 251 L 526.4 255" stroke-miterlimit="10"/></g><g transform="translate(-134,-130) scale(1,1)"><path fill="none" stroke="#000000" d="M 523.4 259 L 523.4 255 L 529.4 255" stroke-miterlimit="10"/></g><g transform="translate(-134,-130) scale(1,1)"><path fill="none" stroke="#000000" d="M 529.4 259 L 529.4 255 L 523.4 255" stroke-miterlimit="10"/></g><g transform="translate(-134,-130) scale(1,1)"><g><path fill="none" stroke="none"/><text fill="#000000" stroke="none" font-family="Arial" font-size="13px" font-style="normal" font-weight="bold" text-decoration="none" x="504.5" y="282.5">uranus-server</text></g></g><g transform="translate(-134,-130) scale(1,1)"><rect fill="#C0C0C0" stroke="none" x="159" y="255" width="60.400000000000006" height="15" opacity="0.2"/></g><g transform="translate(-134,-130) scale(1,1)"><rect fill="#C0C0C0" stroke="none" x="159" y="269" width="151" height="42" opacity="0.2"/></g><g transform="translate(-134,-130) scale(1,1)"><rect fill="#ffffff" stroke="none" x="152" y="263" width="151" height="41"/></g><g transform="translate(-134,-130) scale(1,1)"><path fill="none" stroke="#000000" d="M 152 263 L 303 263 L 303 304 L 152 304 L 152 263 Z Z" stroke-miterlimit="10"/></g><g transform="translate(-134,-130) scale(1,1)"><rect fill="#ffffff" stroke="none" x="152" y="248" width="60.400000000000006" height="15"/></g><g transform="translate(-134,-130) scale(1,1)"><path fill="none" stroke="#000000" d="M 152 248 L 212.4 248 L 212.4 263 L 152 263 L 152 248 Z Z" stroke-miterlimit="10"/></g><g transform="translate(-134,-130) scale(1,1)"><rect fill="#ffffff" stroke="none" x="152" y="262" width="151" height="42"/></g><g transform="translate(-134,-130) scale(1,1)"><path fill="none" stroke="#000000" d="M 152 262 L 303 262 L 303 304 L 152 304 L 152 262 Z Z" stroke-miterlimit="10"/></g><g transform="translate(-134,-130) scale(1,1)"><path fill="none" stroke="#000000" d="M 204.4 251 L 204.4 255" stroke-miterlimit="10"/></g><g transform="translate(-134,-130) scale(1,1)"><path fill="none" stroke="#000000" d="M 201.4 259 L 201.4 255 L 207.4 255" stroke-miterlimit="10"/></g><g transform="translate(-134,-130) scale(1,1)"><path fill="none" stroke="#000000" d="M 207.4 259 L 207.4 255 L 201.4 255" stroke-miterlimit="10"/></g><g transform="translate(-134,-130) scale(1,1)"><g><path fill="none" stroke="none"/><text fill="#000000" stroke="none" font-family="Arial" font-size="13px" font-style="normal" font-weight="bold" text-decoration="none" x="178" y="282.5">uranus-scheduler</text></g></g><g transform="translate(-134,-130) scale(1,1)"><rect fill="#C0C0C0" stroke="none" x="367" y="415" width="44.80000000000001" height="15" opacity="0.2"/></g><g transform="translate(-134,-130) scale(1,1)"><rect fill="#C0C0C0" stroke="none" x="367" y="429" width="112" height="42" opacity="0.2"/></g><g transform="translate(-134,-130) scale(1,1)"><rect fill="#ffffff" stroke="none" x="360" y="423" width="112" height="41"/></g><g transform="translate(-134,-130) scale(1,1)"><path fill="none" stroke="#000000" d="M 360 423 L 472 423 L 472 464 L 360 464 L 360 423 Z Z" stroke-miterlimit="10"/></g><g transform="translate(-134,-130) scale(1,1)"><rect fill="#ffffff" stroke="none" x="360" y="408" width="44.80000000000001" height="15"/></g><g transform="translate(-134,-130) scale(1,1)"><path fill="none" stroke="#000000" d="M 360 408 L 404.8 408 L 404.8 423 L 360 423 L 360 408 Z Z" stroke-miterlimit="10"/></g><g transform="translate(-134,-130) scale(1,1)"><rect fill="#ffffff" stroke="none" x="360" y="422" width="112" height="42"/></g><g transform="translate(-134,-130) scale(1,1)"><path fill="none" stroke="#000000" d="M 360 422 L 472 422 L 472 464 L 360 464 L 360 422 Z Z" stroke-miterlimit="10"/></g><g transform="translate(-134,-130) scale(1,1)"><path fill="none" stroke="#000000" d="M 396.8 411 L 396.8 415" stroke-miterlimit="10"/></g><g transform="translate(-134,-130) scale(1,1)"><path fill="none" stroke="#000000" d="M 393.8 419 L 393.8 415 L 399.8 415" stroke-miterlimit="10"/></g><g transform="translate(-134,-130) scale(1,1)"><path fill="none" stroke="#000000" d="M 399.8 419 L 399.8 415 L 393.8 415" stroke-miterlimit="10"/></g><g transform="translate(-134,-130) scale(1,1)"><g><path fill="none" stroke="none"/><text fill="#000000" stroke="none" font-family="Arial" font-size="13px" font-style="normal" font-weight="bold" text-decoration="none" x="371.5" y="442.5">uranus-asistant</text></g></g><g transform="translate(-134,-130) scale(1,1)"><rect fill="#C0C0C0" stroke="none" x="551" y="163" width="44" height="15" opacity="0.2"/></g><g transform="translate(-134,-130) scale(1,1)"><rect fill="#C0C0C0" stroke="none" x="551" y="177" width="110" height="25" opacity="0.2"/></g><g transform="translate(-134,-130) scale(1,1)"><rect fill="#ffffff" stroke="none" x="544" y="171" width="110" height="24"/></g><g transform="translate(-134,-130) scale(1,1)"><path fill="none" stroke="#000000" d="M 544 171 L 654 171 L 654 195 L 544 195 L 544 171 Z Z" stroke-miterlimit="10"/></g><g transform="translate(-134,-130) scale(1,1)"><rect fill="#ffffff" stroke="none" x="544" y="156" width="44" height="15"/></g><g transform="translate(-134,-130) scale(1,1)"><path fill="none" stroke="#000000" d="M 544 156 L 588 156 L 588 171 L 544 171 L 544 156 Z Z" stroke-miterlimit="10"/></g><g transform="translate(-134,-130) scale(1,1)"><rect fill="#ffffff" stroke="none" x="544" y="170" width="110" height="25"/></g><g transform="translate(-134,-130) scale(1,1)"><path fill="none" stroke="#000000" d="M 544 170 L 654 170 L 654 195 L 544 195 L 544 170 Z Z" stroke-miterlimit="10"/></g><g transform="translate(-134,-130) scale(1,1)"><path fill="none" stroke="#000000" d="M 580 159 L 580 163" stroke-miterlimit="10"/></g><g transform="translate(-134,-130) scale(1,1)"><path fill="none" stroke="#000000" d="M 577 167 L 577 163 L 583 163" stroke-miterlimit="10"/></g><g transform="translate(-134,-130) scale(1,1)"><path fill="none" stroke="#000000" d="M 583 167 L 583 163 L 577 163" stroke-miterlimit="10"/></g><g transform="translate(-134,-130) scale(1,1)"><g><path fill="none" stroke="none"/><text fill="#000000" stroke="none" font-family="Arial" font-size="13px" font-style="normal" font-weight="bold" text-decoration="none" x="552.5" y="190.5">uranus-manager</text></g></g><g transform="translate(-134,-130) scale(1,1)"><rect fill="#C0C0C0" stroke="none" x="193" y="159" width="98" height="44" opacity="0.2"/></g><g transform="translate(-134,-130) scale(1,1)"><rect fill="#ffffff" stroke="none" x="186" y="152" width="98" height="44"/></g><g transform="translate(-134,-130) scale(1,1)"><path fill="none" stroke="#000000" d="M 186 152 L 284 152 L 284 196 L 186 196 L 186 152 Z Z" stroke-miterlimit="10"/></g><g transform="translate(-134,-130) scale(1,1)"><rect fill="#ffffff" stroke="none" x="176" y="159" width="20" height="10"/></g><g transform="translate(-134,-130) scale(1,1)"><path fill="none" stroke="#000000" d="M 176 159 L 196 159 L 196 169 L 176 169 L 176 159 Z Z" stroke-miterlimit="10"/></g><g transform="translate(-134,-130) scale(1,1)"><rect fill="#ffffff" stroke="none" x="176" y="179" width="20" height="10"/></g><g transform="translate(-134,-130) scale(1,1)"><path fill="none" stroke="#000000" d="M 176 179 L 196 179 L 196 189 L 176 189 L 176 179 Z Z" stroke-miterlimit="10"/></g><g transform="translate(-134,-130) scale(1,1)"><g><path fill="none" stroke="none"/><text fill="#000000" stroke="none" font-family="Arial" font-size="13px" font-style="normal" font-weight="bold" text-decoration="none" x="208" y="171.5">uranus-sdk</text></g></g><g transform="translate(-134,-130) scale(1,1)"><g><path fill="none" stroke="none"/><text fill="#000000" stroke="none" font-family="Arial" font-size="13px" font-style="normal" font-weight="normal" text-decoration="none" x="200.5" y="186.5">(from Uranus)</text></g></g><g transform="translate(-134,-130) scale(1,1)"><rect fill="#C0C0C0" stroke="none" x="177" y="423" width="121" height="44" opacity="0.2"/></g><g transform="translate(-134,-130) scale(1,1)"><rect fill="#ffffff" stroke="none" x="170" y="416" width="121" height="44"/></g><g transform="translate(-134,-130) scale(1,1)"><path fill="none" stroke="#000000" d="M 170 416 L 291 416 L 291 460 L 170 460 L 170 416 Z Z" stroke-miterlimit="10"/></g><g transform="translate(-134,-130) scale(1,1)"><rect fill="#ffffff" stroke="none" x="160" y="423" width="20" height="10"/></g><g transform="translate(-134,-130) scale(1,1)"><path fill="none" stroke="#000000" d="M 160 423 L 180 423 L 180 433 L 160 433 L 160 423 Z Z" stroke-miterlimit="10"/></g><g transform="translate(-134,-130) scale(1,1)"><rect fill="#ffffff" stroke="none" x="160" y="443" width="20" height="10"/></g><g transform="translate(-134,-130) scale(1,1)"><path fill="none" stroke="#000000" d="M 160 443 L 180 443 L 180 453 L 160 453 L 160 443 Z Z" stroke-miterlimit="10"/></g><g transform="translate(-134,-130) scale(1,1)"><g><path fill="none" stroke="none"/><text fill="#000000" stroke="none" font-family="Arial" font-size="13px" font-style="normal" font-weight="bold" text-decoration="none" x="189" y="435.5">uranus-common</text></g></g><g transform="translate(-134,-130) scale(1,1)"><g><path fill="none" stroke="none"/><text fill="#000000" stroke="none" font-family="Arial" font-size="13px" font-style="normal" font-weight="normal" text-decoration="none" x="196" y="450.5">(from Uranus)</text></g></g><g transform="translate(-134,-130) scale(1,1)"><rect fill="#C0C0C0" stroke="none" x="185" y="327" width="98" height="44" opacity="0.2"/></g><g transform="translate(-134,-130) scale(1,1)"><rect fill="#ffffff" stroke="none" x="178" y="320" width="98" height="44"/></g><g transform="translate(-134,-130) scale(1,1)"><path fill="none" stroke="#000000" d="M 178 320 L 276 320 L 276 364 L 178 364 L 178 320 Z Z" stroke-miterlimit="10"/></g><g transform="translate(-134,-130) scale(1,1)"><rect fill="#ffffff" stroke="none" x="168" y="327" width="20" height="10"/></g><g transform="translate(-134,-130) scale(1,1)"><path fill="none" stroke="#000000" d="M 168 327 L 188 327 L 188 337 L 168 337 L 168 327 Z Z" stroke-miterlimit="10"/></g><g transform="translate(-134,-130) scale(1,1)"><rect fill="#ffffff" stroke="none" x="168" y="347" width="20" height="10"/></g><g transform="translate(-134,-130) scale(1,1)"><path fill="none" stroke="#000000" d="M 168 347 L 188 347 L 188 357 L 168 357 L 168 347 Z Z" stroke-miterlimit="10"/></g><g transform="translate(-134,-130) scale(1,1)"><g><path fill="none" stroke="none"/><text fill="#000000" stroke="none" font-family="Arial" font-size="13px" font-style="normal" font-weight="bold" text-decoration="none" x="204" y="339.5">uranus-cli</text></g></g><g transform="translate(-134,-130) scale(1,1)"><g><path fill="none" stroke="none"/><text fill="#000000" stroke="none" font-family="Arial" font-size="13px" font-style="normal" font-weight="normal" text-decoration="none" x="192.5" y="354.5">(from Uranus)</text></g></g><g transform="translate(-134,-130) scale(1,1)"><rect fill="#C0C0C0" stroke="none" x="337" y="263" width="149" height="44" opacity="0.2"/></g><g transform="translate(-134,-130) scale(1,1)"><rect fill="#ffffff" stroke="none" x="330" y="256" width="149" height="44"/></g><g transform="translate(-134,-130) scale(1,1)"><path fill="none" stroke="#000000" d="M 330 256 L 479 256 L 479 300 L 330 300 L 330 256 Z Z" stroke-miterlimit="10"/></g><g transform="translate(-134,-130) scale(1,1)"><rect fill="#ffffff" stroke="none" x="320" y="263" width="20" height="10"/></g><g transform="translate(-134,-130) scale(1,1)"><path fill="none" stroke="#000000" d="M 320 263 L 340 263 L 340 273 L 320 273 L 320 263 Z Z" stroke-miterlimit="10"/></g><g transform="translate(-134,-130) scale(1,1)"><rect fill="#ffffff" stroke="none" x="320" y="283" width="20" height="10"/></g><g transform="translate(-134,-130) scale(1,1)"><path fill="none" stroke="#000000" d="M 320 283 L 340 283 L 340 293 L 320 293 L 320 283 Z Z" stroke-miterlimit="10"/></g><g transform="translate(-134,-130) scale(1,1)"><g><path fill="none" stroke="none"/><text fill="#000000" stroke="none" font-family="Arial" font-size="13px" font-style="normal" font-weight="bold" text-decoration="none" x="349.5" y="275.5">uranus-schedule-dao</text></g></g><g transform="translate(-134,-130) scale(1,1)"><g><path fill="none" stroke="none"/><text fill="#000000" stroke="none" font-family="Arial" font-size="13px" font-style="normal" font-weight="normal" text-decoration="none" x="370" y="290.5">(from Uranus)</text></g></g><g transform="translate(-134,-130) scale(1,1)"><rect fill="#C0C0C0" stroke="none" x="553" y="423" width="105" height="44" opacity="0.2"/></g><g transform="translate(-134,-130) scale(1,1)"><rect fill="#ffffff" stroke="none" x="546" y="416" width="105" height="44"/></g><g transform="translate(-134,-130) scale(1,1)"><path fill="none" stroke="#000000" d="M 546 416 L 651 416 L 651 460 L 546 460 L 546 416 Z Z" stroke-miterlimit="10"/></g><g transform="translate(-134,-130) scale(1,1)"><rect fill="#ffffff" stroke="none" x="536" y="423" width="20" height="10"/></g><g transform="translate(-134,-130) scale(1,1)"><path fill="none" stroke="#000000" d="M 536 423 L 556 423 L 556 433 L 536 433 L 536 423 Z Z" stroke-miterlimit="10"/></g><g transform="translate(-134,-130) scale(1,1)"><rect fill="#ffffff" stroke="none" x="536" y="443" width="20" height="10"/></g><g transform="translate(-134,-130) scale(1,1)"><path fill="none" stroke="#000000" d="M 536 443 L 556 443 L 556 453 L 536 453 L 536 443 Z Z" stroke-miterlimit="10"/></g><g transform="translate(-134,-130) scale(1,1)"><g><path fill="none" stroke="none"/><text fill="#000000" stroke="none" font-family="Arial" font-size="13px" font-style="normal" font-weight="bold" text-decoration="none" x="564.5" y="435.5">uranus-spider</text></g></g><g transform="translate(-134,-130) scale(1,1)"><g><path fill="none" stroke="none"/><text fill="#000000" stroke="none" font-family="Arial" font-size="13px" font-style="normal" font-weight="normal" text-decoration="none" x="564" y="450.5">(from Uranus)</text></g></g><g transform="translate(-134,-130) scale(1,1)"><path fill="none" stroke="#000000" d="M 267 197 L 362 255" stroke-miterlimit="10" stroke-dasharray="3"/></g><g transform="translate(-134,-130) scale(1,1)"><path fill="none" stroke="#000000" d="M 351.1325948932282 253.29720634094733 L 362 255 L 355.5196410983779 246.11152721182273" stroke-miterlimit="10"/></g><g transform="translate(-134,-130) scale(1,1)"><path fill="none" stroke="#000000" d="M 304 277 L 319 277" stroke-miterlimit="10" stroke-dasharray="3"/></g><g transform="translate(-134,-130) scale(1,1)"><path fill="none" stroke="#000000" d="M 308.83732514237585 281.209517756016 L 319 277 L 308.83732514237585 272.790482243984" stroke-miterlimit="10"/></g><g transform="translate(-134,-130) scale(1,1)"><path fill="none" stroke="#000000" d="M 223 365 L 224 415" stroke-miterlimit="10" stroke-dasharray="3"/></g><g transform="translate(-134,-130) scale(1,1)"><path fill="none" stroke="#000000" d="M 219.58811103640411 404.9235305898891 L 224 415 L 228.00546324630747 404.755183545691" stroke-miterlimit="10"/></g><g transform="translate(-134,-130) scale(1,1)"><path fill="none" stroke="#000000" d="M 551 297 L 586 415" stroke-miterlimit="10" stroke-dasharray="3"/></g><g transform="translate(-134,-130) scale(1,1)"><path fill="none" stroke="#000000" d="M 579.0743590166854 406.4539192040893 L 586 415 L 587.1458239799914 404.0598406132782" stroke-miterlimit="10"/></g><g transform="translate(-134,-130) scale(1,1)"><path fill="none" stroke="#000000" d="M 599 196 L 594 415" stroke-miterlimit="10" stroke-dasharray="3"/></g><g transform="translate(-134,-130) scale(1,1)"><path fill="none" stroke="#000000" d="M 590.0235430268199 404.7438901165965 L 594 415 L 598.4403851563168 404.93605546201877" stroke-miterlimit="10"/></g><g transform="translate(-134,-130) scale(1,1)"><path fill="none" stroke="#000000" d="M 535 437 L 473 437" stroke-miterlimit="10" stroke-dasharray="3"/></g><g transform="translate(-134,-130) scale(1,1)"><path fill="none" stroke="#000000" d="M 483.16267485762415 432.790482243984 L 473 437 L 483.16267485762415 441.209517756016" stroke-miterlimit="10"/></g><g transform="translate(-134,-130) scale(1,1)"><path fill="none" stroke="#000000" d="M 374 301 L 250 415" stroke-miterlimit="10" stroke-dasharray="3"/></g><g transform="translate(-134,-130) scale(1,1)"><path fill="none" stroke="#000000" d="M 254.63243362736276 405.0229985121742 L 250 415 L 260.3304306392547 411.2208198233549" stroke-miterlimit="10"/></g><g transform="translate(-134,-130) scale(1,1)"><rect fill="#C0C0C0" stroke="none" x="433" y="327" width="109" height="44" opacity="0.2"/></g><g transform="translate(-134,-130) scale(1,1)"><rect fill="#ffffff" stroke="none" x="426" y="320" width="109" height="44"/></g><g transform="translate(-134,-130) scale(1,1)"><path fill="none" stroke="#000000" d="M 426 320 L 535 320 L 535 364 L 426 364 L 426 320 Z Z" stroke-miterlimit="10"/></g><g transform="translate(-134,-130) scale(1,1)"><rect fill="#ffffff" stroke="none" x="416" y="327" width="20" height="10"/></g><g transform="translate(-134,-130) scale(1,1)"><path fill="none" stroke="#000000" d="M 416 327 L 436 327 L 436 337 L 416 337 L 416 327 Z Z" stroke-miterlimit="10"/></g><g transform="translate(-134,-130) scale(1,1)"><rect fill="#ffffff" stroke="none" x="416" y="347" width="20" height="10"/></g><g transform="translate(-134,-130) scale(1,1)"><path fill="none" stroke="#000000" d="M 416 347 L 436 347 L 436 357 L 416 357 L 416 347 Z Z" stroke-miterlimit="10"/></g><g transform="translate(-134,-130) scale(1,1)"><g><path fill="none" stroke="none"/><text fill="#000000" stroke="none" font-family="Arial" font-size="13px" font-style="normal" font-weight="bold" text-decoration="none" x="461" y="339.5">gaia-bus</text></g></g><g transform="translate(-134,-130) scale(1,1)"><g><path fill="none" stroke="none"/><text fill="#000000" stroke="none" font-family="Arial" font-size="13px" font-style="normal" font-weight="normal" text-decoration="none" x="440.5" y="354.5">(from 逻辑视图)</text></g></g><g transform="translate(-134,-130) scale(1,1)"><path fill="none" stroke="#000000" d="M 225 305 L 224 319" stroke-miterlimit="10" stroke-dasharray="3"/></g><g transform="translate(-134,-130) scale(1,1)"><path fill="none" stroke="#000000" d="M 220.52524049576192 308.5632358277239 L 224 319 L 228.92288071142212 309.16306727169956" stroke-miterlimit="10"/></g><g transform="translate(-134,-130) scale(1,1)"><path fill="none" stroke="#000000" d="M 495 274 L 480 275" stroke-miterlimit="10" stroke-dasharray="3"/></g><g transform="translate(-134,-130) scale(1,1)"><path fill="none" stroke="#000000" d="M 489.86015318114744 270.1237945855094 L 480 275 L 490.4201790929724 278.5241832628826" stroke-miterlimit="10"/></g><g transform="translate(-134,-130) scale(1,1)"><path fill="none" stroke="#000000" d="M 277 342 L 415 342" stroke-miterlimit="10" stroke-dasharray="3"/></g><g transform="translate(-134,-130) scale(1,1)"><path fill="none" stroke="#000000" d="M 404.83732514237585 346.209517756016 L 415 342 L 404.83732514237585 337.790482243984" stroke-miterlimit="10"/></g><g transform="translate(-134,-130) scale(1,1)"><path fill="none" stroke="#000000" d="M 519 297 L 498 319" stroke-miterlimit="10" stroke-dasharray="3"/></g><g transform="translate(-134,-130) scale(1,1)"><path fill="none" stroke="#000000" d="M 501.97210250362457 308.7422028826507 L 498 319 L 508.0620585175945 314.55534271416747" stroke-miterlimit="10"/></g></g></svg>