<svg version="1.1" xmlns="http://www.w3.org/2000/svg" xmlns:xlink="http://www.w3.org/1999/xlink" width="1916" height="1492"><defs/><g><g transform="translate(-22,10) scale(1,1)"><path fill="none" stroke="#000000" d="M 32 0 L 1928 0 L 1928 1472 L 32 1472 L 32 0" stroke-miterlimit="10"/></g><g transform="translate(-22,10) scale(1,1)"><path fill="#ffffff" stroke="none" d="M 32 0 L 32 22 L 212 22 L 223 11 L 223 0 L 32 0"/></g><g transform="translate(-22,10) scale(1,1)"><path fill="none" stroke="#000000" d="M 32 0 L 32 22 L 212 22 L 223 11 L 223 0 L 32 0 L 32 0" stroke-miterlimit="10"/></g><g transform="translate(-22,10) scale(1,1)"><g><path fill="none" stroke="none"/><text fill="#000000" stroke="none" font-family="Arial" font-size="13px" font-style="normal" font-weight="normal" text-decoration="none" x="103" y="17.5">uranus-weixin-seq</text></g></g><g transform="translate(-22,10) scale(1,1)"><g><path fill="none" stroke="none"/><text fill="#000000" stroke="none" font-family="Arial" font-size="13px" font-style="normal" font-weight="bold" text-decoration="none" x="37" y="17.5">interaction</text></g></g><g transform="translate(-22,10) scale(1,1)"><rect fill="#C0C0C0" stroke="none" x="279" y="47" width="165" height="39" opacity="0.2"/></g><g transform="translate(-22,10) scale(1,1)"><rect fill="#ffffff" stroke="none" x="272" y="40" width="165" height="39"/></g><g transform="translate(-22,10) scale(1,1)"><path fill="none" stroke="#000000" d="M 272 40 L 437 40 L 437 79 L 272 79 L 272 40 Z Z" stroke-miterlimit="10"/></g><g transform="translate(-22,10) scale(1,1)"><g><path fill="none" stroke="none"/><text fill="#000000" stroke="none" font-family="Arial" font-size="13px" font-style="normal" font-weight="bold" text-decoration="none" x="294.5" y="59.5">Lifeline1: uranus-sdk</text></g></g><g transform="translate(-22,10) scale(1,1)"><path fill="none" stroke="#000000" d="M 355.5 80 L 355.5 849" stroke-miterlimit="10" stroke-dasharray="3"/></g><g transform="translate(-22,10) scale(1,1)"><rect fill="#C0C0C0" stroke="none" x="459" y="47" width="210" height="39" opacity="0.2"/></g><g transform="translate(-22,10) scale(1,1)"><rect fill="#ffffff" stroke="none" x="452" y="40" width="210" height="39"/></g><g transform="translate(-22,10) scale(1,1)"><path fill="none" stroke="#000000" d="M 452 40 L 662 40 L 662 79 L 452 79 L 452 40 Z Z" stroke-miterlimit="10"/></g><g transform="translate(-22,10) scale(1,1)"><g><path fill="none" stroke="none"/><text fill="#000000" stroke="none" font-family="Arial" font-size="13px" font-style="normal" font-weight="bold" text-decoration="none" x="469" y="59.5">Lifeline2: uranus-schedule-dao</text></g></g><g transform="translate(-22,10) scale(1,1)"><path fill="none" stroke="#000000" d="M 558.5 80 L 558.5 1178" stroke-miterlimit="10" stroke-dasharray="3"/></g><g transform="translate(-22,10) scale(1,1)"><rect fill="#C0C0C0" stroke="none" x="693" y="47" width="188" height="39" opacity="0.2"/></g><g transform="translate(-22,10) scale(1,1)"><rect fill="#ffffff" stroke="none" x="686" y="40" width="188" height="39"/></g><g transform="translate(-22,10) scale(1,1)"><path fill="none" stroke="#000000" d="M 686 40 L 874 40 L 874 79 L 686 79 L 686 40 Z Z" stroke-miterlimit="10"/></g><g transform="translate(-22,10) scale(1,1)"><g><path fill="none" stroke="none"/><text fill="#000000" stroke="none" font-family="Arial" font-size="13px" font-style="normal" font-weight="bold" text-decoration="none" x="702.5" y="59.5">Lifeline3: uranus-scheduler</text></g></g><g transform="translate(-22,10) scale(1,1)"><path fill="none" stroke="#000000" d="M 781.5 80 L 781.5 1202" stroke-miterlimit="10" stroke-dasharray="3"/></g><g transform="translate(-22,10) scale(1,1)"><rect fill="#C0C0C0" stroke="none" x="1063" y="47" width="165" height="39" opacity="0.2"/></g><g transform="translate(-22,10) scale(1,1)"><rect fill="#ffffff" stroke="none" x="1056" y="40" width="165" height="39"/></g><g transform="translate(-22,10) scale(1,1)"><path fill="none" stroke="#000000" d="M 1056 40 L 1221 40 L 1221 79 L 1056 79 L 1056 40 Z Z" stroke-miterlimit="10"/></g><g transform="translate(-22,10) scale(1,1)"><g><path fill="none" stroke="none"/><text fill="#000000" stroke="none" font-family="Arial" font-size="13px" font-style="normal" font-weight="bold" text-decoration="none" x="1071" y="59.5">Lifeline4: uranus-server</text></g></g><g transform="translate(-22,10) scale(1,1)"><path fill="none" stroke="#000000" d="M 1139.5 80 L 1139.5 1362" stroke-miterlimit="10" stroke-dasharray="3"/></g><g transform="translate(-22,10) scale(1,1)"><rect fill="#C0C0C0" stroke="none" x="1247" y="47" width="166" height="39" opacity="0.2"/></g><g transform="translate(-22,10) scale(1,1)"><rect fill="#ffffff" stroke="none" x="1240" y="40" width="166" height="39"/></g><g transform="translate(-22,10) scale(1,1)"><path fill="none" stroke="#000000" d="M 1240 40 L 1406 40 L 1406 79 L 1240 79 L 1240 40 Z Z" stroke-miterlimit="10"/></g><g transform="translate(-22,10) scale(1,1)"><g><path fill="none" stroke="none"/><text fill="#000000" stroke="none" font-family="Arial" font-size="13px" font-style="normal" font-weight="bold" text-decoration="none" x="1256" y="59.5">Lifeline5: uranus-spider</text></g></g><g transform="translate(-22,10) scale(1,1)"><path fill="none" stroke="#000000" d="M 1324.5 80 L 1324.5 1274" stroke-miterlimit="10" stroke-dasharray="3"/></g><g transform="translate(-22,10) scale(1,1)"><rect fill="#C0C0C0" stroke="none" x="1431" y="47" width="147" height="39" opacity="0.2"/></g><g transform="translate(-22,10) scale(1,1)"><rect fill="#ffffff" stroke="none" x="1424" y="40" width="147" height="39"/></g><g transform="translate(-22,10) scale(1,1)"><path fill="none" stroke="#000000" d="M 1424 40 L 1571 40 L 1571 79 L 1424 79 L 1424 40 Z Z" stroke-miterlimit="10"/></g><g transform="translate(-22,10) scale(1,1)"><g><path fill="none" stroke="none"/><text fill="#000000" stroke="none" font-family="Arial" font-size="13px" font-style="normal" font-weight="bold" text-decoration="none" x="1439.5" y="59.5">Lifeline6: uranus-nlp</text></g></g><g transform="translate(-22,10) scale(1,1)"><path fill="none" stroke="#000000" d="M 1498.5 80 L 1498.5 1326" stroke-miterlimit="10" stroke-dasharray="3"/></g><g transform="translate(-22,10) scale(1,1)"><rect fill="#C0C0C0" stroke="none" x="1591" y="47" width="175" height="39" opacity="0.2"/></g><g transform="translate(-22,10) scale(1,1)"><rect fill="#ffffff" stroke="none" x="1584" y="40" width="175" height="39"/></g><g transform="translate(-22,10) scale(1,1)"><path fill="none" stroke="#000000" d="M 1584 40 L 1759 40 L 1759 79 L 1584 79 L 1584 40 Z Z" stroke-miterlimit="10"/></g><g transform="translate(-22,10) scale(1,1)"><g><path fill="none" stroke="none"/><text fill="#000000" stroke="none" font-family="Arial" font-size="13px" font-style="normal" font-weight="bold" text-decoration="none" x="1599" y="59.5">Lifeline7: uranus-asistant</text></g></g><g transform="translate(-22,10) scale(1,1)"><path fill="none" stroke="#000000" d="M 1672.5 80 L 1672.5 978" stroke-miterlimit="10" stroke-dasharray="3"/></g><g transform="translate(-22,10) scale(1,1)"><rect fill="#C0C0C0" stroke="none" x="903" y="47" width="133" height="39" opacity="0.2"/></g><g transform="translate(-22,10) scale(1,1)"><rect fill="#ffffff" stroke="none" x="896" y="40" width="133" height="39"/></g><g transform="translate(-22,10) scale(1,1)"><path fill="none" stroke="#000000" d="M 896 40 L 1029 40 L 1029 79 L 896 79 L 896 40 Z Z" stroke-miterlimit="10"/></g><g transform="translate(-22,10) scale(1,1)"><g><path fill="none" stroke="none"/><text fill="#000000" stroke="none" font-family="Arial" font-size="13px" font-style="normal" font-weight="bold" text-decoration="none" x="910" y="59.5">Lifeline8: gaia-bus</text></g></g><g transform="translate(-22,10) scale(1,1)"><path fill="none" stroke="#000000" d="M 963.5 80 L 963.5 1362" stroke-miterlimit="10" stroke-dasharray="3"/></g><g transform="translate(-22,10) scale(1,1)"><rect fill="#C0C0C0" stroke="none" x="55" y="47" width="181" height="39" opacity="0.2"/></g><g transform="translate(-22,10) scale(1,1)"><rect fill="#ffffff" stroke="none" x="48" y="40" width="181" height="39"/></g><g transform="translate(-22,10) scale(1,1)"><path fill="none" stroke="#000000" d="M 48 40 L 229 40 L 229 79 L 48 79 L 48 40 Z Z" stroke-miterlimit="10"/></g><g transform="translate(-22,10) scale(1,1)"><g><path fill="none" stroke="none"/><text fill="#000000" stroke="none" font-family="Arial" font-size="13px" font-style="normal" font-weight="bold" text-decoration="none" x="64" y="59.5">Lifeline9: uranus-manager</text></g></g><g transform="translate(-22,10) scale(1,1)"><path fill="none" stroke="#000000" d="M 139.5 80 L 139.5 1154" stroke-miterlimit="10" stroke-dasharray="3"/></g><g transform="translate(-22,10) scale(1,1)"><path fill="none" stroke="#000000" d="M 1145 896 L 1317 896" stroke-miterlimit="10"/></g><g transform="translate(-22,10) scale(1,1)"><path fill="#000000" stroke="none" d="M 1306.837325142376 900.209517756016 L 1317 896 L 1306.837325142376 891.790482243984"/></g><g transform="translate(-22,10) scale(1,1)"><path fill="none" stroke="#000000" d="M 1306.837325142376 900.209517756016 L 1317 896 L 1306.837325142376 891.790482243984 L 1306.837325142376 900.209517756016" stroke-miterlimit="10"/></g><g transform="translate(-22,10) scale(1,1)"><g><path fill="none" stroke="none"/><text fill="#000000" stroke="none" font-family="Arial" font-size="13px" font-style="normal" font-weight="normal" text-decoration="none" x="1195" y="893">51 : crawling</text></g></g><g transform="translate(-22,10) scale(1,1)"><rect fill="#ffffff" stroke="none" x="1317" y="896" width="13" height="80"/></g><g transform="translate(-22,10) scale(1,1)"><path fill="none" stroke="#000000" d="M 1317 896 L 1330 896 L 1330 976 L 1317 976 L 1317 896 Z Z" stroke-miterlimit="10"/></g><g transform="translate(-22,10) scale(1,1)"><path fill="none" stroke="#000000" d="M 1145 1272 L 1491 1272" stroke-miterlimit="10"/></g><g transform="translate(-22,10) scale(1,1)"><path fill="#000000" stroke="none" d="M 1480.837325142376 1276.2095177560159 L 1491 1272 L 1480.837325142376 1267.7904822439841"/></g><g transform="translate(-22,10) scale(1,1)"><path fill="none" stroke="#000000" d="M 1480.837325142376 1276.2095177560159 L 1491 1272 L 1480.837325142376 1267.7904822439841 L 1480.837325142376 1276.2095177560159" stroke-miterlimit="10"/></g><g transform="translate(-22,10) scale(1,1)"><g><path fill="none" stroke="none"/><text fill="#000000" stroke="none" font-family="Arial" font-size="13px" font-style="normal" font-weight="normal" text-decoration="none" x="1331" y="1269">49 : article process</text></g></g><g transform="translate(-22,10) scale(1,1)"><rect fill="#ffffff" stroke="none" x="1491" y="1272" width="13" height="28"/></g><g transform="translate(-22,10) scale(1,1)"><path fill="none" stroke="#000000" d="M 1491 1272 L 1504 1272 L 1504 1300 L 1491 1300 L 1491 1272 Z Z" stroke-miterlimit="10"/></g><g transform="translate(-22,10) scale(1,1)"><path fill="none" stroke="#000000" d="M 1132 1320 L 969 1320" stroke-miterlimit="10"/></g><g transform="translate(-22,10) scale(1,1)"><path fill="#000000" stroke="none" d="M 979.1626748576241 1315.7904822439841 L 969 1320 L 979.1626748576241 1324.2095177560159"/></g><g transform="translate(-22,10) scale(1,1)"><path fill="none" stroke="#000000" d="M 979.1626748576241 1315.7904822439841 L 969 1320 L 979.1626748576241 1324.2095177560159 L 979.1626748576241 1315.7904822439841" stroke-miterlimit="10"/></g><g transform="translate(-22,10) scale(1,1)"><g><path fill="none" stroke="none"/><text fill="#000000" stroke="none" font-family="Arial" font-size="13px" font-style="normal" font-weight="normal" text-decoration="none" x="951" y="1316">50 : send to article_basic_info</text></g></g><g transform="translate(-22,10) scale(1,1)"><rect fill="#ffffff" stroke="none" x="956" y="1320" width="13" height="28"/></g><g transform="translate(-22,10) scale(1,1)"><path fill="none" stroke="#000000" d="M 956 1320 L 969 1320 L 969 1348 L 956 1348 L 956 1320 Z Z" stroke-miterlimit="10"/></g><g transform="translate(-22,10) scale(1,1)"><path fill="none" stroke="#000000" d="M 1317 1232 L 1145 1232" stroke-miterlimit="10" stroke-dasharray="3"/></g><g transform="translate(-22,10) scale(1,1)"><path fill="none" stroke="#000000" d="M 1155.162674857624 1227.7904822439841 L 1145 1232 L 1155.162674857624 1236.2095177560159" stroke-miterlimit="10"/></g><g transform="translate(-22,10) scale(1,1)"><g><path fill="none" stroke="none"/><text fill="#000000" stroke="none" font-family="Arial" font-size="13px" font-style="normal" font-weight="normal" text-decoration="none" x="1217" y="1249">41 : </text></g></g><g transform="translate(-22,10) scale(1,1)"><path fill="none" stroke="#000000" d="M 1491 1296 L 1145 1296" stroke-miterlimit="10" stroke-dasharray="3"/></g><g transform="translate(-22,10) scale(1,1)"><path fill="none" stroke="#000000" d="M 1155.162674857624 1291.7904822439841 L 1145 1296 L 1155.162674857624 1300.2095177560159" stroke-miterlimit="10"/></g><g transform="translate(-22,10) scale(1,1)"><g><path fill="none" stroke="none"/><text fill="#000000" stroke="none" font-family="Arial" font-size="13px" font-style="normal" font-weight="normal" text-decoration="none" x="1278" y="1313">42 : response</text></g></g><g transform="translate(-22,10) scale(1,1)"><path fill="none" stroke="#000000" d="M 1132 674 L 564 674" stroke-miterlimit="10"/></g><g transform="translate(-22,10) scale(1,1)"><path fill="#000000" stroke="none" d="M 574.1626748576241 669.790482243984 L 564 674 L 574.1626748576241 678.209517756016"/></g><g transform="translate(-22,10) scale(1,1)"><path fill="none" stroke="#000000" d="M 574.1626748576241 669.790482243984 L 564 674 L 574.1626748576241 678.209517756016 L 574.1626748576241 669.790482243984" stroke-miterlimit="10"/></g><g transform="translate(-22,10) scale(1,1)"><g><path fill="none" stroke="none"/><text fill="#000000" stroke="none" font-family="Arial" font-size="13px" font-style="normal" font-weight="normal" text-decoration="none" x="786" y="691">43 : add C_WX_M_S</text></g></g><g transform="translate(-22,10) scale(1,1)"><rect fill="#ffffff" stroke="none" x="551" y="674" width="13" height="28"/></g><g transform="translate(-22,10) scale(1,1)"><path fill="none" stroke="#000000" d="M 551 674 L 564 674 L 564 702 L 551 702 L 551 674 Z Z" stroke-miterlimit="10"/></g><g transform="translate(-22,10) scale(1,1)"><path fill="none" stroke="#000000" d="M 1132 696 L 969 696" stroke-miterlimit="10"/></g><g transform="translate(-22,10) scale(1,1)"><path fill="#000000" stroke="none" d="M 979.1626748576241 691.790482243984 L 969 696 L 979.1626748576241 700.209517756016"/></g><g transform="translate(-22,10) scale(1,1)"><path fill="none" stroke="#000000" d="M 979.1626748576241 691.790482243984 L 969 696 L 979.1626748576241 700.209517756016 L 979.1626748576241 691.790482243984" stroke-miterlimit="10"/></g><g transform="translate(-22,10) scale(1,1)"><g><path fill="none" stroke="none"/><text fill="#000000" stroke="none" font-family="Arial" font-size="13px" font-style="normal" font-weight="normal" text-decoration="none" x="958" y="713">44 : send to article_spread_info</text></g></g><g transform="translate(-22,10) scale(1,1)"><rect fill="#ffffff" stroke="none" x="956" y="696" width="13" height="28"/></g><g transform="translate(-22,10) scale(1,1)"><path fill="none" stroke="#000000" d="M 956 696 L 969 696 L 969 724 L 956 724 L 956 696 Z Z" stroke-miterlimit="10"/></g><g transform="translate(-22,10) scale(1,1)"><path fill="none" stroke="#000000" d="M 1145 1208 L 1317 1208" stroke-miterlimit="10"/></g><g transform="translate(-22,10) scale(1,1)"><path fill="#000000" stroke="none" d="M 1306.837325142376 1212.2095177560159 L 1317 1208 L 1306.837325142376 1203.7904822439841"/></g><g transform="translate(-22,10) scale(1,1)"><path fill="none" stroke="#000000" d="M 1306.837325142376 1212.2095177560159 L 1317 1208 L 1306.837325142376 1203.7904822439841 L 1306.837325142376 1212.2095177560159" stroke-miterlimit="10"/></g><g transform="translate(-22,10) scale(1,1)"><g><path fill="none" stroke="none"/><text fill="#000000" stroke="none" font-family="Arial" font-size="13px" font-style="normal" font-weight="normal" text-decoration="none" x="1195" y="1205">45 : crawling</text></g></g><g transform="translate(-22,10) scale(1,1)"><rect fill="#ffffff" stroke="none" x="1317" y="1208" width="13" height="28"/></g><g transform="translate(-22,10) scale(1,1)"><path fill="none" stroke="#000000" d="M 1317 1208 L 1330 1208 L 1330 1236 L 1317 1236 L 1317 1208 Z Z" stroke-miterlimit="10"/></g><g transform="translate(-22,10) scale(1,1)"><path fill="none" stroke="#000000" d="M 787 848 L 956 848" stroke-miterlimit="10"/></g><g transform="translate(-22,10) scale(1,1)"><path fill="#000000" stroke="none" d="M 945.8373251423759 852.209517756016 L 956 848 L 945.8373251423758 843.790482243984"/></g><g transform="translate(-22,10) scale(1,1)"><path fill="none" stroke="#000000" d="M 945.8373251423759 852.209517756016 L 956 848 L 945.8373251423758 843.790482243984 L 945.8373251423759 852.209517756016" stroke-miterlimit="10"/></g><g transform="translate(-22,10) scale(1,1)"><g><path fill="none" stroke="none"/><text fill="#000000" stroke="none" font-family="Arial" font-size="13px" font-style="normal" font-weight="normal" text-decoration="none" x="765" y="861">48 : send to uranus-server_v2_wx_d</text></g></g><g transform="translate(-22,10) scale(1,1)"><rect fill="#ffffff" stroke="none" x="956" y="848" width="13" height="28"/></g><g transform="translate(-22,10) scale(1,1)"><path fill="none" stroke="#000000" d="M 956 848 L 969 848 L 969 876 L 956 876 L 956 848 Z Z" stroke-miterlimit="10"/></g><g transform="translate(-22,10) scale(1,1)"><path fill="none" stroke="#000000" d="M 787 1160 L 956 1160" stroke-miterlimit="10"/></g><g transform="translate(-22,10) scale(1,1)"><path fill="#000000" stroke="none" d="M 945.8373251423759 1164.2095177560159 L 956 1160 L 945.8373251423758 1155.7904822439841"/></g><g transform="translate(-22,10) scale(1,1)"><path fill="none" stroke="#000000" d="M 945.8373251423759 1164.2095177560159 L 956 1160 L 945.8373251423758 1155.7904822439841 L 945.8373251423759 1164.2095177560159" stroke-miterlimit="10"/></g><g transform="translate(-22,10) scale(1,1)"><g><path fill="none" stroke="none"/><text fill="#000000" stroke="none" font-family="Arial" font-size="13px" font-style="normal" font-weight="normal" text-decoration="none" x="785" y="1157">47 : send to uranus-server_v2</text></g></g><g transform="translate(-22,10) scale(1,1)"><rect fill="#ffffff" stroke="none" x="956" y="1160" width="13" height="28"/></g><g transform="translate(-22,10) scale(1,1)"><path fill="none" stroke="#000000" d="M 956 1160 L 969 1160 L 969 1188 L 956 1188 L 956 1160 Z Z" stroke-miterlimit="10"/></g><g transform="translate(-22,10) scale(1,1)"><path fill="none" stroke="#000000" d="M 355 807 L 551 807" stroke-miterlimit="10"/></g><g transform="translate(-22,10) scale(1,1)"><path fill="#000000" stroke="none" d="M 540.8373251423759 811.209517756016 L 551 807 L 540.8373251423758 802.790482243984"/></g><g transform="translate(-22,10) scale(1,1)"><path fill="none" stroke="#000000" d="M 540.8373251423759 811.209517756016 L 551 807 L 540.8373251423758 802.790482243984 L 540.8373251423759 811.209517756016" stroke-miterlimit="10"/></g><g transform="translate(-22,10) scale(1,1)"><g><path fill="none" stroke="none"/><text fill="#000000" stroke="none" font-family="Arial" font-size="13px" font-style="normal" font-weight="normal" text-decoration="none" x="392" y="804">31 : add C_WX_M_S</text></g></g><g transform="translate(-22,10) scale(1,1)"><rect fill="#ffffff" stroke="none" x="551" y="807" width="13" height="28"/></g><g transform="translate(-22,10) scale(1,1)"><path fill="none" stroke="#000000" d="M 551 807 L 564 807 L 564 835 L 551 835 L 551 807 Z Z" stroke-miterlimit="10"/></g><g transform="translate(-22,10) scale(1,1)"><path fill="none" stroke="#000000" d="M 969 872 L 1132 872" stroke-miterlimit="10"/></g><g transform="translate(-22,10) scale(1,1)"><path fill="#000000" stroke="none" d="M 1121.837325142376 876.209517756016 L 1132 872 L 1121.837325142376 867.790482243984"/></g><g transform="translate(-22,10) scale(1,1)"><path fill="none" stroke="#000000" d="M 1121.837325142376 876.209517756016 L 1132 872 L 1121.837325142376 867.790482243984 L 1121.837325142376 876.209517756016" stroke-miterlimit="10"/></g><g transform="translate(-22,10) scale(1,1)"><g><path fill="none" stroke="none"/><text fill="#000000" stroke="none" font-family="Arial" font-size="13px" font-style="normal" font-weight="normal" text-decoration="none" x="997" y="869">32 : recv from bus</text></g></g><g transform="translate(-22,10) scale(1,1)"><rect fill="#ffffff" stroke="none" x="1132" y="872" width="13" height="176"/></g><g transform="translate(-22,10) scale(1,1)"><path fill="none" stroke="#000000" d="M 1132 872 L 1145 872 L 1145 1048 L 1132 1048 L 1132 872 Z Z" stroke-miterlimit="10"/></g><g transform="translate(-22,10) scale(1,1)"><path fill="none" stroke="#000000" d="M 969 1184 L 1132 1184" stroke-miterlimit="10"/></g><g transform="translate(-22,10) scale(1,1)"><path fill="#000000" stroke="none" d="M 1121.837325142376 1188.2095177560159 L 1132 1184 L 1121.837325142376 1179.7904822439841"/></g><g transform="translate(-22,10) scale(1,1)"><path fill="none" stroke="#000000" d="M 1121.837325142376 1188.2095177560159 L 1132 1184 L 1121.837325142376 1179.7904822439841 L 1121.837325142376 1188.2095177560159" stroke-miterlimit="10"/></g><g transform="translate(-22,10) scale(1,1)"><g><path fill="none" stroke="none"/><text fill="#000000" stroke="none" font-family="Arial" font-size="13px" font-style="normal" font-weight="normal" text-decoration="none" x="997" y="1181">46 : recv from bus</text></g></g><g transform="translate(-22,10) scale(1,1)"><rect fill="#ffffff" stroke="none" x="1132" y="1184" width="13" height="160"/></g><g transform="translate(-22,10) scale(1,1)"><path fill="none" stroke="#000000" d="M 1132 1184 L 1145 1184 L 1145 1344 L 1132 1344 L 1132 1184 Z Z" stroke-miterlimit="10"/></g><g transform="translate(-22,10) scale(1,1)"><path fill="none" stroke="#000000" d="M 564 824 L 774 824" stroke-miterlimit="10"/></g><g transform="translate(-22,10) scale(1,1)"><path fill="#000000" stroke="none" d="M 763.8373251423759 828.209517756016 L 774 824 L 763.8373251423758 819.790482243984"/></g><g transform="translate(-22,10) scale(1,1)"><path fill="none" stroke="#000000" d="M 763.8373251423759 828.209517756016 L 774 824 L 763.8373251423758 819.790482243984 L 763.8373251423759 828.209517756016" stroke-miterlimit="10"/></g><g transform="translate(-22,10) scale(1,1)"><g><path fill="none" stroke="none"/><text fill="#000000" stroke="none" font-family="Arial" font-size="13px" font-style="normal" font-weight="normal" text-decoration="none" x="630" y="821">39 : schedule</text></g></g><g transform="translate(-22,10) scale(1,1)"><rect fill="#ffffff" stroke="none" x="774" y="824" width="13" height="28"/></g><g transform="translate(-22,10) scale(1,1)"><path fill="none" stroke="#000000" d="M 774 824 L 787 824 L 787 852 L 774 852 L 774 824 Z Z" stroke-miterlimit="10"/></g><g transform="translate(-22,10) scale(1,1)"><path fill="none" stroke="#000000" d="M 1132 1040 L 969 1040" stroke-miterlimit="10"/></g><g transform="translate(-22,10) scale(1,1)"><path fill="#000000" stroke="none" d="M 979.1626748576241 1035.7904822439841 L 969 1040 L 979.1626748576241 1044.2095177560159"/></g><g transform="translate(-22,10) scale(1,1)"><path fill="none" stroke="#000000" d="M 979.1626748576241 1035.7904822439841 L 969 1040 L 979.1626748576241 1044.2095177560159 L 979.1626748576241 1035.7904822439841" stroke-miterlimit="10"/></g><g transform="translate(-22,10) scale(1,1)"><g><path fill="none" stroke="none"/><text fill="#000000" stroke="none" font-family="Arial" font-size="13px" font-style="normal" font-weight="normal" text-decoration="none" x="944" y="1036">38 : send to uranus-server_wx_s</text></g></g><g transform="translate(-22,10) scale(1,1)"><rect fill="#ffffff" stroke="none" x="956" y="1040" width="13" height="28"/></g><g transform="translate(-22,10) scale(1,1)"><path fill="none" stroke="#000000" d="M 956 1040 L 969 1040 L 969 1068 L 956 1068 L 956 1040 Z Z" stroke-miterlimit="10"/></g><g transform="translate(-22,10) scale(1,1)"><path fill="none" stroke="#000000" d="M 1498 296 L 1145 296" stroke-miterlimit="10" stroke-dasharray="3"/></g><g transform="translate(-22,10) scale(1,1)"><path fill="none" stroke="#000000" d="M 1155.162674857624 291.790482243984 L 1145 296 L 1155.162674857624 300.209517756016" stroke-miterlimit="10"/></g><g transform="translate(-22,10) scale(1,1)"><g><path fill="none" stroke="none"/><text fill="#000000" stroke="none" font-family="Arial" font-size="13px" font-style="normal" font-weight="normal" text-decoration="none" x="1383" y="293">37 : response</text></g></g><g transform="translate(-22,10) scale(1,1)"><path fill="none" stroke="#000000" d="M 1132 1008 L 564 1008" stroke-miterlimit="10"/></g><g transform="translate(-22,10) scale(1,1)"><path fill="#000000" stroke="none" d="M 574.1626748576241 1003.790482243984 L 564 1008 L 574.1626748576241 1012.209517756016"/></g><g transform="translate(-22,10) scale(1,1)"><path fill="none" stroke="#000000" d="M 574.1626748576241 1003.790482243984 L 564 1008 L 574.1626748576241 1012.209517756016 L 574.1626748576241 1003.790482243984" stroke-miterlimit="10"/></g><g transform="translate(-22,10) scale(1,1)"><g><path fill="none" stroke="none"/><text fill="#000000" stroke="none" font-family="Arial" font-size="13px" font-style="normal" font-weight="normal" text-decoration="none" x="787" y="1025">36 : add C_WX_A_N</text></g></g><g transform="translate(-22,10) scale(1,1)"><rect fill="#ffffff" stroke="none" x="551" y="1008" width="13" height="28"/></g><g transform="translate(-22,10) scale(1,1)"><path fill="none" stroke="#000000" d="M 551 1008 L 564 1008 L 564 1036 L 551 1036 L 551 1008 Z Z" stroke-miterlimit="10"/></g><g transform="translate(-22,10) scale(1,1)"><path fill="none" stroke="#000000" d="M 139 1112 L 551 1112" stroke-miterlimit="10"/></g><g transform="translate(-22,10) scale(1,1)"><path fill="#000000" stroke="none" d="M 540.8373251423759 1116.2095177560159 L 551 1112 L 540.8373251423758 1107.7904822439841"/></g><g transform="translate(-22,10) scale(1,1)"><path fill="none" stroke="#000000" d="M 540.8373251423759 1116.2095177560159 L 551 1112 L 540.8373251423758 1107.7904822439841 L 540.8373251423759 1116.2095177560159" stroke-miterlimit="10"/></g><g transform="translate(-22,10) scale(1,1)"><g><path fill="none" stroke="none"/><text fill="#000000" stroke="none" font-family="Arial" font-size="13px" font-style="normal" font-weight="normal" text-decoration="none" x="161" y="1108">35 : manager common media</text></g></g><g transform="translate(-22,10) scale(1,1)"><rect fill="#ffffff" stroke="none" x="551" y="1112" width="13" height="28"/></g><g transform="translate(-22,10) scale(1,1)"><path fill="none" stroke="#000000" d="M 551 1112 L 564 1112 L 564 1140 L 551 1140 L 551 1112 Z Z" stroke-miterlimit="10"/></g><g transform="translate(-22,10) scale(1,1)"><path fill="none" stroke="#000000" d="M 564 1136 L 774 1136" stroke-miterlimit="10"/></g><g transform="translate(-22,10) scale(1,1)"><path fill="#000000" stroke="none" d="M 763.8373251423759 1140.2095177560159 L 774 1136 L 763.8373251423758 1131.7904822439841"/></g><g transform="translate(-22,10) scale(1,1)"><path fill="none" stroke="#000000" d="M 763.8373251423759 1140.2095177560159 L 774 1136 L 763.8373251423758 1131.7904822439841 L 763.8373251423759 1140.2095177560159" stroke-miterlimit="10"/></g><g transform="translate(-22,10) scale(1,1)"><g><path fill="none" stroke="none"/><text fill="#000000" stroke="none" font-family="Arial" font-size="13px" font-style="normal" font-weight="normal" text-decoration="none" x="630" y="1133">34 : schedule</text></g></g><g transform="translate(-22,10) scale(1,1)"><rect fill="#ffffff" stroke="none" x="774" y="1136" width="13" height="28"/></g><g transform="translate(-22,10) scale(1,1)"><path fill="none" stroke="#000000" d="M 774 1136 L 787 1136 L 787 1164 L 774 1164 L 774 1136 Z Z" stroke-miterlimit="10"/></g><g transform="translate(-22,10) scale(1,1)"><path fill="none" stroke="#000000" d="M 1145 264 L 1491 264" stroke-miterlimit="10"/></g><g transform="translate(-22,10) scale(1,1)"><path fill="#000000" stroke="none" d="M 1480.837325142376 268.209517756016 L 1491 264 L 1480.837325142376 259.790482243984"/></g><g transform="translate(-22,10) scale(1,1)"><path fill="none" stroke="#000000" d="M 1480.837325142376 268.209517756016 L 1491 264 L 1480.837325142376 259.790482243984 L 1480.837325142376 268.209517756016" stroke-miterlimit="10"/></g><g transform="translate(-22,10) scale(1,1)"><g><path fill="none" stroke="none"/><text fill="#000000" stroke="none" font-family="Arial" font-size="13px" font-style="normal" font-weight="normal" text-decoration="none" x="1359" y="261">8 : article process</text></g></g><g transform="translate(-22,10) scale(1,1)"><rect fill="#ffffff" stroke="none" x="1491" y="264" width="13" height="32"/></g><g transform="translate(-22,10) scale(1,1)"><path fill="none" stroke="#000000" d="M 1491 264 L 1504 264 L 1504 296 L 1491 296 L 1491 264 Z Z" stroke-miterlimit="10"/></g><g transform="translate(-22,10) scale(1,1)"><path fill="none" stroke="#000000" d="M 1132 320 L 564 320" stroke-miterlimit="10"/></g><g transform="translate(-22,10) scale(1,1)"><path fill="#000000" stroke="none" d="M 574.1626748576241 315.790482243984 L 564 320 L 574.1626748576241 324.209517756016"/></g><g transform="translate(-22,10) scale(1,1)"><path fill="none" stroke="#000000" d="M 574.1626748576241 315.790482243984 L 564 320 L 574.1626748576241 324.209517756016 L 574.1626748576241 315.790482243984" stroke-miterlimit="10"/></g><g transform="translate(-22,10) scale(1,1)"><g><path fill="none" stroke="none"/><text fill="#000000" stroke="none" font-family="Arial" font-size="13px" font-style="normal" font-weight="normal" text-decoration="none" x="790" y="316">9 : add C_WX_M_S</text></g></g><g transform="translate(-22,10) scale(1,1)"><rect fill="#ffffff" stroke="none" x="551" y="320" width="13" height="32"/></g><g transform="translate(-22,10) scale(1,1)"><path fill="none" stroke="#000000" d="M 551 320 L 564 320 L 564 352 L 551 352 L 551 320 Z Z" stroke-miterlimit="10"/></g><g transform="translate(-22,10) scale(1,1)"><path fill="none" stroke="#000000" d="M 1132 360 L 564 360" stroke-miterlimit="10"/></g><g transform="translate(-22,10) scale(1,1)"><path fill="#000000" stroke="none" d="M 574.1626748576241 355.790482243984 L 564 360 L 574.1626748576241 364.209517756016"/></g><g transform="translate(-22,10) scale(1,1)"><path fill="none" stroke="#000000" d="M 574.1626748576241 355.790482243984 L 564 360 L 574.1626748576241 364.209517756016 L 574.1626748576241 355.790482243984" stroke-miterlimit="10"/></g><g transform="translate(-22,10) scale(1,1)"><g><path fill="none" stroke="none"/><text fill="#000000" stroke="none" font-family="Arial" font-size="13px" font-style="normal" font-weight="normal" text-decoration="none" x="797" y="357">10 : add C_WX_A_D</text></g></g><g transform="translate(-22,10) scale(1,1)"><rect fill="#ffffff" stroke="none" x="551" y="360" width="13" height="28"/></g><g transform="translate(-22,10) scale(1,1)"><path fill="none" stroke="#000000" d="M 551 360 L 564 360 L 564 388 L 551 388 L 551 360 Z Z" stroke-miterlimit="10"/></g><g transform="translate(-22,10) scale(1,1)"><path fill="none" stroke="#000000" d="M 564 141 L 774 141" stroke-miterlimit="10"/></g><g transform="translate(-22,10) scale(1,1)"><path fill="#000000" stroke="none" d="M 763.8373251423759 145.209517756016 L 774 141 L 763.8373251423758 136.790482243984"/></g><g transform="translate(-22,10) scale(1,1)"><path fill="none" stroke="#000000" d="M 763.8373251423759 145.209517756016 L 774 141 L 763.8373251423758 136.790482243984 L 763.8373251423759 145.209517756016" stroke-miterlimit="10"/></g><g transform="translate(-22,10) scale(1,1)"><g><path fill="none" stroke="none"/><text fill="#000000" stroke="none" font-family="Arial" font-size="13px" font-style="normal" font-weight="normal" text-decoration="none" x="630" y="138">11 : schedule</text></g></g><g transform="translate(-22,10) scale(1,1)"><rect fill="#ffffff" stroke="none" x="774" y="141" width="13" height="28"/></g><g transform="translate(-22,10) scale(1,1)"><path fill="none" stroke="#000000" d="M 774 141 L 787 141 L 787 169 L 774 169 L 774 141 Z Z" stroke-miterlimit="10"/></g><g transform="translate(-22,10) scale(1,1)"><path fill="none" stroke="#000000" d="M 1324 232 L 1145 232" stroke-miterlimit="10" stroke-dasharray="3"/></g><g transform="translate(-22,10) scale(1,1)"><path fill="none" stroke="#000000" d="M 1155.162674857624 227.790482243984 L 1145 232 L 1155.162674857624 236.209517756016" stroke-miterlimit="10"/></g><g transform="translate(-22,10) scale(1,1)"><g><path fill="none" stroke="none"/><text fill="#000000" stroke="none" font-family="Arial" font-size="13px" font-style="normal" font-weight="normal" text-decoration="none" x="1169" y="249">7 : reponse article info</text></g></g><g transform="translate(-22,10) scale(1,1)"><path fill="none" stroke="#000000" d="M 1330 920 L 1665 920" stroke-miterlimit="10"/></g><g transform="translate(-22,10) scale(1,1)"><path fill="#000000" stroke="none" d="M 1654.837325142376 924.209517756016 L 1665 920 L 1654.837325142376 915.790482243984"/></g><g transform="translate(-22,10) scale(1,1)"><path fill="none" stroke="#000000" d="M 1654.837325142376 924.209517756016 L 1665 920 L 1654.837325142376 915.790482243984 L 1654.837325142376 924.209517756016" stroke-miterlimit="10"/></g><g transform="translate(-22,10) scale(1,1)"><g><path fill="none" stroke="none"/><text fill="#000000" stroke="none" font-family="Arial" font-size="13px" font-style="normal" font-weight="normal" text-decoration="none" x="1444" y="917">33 : spider asisant</text></g></g><g transform="translate(-22,10) scale(1,1)"><rect fill="#ffffff" stroke="none" x="1665" y="920" width="13" height="28"/></g><g transform="translate(-22,10) scale(1,1)"><path fill="none" stroke="#000000" d="M 1665 920 L 1678 920 L 1678 948 L 1665 948 L 1665 920 Z Z" stroke-miterlimit="10"/></g><g transform="translate(-22,10) scale(1,1)"><path fill="none" stroke="#000000" d="M 787 536 L 956 536" stroke-miterlimit="10"/></g><g transform="translate(-22,10) scale(1,1)"><path fill="#000000" stroke="none" d="M 945.8373251423759 540.209517756016 L 956 536 L 945.8373251423758 531.790482243984"/></g><g transform="translate(-22,10) scale(1,1)"><path fill="none" stroke="#000000" d="M 945.8373251423759 540.209517756016 L 956 536 L 945.8373251423758 531.790482243984 L 945.8373251423759 540.209517756016" stroke-miterlimit="10"/></g><g transform="translate(-22,10) scale(1,1)"><g><path fill="none" stroke="none"/><text fill="#000000" stroke="none" font-family="Arial" font-size="13px" font-style="normal" font-weight="normal" text-decoration="none" x="766" y="533">40 : send to uranus-server_v2_wx_d</text></g></g><g transform="translate(-22,10) scale(1,1)"><rect fill="#ffffff" stroke="none" x="956" y="536" width="13" height="28"/></g><g transform="translate(-22,10) scale(1,1)"><path fill="none" stroke="#000000" d="M 956 536 L 969 536 L 969 564 L 956 564 L 956 536 Z Z" stroke-miterlimit="10"/></g><g transform="translate(-22,10) scale(1,1)"><path fill="none" stroke="#000000" d="M 1145 584 L 1317 584" stroke-miterlimit="10"/></g><g transform="translate(-22,10) scale(1,1)"><path fill="#000000" stroke="none" d="M 1306.837325142376 588.209517756016 L 1317 584 L 1306.837325142376 579.790482243984"/></g><g transform="translate(-22,10) scale(1,1)"><path fill="none" stroke="#000000" d="M 1306.837325142376 588.209517756016 L 1317 584 L 1306.837325142376 579.790482243984 L 1306.837325142376 588.209517756016" stroke-miterlimit="10"/></g><g transform="translate(-22,10) scale(1,1)"><g><path fill="none" stroke="none"/><text fill="#000000" stroke="none" font-family="Arial" font-size="13px" font-style="normal" font-weight="normal" text-decoration="none" x="1195" y="581">27 : crawling</text></g></g><g transform="translate(-22,10) scale(1,1)"><rect fill="#ffffff" stroke="none" x="1317" y="584" width="13" height="72"/></g><g transform="translate(-22,10) scale(1,1)"><path fill="none" stroke="#000000" d="M 1317 584 L 1330 584 L 1330 656 L 1317 656 L 1317 584 Z Z" stroke-miterlimit="10"/></g><g transform="translate(-22,10) scale(1,1)"><path fill="none" stroke="#000000" d="M 1324 656 L 1145 656" stroke-miterlimit="10" stroke-dasharray="3"/></g><g transform="translate(-22,10) scale(1,1)"><path fill="none" stroke="#000000" d="M 1155.162674857624 651.790482243984 L 1145 656 L 1155.162674857624 660.209517756016" stroke-miterlimit="10"/></g><g transform="translate(-22,10) scale(1,1)"><g><path fill="none" stroke="none"/><text fill="#000000" stroke="none" font-family="Arial" font-size="13px" font-style="normal" font-weight="normal" text-decoration="none" x="1194" y="673">30 : response</text></g></g><g transform="translate(-22,10) scale(1,1)"><path fill="none" stroke="#000000" d="M 1317 971 L 1145 971" stroke-miterlimit="10" stroke-dasharray="3"/></g><g transform="translate(-22,10) scale(1,1)"><path fill="none" stroke="#000000" d="M 1155.162674857624 966.790482243984 L 1145 971 L 1155.162674857624 975.209517756016" stroke-miterlimit="10"/></g><g transform="translate(-22,10) scale(1,1)"><g><path fill="none" stroke="none"/><text fill="#000000" stroke="none" font-family="Arial" font-size="13px" font-style="normal" font-weight="normal" text-decoration="none" x="1191" y="988">29 : response</text></g></g><g transform="translate(-22,10) scale(1,1)"><path fill="none" stroke="#000000" d="M 1672 948 L 1330 948" stroke-miterlimit="10" stroke-dasharray="3"/></g><g transform="translate(-22,10) scale(1,1)"><path fill="none" stroke="#000000" d="M 1340.162674857624 943.790482243984 L 1330 948 L 1340.162674857624 952.209517756016" stroke-miterlimit="10"/></g><g transform="translate(-22,10) scale(1,1)"><g><path fill="none" stroke="none"/><text fill="#000000" stroke="none" font-family="Arial" font-size="13px" font-style="normal" font-weight="normal" text-decoration="none" x="1448" y="965">28 : response key</text></g></g><g transform="translate(-22,10) scale(1,1)"><path fill="none" stroke="#000000" d="M 1132 378 L 969 378" stroke-miterlimit="10"/></g><g transform="translate(-22,10) scale(1,1)"><path fill="#000000" stroke="none" d="M 979.1626748576241 373.790482243984 L 969 378 L 979.1626748576241 382.209517756016"/></g><g transform="translate(-22,10) scale(1,1)"><path fill="none" stroke="#000000" d="M 979.1626748576241 373.790482243984 L 969 378 L 979.1626748576241 382.209517756016 L 979.1626748576241 373.790482243984" stroke-miterlimit="10"/></g><g transform="translate(-22,10) scale(1,1)"><g><path fill="none" stroke="none"/><text fill="#000000" stroke="none" font-family="Arial" font-size="13px" font-style="normal" font-weight="normal" text-decoration="none" x="959" y="374">24 : send to media_basic_info</text></g></g><g transform="translate(-22,10) scale(1,1)"><rect fill="#ffffff" stroke="none" x="956" y="378" width="13" height="28"/></g><g transform="translate(-22,10) scale(1,1)"><path fill="none" stroke="#000000" d="M 956 378 L 969 378 L 969 406 L 956 406 L 956 378 Z Z" stroke-miterlimit="10"/></g><g transform="translate(-22,10) scale(1,1)"><path fill="none" stroke="#000000" d="M 1145 200 L 1317 200" stroke-miterlimit="10"/></g><g transform="translate(-22,10) scale(1,1)"><path fill="#000000" stroke="none" d="M 1306.837325142376 204.209517756016 L 1317 200 L 1306.837325142376 195.790482243984"/></g><g transform="translate(-22,10) scale(1,1)"><path fill="none" stroke="#000000" d="M 1306.837325142376 204.209517756016 L 1317 200 L 1306.837325142376 195.790482243984 L 1306.837325142376 204.209517756016" stroke-miterlimit="10"/></g><g transform="translate(-22,10) scale(1,1)"><g><path fill="none" stroke="none"/><text fill="#000000" stroke="none" font-family="Arial" font-size="13px" font-style="normal" font-weight="normal" text-decoration="none" x="1195" y="197">14 : crawling</text></g></g><g transform="translate(-22,10) scale(1,1)"><rect fill="#ffffff" stroke="none" x="1317" y="200" width="13" height="32"/></g><g transform="translate(-22,10) scale(1,1)"><path fill="none" stroke="#000000" d="M 1317 200 L 1330 200 L 1330 232 L 1317 232 L 1317 200 Z Z" stroke-miterlimit="10"/></g><g transform="translate(-22,10) scale(1,1)"><path fill="none" stroke="#000000" d="M 564 514 L 774 514" stroke-miterlimit="10"/></g><g transform="translate(-22,10) scale(1,1)"><path fill="#000000" stroke="none" d="M 763.8373251423759 518.209517756016 L 774 514 L 763.8373251423758 509.790482243984"/></g><g transform="translate(-22,10) scale(1,1)"><path fill="none" stroke="#000000" d="M 763.8373251423759 518.209517756016 L 774 514 L 763.8373251423758 509.790482243984 L 763.8373251423759 518.209517756016" stroke-miterlimit="10"/></g><g transform="translate(-22,10) scale(1,1)"><g><path fill="none" stroke="none"/><text fill="#000000" stroke="none" font-family="Arial" font-size="13px" font-style="normal" font-weight="normal" text-decoration="none" x="630" y="511">25 : schedule</text></g></g><g transform="translate(-22,10) scale(1,1)"><rect fill="#ffffff" stroke="none" x="774" y="514" width="13" height="28"/></g><g transform="translate(-22,10) scale(1,1)"><path fill="none" stroke="#000000" d="M 774 514 L 787 514 L 787 542 L 774 542 L 774 514 Z Z" stroke-miterlimit="10"/></g><g transform="translate(-22,10) scale(1,1)"><path fill="none" stroke="#000000" d="M 1665 624 L 1330 624" stroke-miterlimit="10" stroke-dasharray="3"/></g><g transform="translate(-22,10) scale(1,1)"><path fill="none" stroke="#000000" d="M 1340.162674857624 619.790482243984 L 1330 624 L 1340.162674857624 628.209517756016" stroke-miterlimit="10"/></g><g transform="translate(-22,10) scale(1,1)"><g><path fill="none" stroke="none"/><text fill="#000000" stroke="none" font-family="Arial" font-size="13px" font-style="normal" font-weight="normal" text-decoration="none" x="1444" y="641">26 : response key</text></g></g><g transform="translate(-22,10) scale(1,1)"><path fill="none" stroke="#000000" d="M 787 152 L 956 152" stroke-miterlimit="10"/></g><g transform="translate(-22,10) scale(1,1)"><path fill="#000000" stroke="none" d="M 945.8373251423759 156.209517756016 L 956 152 L 945.8373251423758 147.790482243984"/></g><g transform="translate(-22,10) scale(1,1)"><path fill="none" stroke="#000000" d="M 945.8373251423759 156.209517756016 L 956 152 L 945.8373251423758 147.790482243984 L 945.8373251423759 156.209517756016" stroke-miterlimit="10"/></g><g transform="translate(-22,10) scale(1,1)"><g><path fill="none" stroke="none"/><text fill="#000000" stroke="none" font-family="Arial" font-size="13px" font-style="normal" font-weight="normal" text-decoration="none" x="770" y="149">3 : send to uranus-server_v2_wx_s</text></g></g><g transform="translate(-22,10) scale(1,1)"><rect fill="#ffffff" stroke="none" x="956" y="152" width="13" height="28"/></g><g transform="translate(-22,10) scale(1,1)"><path fill="none" stroke="#000000" d="M 956 152 L 969 152 L 969 180 L 956 180 L 956 152 Z Z" stroke-miterlimit="10"/></g><g transform="translate(-22,10) scale(1,1)"><path fill="none" stroke="#000000" d="M 969 176 L 1132 176" stroke-miterlimit="10"/></g><g transform="translate(-22,10) scale(1,1)"><path fill="#000000" stroke="none" d="M 1121.837325142376 180.209517756016 L 1132 176 L 1121.837325142376 171.790482243984"/></g><g transform="translate(-22,10) scale(1,1)"><path fill="none" stroke="#000000" d="M 1121.837325142376 180.209517756016 L 1132 176 L 1121.837325142376 171.790482243984 L 1121.837325142376 180.209517756016" stroke-miterlimit="10"/></g><g transform="translate(-22,10) scale(1,1)"><g><path fill="none" stroke="none"/><text fill="#000000" stroke="none" font-family="Arial" font-size="13px" font-style="normal" font-weight="normal" text-decoration="none" x="1001" y="173">4 : recv from bus</text></g></g><g transform="translate(-22,10) scale(1,1)"><rect fill="#ffffff" stroke="none" x="1132" y="176" width="13" height="208"/></g><g transform="translate(-22,10) scale(1,1)"><path fill="none" stroke="#000000" d="M 1132 176 L 1145 176 L 1145 384 L 1132 384 L 1132 176 Z Z" stroke-miterlimit="10"/></g><g transform="translate(-22,10) scale(1,1)"><path fill="none" stroke="#000000" d="M 355 108 L 551 108" stroke-miterlimit="10"/></g><g transform="translate(-22,10) scale(1,1)"><path fill="#000000" stroke="none" d="M 540.8373251423759 112.20951775601598 L 551 108 L 540.8373251423758 103.79048224398402"/></g><g transform="translate(-22,10) scale(1,1)"><path fill="none" stroke="#000000" d="M 540.8373251423759 112.20951775601598 L 551 108 L 540.8373251423758 103.79048224398402 L 540.8373251423759 112.20951775601598" stroke-miterlimit="10"/></g><g transform="translate(-22,10) scale(1,1)"><g><path fill="none" stroke="none"/><text fill="#000000" stroke="none" font-family="Arial" font-size="13px" font-style="normal" font-weight="normal" text-decoration="none" x="384" y="100">1 : add C_WX_A_S</text></g></g><g transform="translate(-22,10) scale(1,1)"><rect fill="#ffffff" stroke="none" x="551" y="108" width="13" height="41"/></g><g transform="translate(-22,10) scale(1,1)"><path fill="none" stroke="#000000" d="M 551 108 L 564 108 L 564 149 L 551 149 L 551 108 Z Z" stroke-miterlimit="10"/></g><g transform="translate(-22,10) scale(1,1)"><path fill="none" stroke="#000000" d="M 355 488 L 551 488" stroke-miterlimit="10"/></g><g transform="translate(-22,10) scale(1,1)"><path fill="#000000" stroke="none" d="M 540.8373251423759 492.209517756016 L 551 488 L 540.8373251423758 483.790482243984"/></g><g transform="translate(-22,10) scale(1,1)"><path fill="none" stroke="#000000" d="M 540.8373251423759 492.209517756016 L 551 488 L 540.8373251423758 483.790482243984 L 540.8373251423759 492.209517756016" stroke-miterlimit="10"/></g><g transform="translate(-22,10) scale(1,1)"><g><path fill="none" stroke="none"/><text fill="#000000" stroke="none" font-family="Arial" font-size="13px" font-style="normal" font-weight="normal" text-decoration="none" x="393" y="485">12 : add C_WX_A_D</text></g></g><g transform="translate(-22,10) scale(1,1)"><rect fill="#ffffff" stroke="none" x="551" y="488" width="13" height="28"/></g><g transform="translate(-22,10) scale(1,1)"><path fill="none" stroke="#000000" d="M 551 488 L 564 488 L 564 516 L 551 516 L 551 488 Z Z" stroke-miterlimit="10"/></g><g transform="translate(-22,10) scale(1,1)"><path fill="none" stroke="#000000" d="M 969 560 L 1132 560" stroke-miterlimit="10"/></g><g transform="translate(-22,10) scale(1,1)"><path fill="#000000" stroke="none" d="M 1121.837325142376 564.209517756016 L 1132 560 L 1121.837325142376 555.790482243984"/></g><g transform="translate(-22,10) scale(1,1)"><path fill="none" stroke="#000000" d="M 1121.837325142376 564.209517756016 L 1132 560 L 1121.837325142376 555.790482243984 L 1121.837325142376 564.209517756016" stroke-miterlimit="10"/></g><g transform="translate(-22,10) scale(1,1)"><g><path fill="none" stroke="none"/><text fill="#000000" stroke="none" font-family="Arial" font-size="13px" font-style="normal" font-weight="normal" text-decoration="none" x="997" y="557">15 : recv from bus</text></g></g><g transform="translate(-22,10) scale(1,1)"><rect fill="#ffffff" stroke="none" x="1132" y="560" width="13" height="144"/></g><g transform="translate(-22,10) scale(1,1)"><path fill="none" stroke="#000000" d="M 1132 560 L 1145 560 L 1145 704 L 1132 704 L 1132 560 Z Z" stroke-miterlimit="10"/></g><g transform="translate(-22,10) scale(1,1)"><path fill="none" stroke="#000000" d="M 1330 608 L 1665 608" stroke-miterlimit="10"/></g><g transform="translate(-22,10) scale(1,1)"><path fill="#000000" stroke="none" d="M 1654.837325142376 612.209517756016 L 1665 608 L 1654.837325142376 603.790482243984"/></g><g transform="translate(-22,10) scale(1,1)"><path fill="none" stroke="#000000" d="M 1654.837325142376 612.209517756016 L 1665 608 L 1654.837325142376 603.790482243984 L 1654.837325142376 612.209517756016" stroke-miterlimit="10"/></g><g transform="translate(-22,10) scale(1,1)"><g><path fill="none" stroke="none"/><text fill="#000000" stroke="none" font-family="Arial" font-size="13px" font-style="normal" font-weight="normal" text-decoration="none" x="1442" y="605">17 : spider asistant</text></g></g><g transform="translate(-22,10) scale(1,1)"><rect fill="#ffffff" stroke="none" x="1665" y="608" width="13" height="28"/></g><g transform="translate(-22,10) scale(1,1)"><path fill="none" stroke="#000000" d="M 1665 608 L 1678 608 L 1678 636 L 1665 636 L 1665 608 Z Z" stroke-miterlimit="10"/></g></g></svg>