<svg version="1.1" xmlns="http://www.w3.org/2000/svg" xmlns:xlink="http://www.w3.org/1999/xlink" width="630" height="394"><defs/><g><g transform="translate(-22,-150) scale(1,1)"><path fill="#C0C0C0" stroke="none" d="M 111 264.5 C 111 249.31216799999999 146.817216 237 191 237 C 235.182784 237 271 249.31216799999999 271 264.5 C 271 279.687832 235.182784 292 191 292 C 146.817216 292 111 279.687832 111 264.5 Z" opacity="0.2"/></g><g transform="translate(-22,-150) scale(1,1)"><path fill="#ffffff" stroke="none" d="M 104 257.5 C 104 242.31216799999999 139.817216 230 184 230 C 228.182784 230 264 242.31216799999999 264 257.5 C 264 272.687832 228.182784 285 184 285 C 139.817216 285 104 272.687832 104 257.5 Z"/></g><g transform="translate(-22,-150) scale(1,1)"><path fill="none" stroke="#000000" d="M 104 257.5 C 104 242.31216799999999 139.817216 230 184 230 C 228.182784 230 264 242.31216799999999 264 257.5 C 264 272.687832 228.182784 285 184 285 C 139.817216 285 104 272.687832 104 257.5 Z" stroke-miterlimit="10"/></g><g transform="translate(-22,-150) scale(1,1)"><g><path fill="none" stroke="none"/><text fill="#000000" stroke="none" font-family="Arial" font-size="13px" font-style="normal" font-weight="bold" text-decoration="none" x="132" y="257">采集公共媒体文章</text></g></g><g transform="translate(-22,-150) scale(1,1)"><g><path fill="none" stroke="none"/><text fill="#000000" stroke="none" font-family="Arial" font-size="13px" font-style="normal" font-weight="normal" text-decoration="none" x="139" y="272">(from 用例视图)</text></g></g><g transform="translate(-22,-150) scale(1,1)"><path fill="#C0C0C0" stroke="none" d="M 263 360 C 263 350.6111584 290.7583424 343 325 343 C 359.2416576 343 387 350.6111584 387 360 C 387 369.3888416 359.2416576 377 325 377 C 290.7583424 377 263 369.3888416 263 360 Z" opacity="0.2"/></g><g transform="translate(-22,-150) scale(1,1)"><path fill="#ffffff" stroke="none" d="M 256 353 C 256 343.6111584 283.7583424 336 318 336 C 352.2416576 336 380 343.6111584 380 353 C 380 362.3888416 352.2416576 370 318 370 C 283.7583424 370 256 362.3888416 256 353 Z"/></g><g transform="translate(-22,-150) scale(1,1)"><path fill="none" stroke="#000000" d="M 256 353 C 256 343.6111584 283.7583424 336 318 336 C 352.2416576 336 380 343.6111584 380 353 C 380 362.3888416 352.2416576 370 318 370 C 283.7583424 370 256 362.3888416 256 353 Z" stroke-miterlimit="10"/></g><g transform="translate(-22,-150) scale(1,1)"><g><path fill="none" stroke="none"/><text fill="#000000" stroke="none" font-family="Arial" font-size="13px" font-style="normal" font-weight="bold" text-decoration="none" x="279" y="360">文章静态数据</text></g></g><g transform="translate(-22,-150) scale(1,1)"><path fill="none" stroke="#000000" d="M 224 286 L 293 335" stroke-miterlimit="10" stroke-dasharray="3"/></g><g transform="translate(-22,-150) scale(1,1)"><path fill="none" stroke="#000000" d="M 282.27678194735194 332.5479407439129 L 293 335 L 287.151407526681 325.6836720709801" stroke-miterlimit="10"/></g><g transform="translate(-22,-150) scale(1,1)"><g><path fill="none" stroke="none"/><text fill="#000000" stroke="none" font-family="Arial" font-size="13px" font-style="normal" font-weight="normal" text-decoration="none" x="248" y="292">«include»</text></g></g><g transform="translate(-22,-150) scale(1,1)"><path fill="#C0C0C0" stroke="none" d="M 287 184 C 287 174.6111584 314.5344848 167 348.5 167 C 382.4655152 167 410 174.6111584 410 184 C 410 193.3888416 382.4655152 201 348.5 201 C 314.5344848 201 287 193.3888416 287 184 Z" opacity="0.2"/></g><g transform="translate(-22,-150) scale(1,1)"><path fill="#ffffff" stroke="none" d="M 280 177 C 280 167.6111584 307.5344848 160 341.5 160 C 375.4655152 160 403 167.6111584 403 177 C 403 186.3888416 375.4655152 194 341.5 194 C 307.5344848 194 280 186.3888416 280 177 Z"/></g><g transform="translate(-22,-150) scale(1,1)"><path fill="none" stroke="#000000" d="M 280 177 C 280 167.6111584 307.5344848 160 341.5 160 C 375.4655152 160 403 167.6111584 403 177 C 403 186.3888416 375.4655152 194 341.5 194 C 307.5344848 194 280 186.3888416 280 177 Z" stroke-miterlimit="10"/></g><g transform="translate(-22,-150) scale(1,1)"><g><path fill="none" stroke="none"/><text fill="#000000" stroke="none" font-family="Arial" font-size="13px" font-style="normal" font-weight="bold" text-decoration="none" x="302.5" y="184">文章动态数据</text></g></g><g transform="translate(-22,-150) scale(1,1)"><path fill="none" stroke="#000000" d="M 239 229 L 306 195" stroke-miterlimit="10" stroke-dasharray="3"/></g><g transform="translate(-22,-150) scale(1,1)"><path fill="none" stroke="#000000" d="M 298.8423718913533 203.35274564788793 L 306 195 L 295.0325095380165 195.84507571631246" stroke-miterlimit="10"/></g><g transform="translate(-22,-150) scale(1,1)"><g><path fill="none" stroke="none"/><text fill="#000000" stroke="none" font-family="Arial" font-size="13px" font-style="normal" font-weight="normal" text-decoration="none" x="231" y="192">«include»</text></g></g><g transform="translate(-22,-150) scale(1,1)"><path fill="#ffffff" stroke="none" d="M 416 360 L 504 360 L 514 370 L 514 533 L 416 533 L 416 360"/></g><g transform="translate(-22,-150) scale(1,1)"><path fill="none" stroke="#000000" d="M 416 360 L 504 360 L 514 370 L 514 533 L 416 533 L 416 360 L 416 360" stroke-miterlimit="10"/></g><g transform="translate(-22,-150) scale(1,1)"><path fill="none" stroke="#000000" d="M 504 360 L 504 370 L 514 370 L 504 360" stroke-miterlimit="10"/></g><g transform="translate(-22,-150) scale(1,1)"><g><path fill="none" stroke="none"/><text fill="#000000" stroke="none" font-family="Arial" font-size="13px" font-style="normal" font-weight="normal" text-decoration="none" x="421" y="378">采集字段</text></g></g><g transform="translate(-22,-150) scale(1,1)"><g><path fill="none" stroke="none"/><text fill="#000000" stroke="none" font-family="Arial" font-size="13px" font-style="normal" font-weight="normal" text-decoration="none" x="421" y="393">1.文章标题</text></g></g><g transform="translate(-22,-150) scale(1,1)"><g><path fill="none" stroke="none"/><text fill="#000000" stroke="none" font-family="Arial" font-size="13px" font-style="normal" font-weight="normal" text-decoration="none" x="421" y="408">2.文章正文</text></g></g><g transform="translate(-22,-150) scale(1,1)"><g><path fill="none" stroke="none"/><text fill="#000000" stroke="none" font-family="Arial" font-size="13px" font-style="normal" font-weight="normal" text-decoration="none" x="421" y="423">3.发布时间</text></g></g><g transform="translate(-22,-150) scale(1,1)"><g><path fill="none" stroke="none"/><text fill="#000000" stroke="none" font-family="Arial" font-size="13px" font-style="normal" font-weight="normal" text-decoration="none" x="421" y="438">4.分类</text></g></g><g transform="translate(-22,-150) scale(1,1)"><g><path fill="none" stroke="none"/><text fill="#000000" stroke="none" font-family="Arial" font-size="13px" font-style="normal" font-weight="normal" text-decoration="none" x="421" y="453">5.来源</text></g></g><g transform="translate(-22,-150) scale(1,1)"><g><path fill="none" stroke="none"/><text fill="#000000" stroke="none" font-family="Arial" font-size="13px" font-style="normal" font-weight="normal" text-decoration="none" x="421" y="468">6.作者</text></g></g><g transform="translate(-22,-150) scale(1,1)"><g><path fill="none" stroke="none"/><text fill="#000000" stroke="none" font-family="Arial" font-size="13px" font-style="normal" font-weight="normal" text-decoration="none" x="421" y="483">7.摘要</text></g></g><g transform="translate(-22,-150) scale(1,1)"><g><path fill="none" stroke="none"/><text fill="#000000" stroke="none" font-family="Arial" font-size="13px" font-style="normal" font-weight="normal" text-decoration="none" x="421" y="498">8.平台</text></g></g><g transform="translate(-22,-150) scale(1,1)"><g><path fill="none" stroke="none"/><text fill="#000000" stroke="none" font-family="Arial" font-size="13px" font-style="normal" font-weight="normal" text-decoration="none" x="421" y="513">采集方式：</text></g></g><g transform="translate(-22,-150) scale(1,1)"><g><path fill="none" stroke="none"/><text fill="#000000" stroke="none" font-family="Arial" font-size="13px" font-style="normal" font-weight="normal" text-decoration="none" x="421" y="528">一次性</text></g></g><g transform="translate(-22,-150) scale(1,1)"><path fill="none" stroke="#000000" d="M 346 371 L 415 415" stroke-miterlimit="10" stroke-dasharray="3"/></g><g transform="translate(-22,-150) scale(1,1)"><path fill="#ffffff" stroke="none" d="M 424 200 L 512 200 L 522 210 L 522 298 L 424 298 L 424 200"/></g><g transform="translate(-22,-150) scale(1,1)"><path fill="none" stroke="#000000" d="M 424 200 L 512 200 L 522 210 L 522 298 L 424 298 L 424 200 L 424 200" stroke-miterlimit="10"/></g><g transform="translate(-22,-150) scale(1,1)"><path fill="none" stroke="#000000" d="M 512 200 L 512 210 L 522 210 L 512 200" stroke-miterlimit="10"/></g><g transform="translate(-22,-150) scale(1,1)"><g><path fill="none" stroke="none"/><text fill="#000000" stroke="none" font-family="Arial" font-size="13px" font-style="normal" font-weight="normal" text-decoration="none" x="429" y="218">采集字段：</text></g></g><g transform="translate(-22,-150) scale(1,1)"><g><path fill="none" stroke="none"/><text fill="#000000" stroke="none" font-family="Arial" font-size="13px" font-style="normal" font-weight="normal" text-decoration="none" x="429" y="233">评论数</text></g></g><g transform="translate(-22,-150) scale(1,1)"><g><path fill="none" stroke="none"/><text fill="#000000" stroke="none" font-family="Arial" font-size="13px" font-style="normal" font-weight="normal" text-decoration="none" x="429" y="248">点赞数</text></g></g><g transform="translate(-22,-150) scale(1,1)"><g><path fill="none" stroke="none"/><text fill="#000000" stroke="none" font-family="Arial" font-size="13px" font-style="normal" font-weight="normal" text-decoration="none" x="429" y="263">差评数</text></g></g><g transform="translate(-22,-150) scale(1,1)"><g><path fill="none" stroke="none"/><text fill="#000000" stroke="none" font-family="Arial" font-size="13px" font-style="normal" font-weight="normal" text-decoration="none" x="429" y="278">阅读数</text></g></g><g transform="translate(-22,-150) scale(1,1)"><g><path fill="none" stroke="none"/><text fill="#000000" stroke="none" font-family="Arial" font-size="13px" font-style="normal" font-weight="normal" text-decoration="none" x="429" y="293">转发数</text></g></g><g transform="translate(-22,-150) scale(1,1)"><path fill="none" stroke="#000000" d="M 374 195 L 423 222" stroke-miterlimit="10" stroke-dasharray="3"/></g><g transform="translate(-22,-150) scale(1,1)"><path fill="#C0C0C0" stroke="none" d="M 39 408 C 39 398.6111584 87.12938399999999 391 146.5 391 C 205.870616 391 254 398.6111584 254 408 C 254 417.3888416 205.870616 425 146.5 425 C 87.12938399999999 425 39 417.3888416 39 408 Z" opacity="0.2"/></g><g transform="translate(-22,-150) scale(1,1)"><path fill="#ffffff" stroke="none" d="M 32 401 C 32 391.6111584 80.12938399999999 384 139.5 384 C 198.870616 384 247 391.6111584 247 401 C 247 410.3888416 198.870616 418 139.5 418 C 80.12938399999999 418 32 410.3888416 32 401 Z"/></g><g transform="translate(-22,-150) scale(1,1)"><path fill="none" stroke="#000000" d="M 32 401 C 32 391.6111584 80.12938399999999 384 139.5 384 C 198.870616 384 247 391.6111584 247 401 C 247 410.3888416 198.870616 418 139.5 418 C 80.12938399999999 418 32 410.3888416 32 401 Z" stroke-miterlimit="10"/></g><g transform="translate(-22,-150) scale(1,1)"><g><path fill="none" stroke="none"/><text fill="#000000" stroke="none" font-family="Arial" font-size="13px" font-style="normal" font-weight="bold" text-decoration="none" x="81" y="408">收录媒体的最新文章</text></g></g><g transform="translate(-22,-150) scale(1,1)"><path fill="none" stroke="#000000" d="M 175 286 L 145 383" stroke-miterlimit="10" stroke-dasharray="3"/></g><g transform="translate(-22,-150) scale(1,1)"><path fill="none" stroke="#000000" d="M 143.98119107881126 372.0472821463298 L 145 383 L 152.02433436984728 374.5348522363409" stroke-miterlimit="10"/></g><g transform="translate(-22,-150) scale(1,1)"><g><path fill="none" stroke="none"/><text fill="#000000" stroke="none" font-family="Arial" font-size="13px" font-style="normal" font-weight="normal" text-decoration="none" x="161" y="349">«include»</text></g></g><g transform="translate(-22,-150) scale(1,1)"><path fill="#ffffff" stroke="none" d="M 64 464 L 241 464 L 251 474 L 251 512 L 64 512 L 64 464"/></g><g transform="translate(-22,-150) scale(1,1)"><path fill="none" stroke="#000000" d="M 64 464 L 241 464 L 251 474 L 251 512 L 64 512 L 64 464 L 64 464" stroke-miterlimit="10"/></g><g transform="translate(-22,-150) scale(1,1)"><path fill="none" stroke="#000000" d="M 241 464 L 241 474 L 251 474 L 241 464" stroke-miterlimit="10"/></g><g transform="translate(-22,-150) scale(1,1)"><g><path fill="none" stroke="none"/><text fill="#000000" stroke="none" font-family="Arial" font-size="13px" font-style="normal" font-weight="normal" text-decoration="none" x="69" y="482">定时收录微信媒体的最新文章</text></g></g><g transform="translate(-22,-150) scale(1,1)"><path fill="none" stroke="#000000" d="M 143 419 L 153 463" stroke-miterlimit="10" stroke-dasharray="3"/></g><g transform="translate(-22,-150) scale(1,1)"><path fill="#C0C0C0" stroke="none" d="M 563 328 C 563 318.6111584 582.2517536 311 606 311 C 629.7482464 311 649 318.6111584 649 328 C 649 337.3888416 629.7482464 345 606 345 C 582.2517536 345 563 337.3888416 563 328 Z" opacity="0.2"/></g><g transform="translate(-22,-150) scale(1,1)"><path fill="#ffffff" stroke="none" d="M 556 321 C 556 311.6111584 575.2517536 304 599 304 C 622.7482464 304 642 311.6111584 642 321 C 642 330.3888416 622.7482464 338 599 338 C 575.2517536 338 556 330.3888416 556 321 Z"/></g><g transform="translate(-22,-150) scale(1,1)"><path fill="none" stroke="#000000" d="M 556 321 C 556 311.6111584 575.2517536 304 599 304 C 622.7482464 304 642 311.6111584 642 321 C 642 330.3888416 622.7482464 338 599 338 C 575.2517536 338 556 330.3888416 556 321 Z" stroke-miterlimit="10"/></g><g transform="translate(-22,-150) scale(1,1)"><g><path fill="none" stroke="none"/><text fill="#000000" stroke="none" font-family="Arial" font-size="13px" font-style="normal" font-weight="bold" text-decoration="none" x="573" y="328">文章分析</text></g></g><g transform="translate(-22,-150) scale(1,1)"><path fill="none" stroke="#000000" d="M 381 346 L 555 326" stroke-miterlimit="10" stroke-dasharray="3"/></g><g transform="translate(-22,-150) scale(1,1)"><path fill="none" stroke="#000000" d="M 545.3844883683757 331.3424653543189 L 555 326 L 544.4231130404072 322.9785000009934" stroke-miterlimit="10"/></g><g transform="translate(-22,-150) scale(1,1)"><g><path fill="none" stroke="none"/><text fill="#000000" stroke="none" font-family="Arial" font-size="13px" font-style="normal" font-weight="normal" text-decoration="none" x="440" y="332">«extend»</text></g></g></g></svg>