<svg version="1.1" xmlns="http://www.w3.org/2000/svg" xmlns:xlink="http://www.w3.org/1999/xlink" width="1604" height="732"><defs/><g><g transform="translate(-6,-6) scale(1,1)"><path fill="none" stroke="#000000" d="M 16 16 L 1600 16 L 1600 728 L 16 728 L 16 16" stroke-miterlimit="10"/></g><g transform="translate(-6,-6) scale(1,1)"><path fill="#ffffff" stroke="none" d="M 16 16 L 16 38 L 237 38 L 248 27 L 248 16 L 16 16"/></g><g transform="translate(-6,-6) scale(1,1)"><path fill="none" stroke="#000000" d="M 16 16 L 16 38 L 237 38 L 248 27 L 248 16 L 16 16 L 16 16" stroke-miterlimit="10"/></g><g transform="translate(-6,-6) scale(1,1)"><g><path fill="none" stroke="none"/><text fill="#000000" stroke="none" font-family="Arial" font-size="13px" font-style="normal" font-weight="normal" text-decoration="none" x="87" y="33.5">uranus-general-sequence</text></g></g><g transform="translate(-6,-6) scale(1,1)"><g><path fill="none" stroke="none"/><text fill="#000000" stroke="none" font-family="Arial" font-size="13px" font-style="normal" font-weight="bold" text-decoration="none" x="21" y="33.5">interaction</text></g></g><g transform="translate(-6,-6) scale(1,1)"><rect fill="#ffffff" stroke="none" x="288.27777777777777" y="40" width="34.44444444444446" height="40"/></g><g transform="translate(-6,-6) scale(1,1)"><path fill="none" stroke="#000000" d="M 288.27777777777777 40 L 322.72222222222223 40 L 322.72222222222223 80 L 288.27777777777777 80 L 288.27777777777777 40 Z Z" stroke-miterlimit="10"/></g><g transform="translate(-6,-6) scale(1,1)"><rect fill="#ffffff" stroke="none" x="278.27777777777777" y="47" width="20" height="10"/></g><g transform="translate(-6,-6) scale(1,1)"><path fill="none" stroke="#000000" d="M 278.27777777777777 47 L 298.27777777777777 47 L 298.27777777777777 57 L 278.27777777777777 57 L 278.27777777777777 47 Z Z" stroke-miterlimit="10"/></g><g transform="translate(-6,-6) scale(1,1)"><rect fill="#ffffff" stroke="none" x="278.27777777777777" y="67" width="20" height="10"/></g><g transform="translate(-6,-6) scale(1,1)"><path fill="none" stroke="#000000" d="M 278.27777777777777 67 L 298.27777777777777 67 L 298.27777777777777 77 L 278.27777777777777 77 L 278.27777777777777 67 Z Z" stroke-miterlimit="10"/></g><g transform="translate(-6,-6) scale(1,1)"><g><path fill="none" stroke="none"/><text fill="#000000" stroke="none" font-family="Arial" font-size="13px" font-style="normal" font-weight="bold" text-decoration="none" x="240.5" y="99.5">Lifeline1: uranus-sdk</text></g></g><g transform="translate(-6,-6) scale(1,1)"><path fill="none" stroke="#000000" d="M 301.5 105 L 301.5 453" stroke-miterlimit="10" stroke-dasharray="3"/></g><g transform="translate(-6,-6) scale(1,1)"><rect fill="#ffffff" stroke="none" x="463.77777777777777" y="40" width="34.44444444444446" height="40"/></g><g transform="translate(-6,-6) scale(1,1)"><path fill="none" stroke="#000000" d="M 463.77777777777777 40 L 498.22222222222223 40 L 498.22222222222223 80 L 463.77777777777777 80 L 463.77777777777777 40 Z Z" stroke-miterlimit="10"/></g><g transform="translate(-6,-6) scale(1,1)"><rect fill="#ffffff" stroke="none" x="453.77777777777777" y="47" width="20" height="10"/></g><g transform="translate(-6,-6) scale(1,1)"><path fill="none" stroke="#000000" d="M 453.77777777777777 47 L 473.77777777777777 47 L 473.77777777777777 57 L 453.77777777777777 57 L 453.77777777777777 47 Z Z" stroke-miterlimit="10"/></g><g transform="translate(-6,-6) scale(1,1)"><rect fill="#ffffff" stroke="none" x="453.77777777777777" y="67" width="20" height="10"/></g><g transform="translate(-6,-6) scale(1,1)"><path fill="none" stroke="#000000" d="M 453.77777777777777 67 L 473.77777777777777 67 L 473.77777777777777 77 L 453.77777777777777 77 L 453.77777777777777 67 Z Z" stroke-miterlimit="10"/></g><g transform="translate(-6,-6) scale(1,1)"><g><path fill="none" stroke="none"/><text fill="#000000" stroke="none" font-family="Arial" font-size="13px" font-style="normal" font-weight="bold" text-decoration="none" x="388" y="99.5">Lifeline2: uranus-schedule-dao</text></g></g><g transform="translate(-6,-6) scale(1,1)"><path fill="none" stroke="#000000" d="M 477.5 105 L 477.5 458" stroke-miterlimit="10" stroke-dasharray="3"/></g><g transform="translate(-6,-6) scale(1,1)"><rect fill="#ffffff" stroke="none" x="675.7777777777778" y="40" width="34.44444444444446" height="40"/></g><g transform="translate(-6,-6) scale(1,1)"><path fill="none" stroke="#000000" d="M 675.7777777777778 40 L 710.2222222222223 40 L 710.2222222222223 80 L 675.7777777777778 80 L 675.7777777777778 40 Z Z" stroke-miterlimit="10"/></g><g transform="translate(-6,-6) scale(1,1)"><rect fill="#ffffff" stroke="none" x="665.7777777777778" y="47" width="20" height="10"/></g><g transform="translate(-6,-6) scale(1,1)"><path fill="none" stroke="#000000" d="M 665.7777777777778 47 L 685.7777777777778 47 L 685.7777777777778 57 L 665.7777777777778 57 L 665.7777777777778 47 Z Z" stroke-miterlimit="10"/></g><g transform="translate(-6,-6) scale(1,1)"><rect fill="#ffffff" stroke="none" x="665.7777777777778" y="67" width="20" height="10"/></g><g transform="translate(-6,-6) scale(1,1)"><path fill="none" stroke="#000000" d="M 665.7777777777778 67 L 685.7777777777778 67 L 685.7777777777778 77 L 665.7777777777778 77 L 665.7777777777778 67 Z Z" stroke-miterlimit="10"/></g><g transform="translate(-6,-6) scale(1,1)"><g><path fill="none" stroke="none"/><text fill="#000000" stroke="none" font-family="Arial" font-size="13px" font-style="normal" font-weight="bold" text-decoration="none" x="610.5" y="99.5">Lifeline3: uranus-scheduler</text></g></g><g transform="translate(-6,-6) scale(1,1)"><path fill="none" stroke="#000000" d="M 689.5 105 L 689.5 374" stroke-miterlimit="10" stroke-dasharray="3"/></g><g transform="translate(-6,-6) scale(1,1)"><rect fill="#ffffff" stroke="none" x="857.2777777777778" y="40" width="34.44444444444446" height="40"/></g><g transform="translate(-6,-6) scale(1,1)"><path fill="none" stroke="#000000" d="M 857.2777777777778 40 L 891.7222222222223 40 L 891.7222222222223 80 L 857.2777777777778 80 L 857.2777777777778 40 Z Z" stroke-miterlimit="10"/></g><g transform="translate(-6,-6) scale(1,1)"><rect fill="#ffffff" stroke="none" x="847.2777777777778" y="47" width="20" height="10"/></g><g transform="translate(-6,-6) scale(1,1)"><path fill="none" stroke="#000000" d="M 847.2777777777778 47 L 867.2777777777778 47 L 867.2777777777778 57 L 847.2777777777778 57 L 847.2777777777778 47 Z Z" stroke-miterlimit="10"/></g><g transform="translate(-6,-6) scale(1,1)"><rect fill="#ffffff" stroke="none" x="847.2777777777778" y="67" width="20" height="10"/></g><g transform="translate(-6,-6) scale(1,1)"><path fill="none" stroke="#000000" d="M 847.2777777777778 67 L 867.2777777777778 67 L 867.2777777777778 77 L 847.2777777777778 77 L 847.2777777777778 67 Z Z" stroke-miterlimit="10"/></g><g transform="translate(-6,-6) scale(1,1)"><g><path fill="none" stroke="none"/><text fill="#000000" stroke="none" font-family="Arial" font-size="13px" font-style="normal" font-weight="bold" text-decoration="none" x="802" y="99.5">Lifeline4: uranus-server</text></g></g><g transform="translate(-6,-6) scale(1,1)"><path fill="none" stroke="#000000" d="M 870.5 105 L 870.5 394" stroke-miterlimit="10" stroke-dasharray="3"/></g><g transform="translate(-6,-6) scale(1,1)"><rect fill="#ffffff" stroke="none" x="1025.7777777777778" y="40" width="34.44444444444434" height="40"/></g><g transform="translate(-6,-6) scale(1,1)"><path fill="none" stroke="#000000" d="M 1025.7777777777778 40 L 1060.2222222222222 40 L 1060.2222222222222 80 L 1025.7777777777778 80 L 1025.7777777777778 40 Z Z" stroke-miterlimit="10"/></g><g transform="translate(-6,-6) scale(1,1)"><rect fill="#ffffff" stroke="none" x="1015.7777777777778" y="47" width="20" height="10"/></g><g transform="translate(-6,-6) scale(1,1)"><path fill="none" stroke="#000000" d="M 1015.7777777777778 47 L 1035.7777777777778 47 L 1035.7777777777778 57 L 1015.7777777777778 57 L 1015.7777777777778 47 Z Z" stroke-miterlimit="10"/></g><g transform="translate(-6,-6) scale(1,1)"><rect fill="#ffffff" stroke="none" x="1015.7777777777778" y="67" width="20" height="10"/></g><g transform="translate(-6,-6) scale(1,1)"><path fill="none" stroke="#000000" d="M 1015.7777777777778 67 L 1035.7777777777778 67 L 1035.7777777777778 77 L 1015.7777777777778 77 L 1015.7777777777778 67 Z Z" stroke-miterlimit="10"/></g><g transform="translate(-6,-6) scale(1,1)"><g><path fill="none" stroke="none"/><text fill="#000000" stroke="none" font-family="Arial" font-size="13px" font-style="normal" font-weight="bold" text-decoration="none" x="971" y="99.5">Lifeline5: uranus-spider</text></g></g><g transform="translate(-6,-6) scale(1,1)"><path fill="none" stroke="#000000" d="M 1039.5 105 L 1039.5 262" stroke-miterlimit="10" stroke-dasharray="3"/></g><g transform="translate(-6,-6) scale(1,1)"><rect fill="#ffffff" stroke="none" x="1176.2777777777778" y="40" width="34.44444444444434" height="40"/></g><g transform="translate(-6,-6) scale(1,1)"><path fill="none" stroke="#000000" d="M 1176.2777777777778 40 L 1210.7222222222222 40 L 1210.7222222222222 80 L 1176.2777777777778 80 L 1176.2777777777778 40 Z Z" stroke-miterlimit="10"/></g><g transform="translate(-6,-6) scale(1,1)"><rect fill="#ffffff" stroke="none" x="1166.2777777777778" y="47" width="20" height="10"/></g><g transform="translate(-6,-6) scale(1,1)"><path fill="none" stroke="#000000" d="M 1166.2777777777778 47 L 1186.2777777777778 47 L 1186.2777777777778 57 L 1166.2777777777778 57 L 1166.2777777777778 47 Z Z" stroke-miterlimit="10"/></g><g transform="translate(-6,-6) scale(1,1)"><rect fill="#ffffff" stroke="none" x="1166.2777777777778" y="67" width="20" height="10"/></g><g transform="translate(-6,-6) scale(1,1)"><path fill="none" stroke="#000000" d="M 1166.2777777777778 67 L 1186.2777777777778 67 L 1186.2777777777778 77 L 1166.2777777777778 77 L 1166.2777777777778 67 Z Z" stroke-miterlimit="10"/></g><g transform="translate(-6,-6) scale(1,1)"><g><path fill="none" stroke="none"/><text fill="#000000" stroke="none" font-family="Arial" font-size="13px" font-style="normal" font-weight="bold" text-decoration="none" x="1130.5" y="99.5">Lifeline6: uranus-nlp</text></g></g><g transform="translate(-6,-6) scale(1,1)"><path fill="none" stroke="#000000" d="M 1189.5 105 L 1189.5 325" stroke-miterlimit="10" stroke-dasharray="3"/></g><g transform="translate(-6,-6) scale(1,1)"><rect fill="#ffffff" stroke="none" x="1342.2777777777778" y="40" width="34.44444444444434" height="40"/></g><g transform="translate(-6,-6) scale(1,1)"><path fill="none" stroke="#000000" d="M 1342.2777777777778 40 L 1376.7222222222222 40 L 1376.7222222222222 80 L 1342.2777777777778 80 L 1342.2777777777778 40 Z Z" stroke-miterlimit="10"/></g><g transform="translate(-6,-6) scale(1,1)"><rect fill="#ffffff" stroke="none" x="1332.2777777777778" y="47" width="20" height="10"/></g><g transform="translate(-6,-6) scale(1,1)"><path fill="none" stroke="#000000" d="M 1332.2777777777778 47 L 1352.2777777777778 47 L 1352.2777777777778 57 L 1332.2777777777778 57 L 1332.2777777777778 47 Z Z" stroke-miterlimit="10"/></g><g transform="translate(-6,-6) scale(1,1)"><rect fill="#ffffff" stroke="none" x="1332.2777777777778" y="67" width="20" height="10"/></g><g transform="translate(-6,-6) scale(1,1)"><path fill="none" stroke="#000000" d="M 1332.2777777777778 67 L 1352.2777777777778 67 L 1352.2777777777778 77 L 1332.2777777777778 77 L 1332.2777777777778 67 Z Z" stroke-miterlimit="10"/></g><g transform="translate(-6,-6) scale(1,1)"><g><path fill="none" stroke="none"/><text fill="#000000" stroke="none" font-family="Arial" font-size="13px" font-style="normal" font-weight="bold" text-decoration="none" x="1282" y="99.5">Lifeline7: uranus-asistant</text></g></g><g transform="translate(-6,-6) scale(1,1)"><path fill="none" stroke="#000000" d="M 1355.5 105 L 1355.5 257" stroke-miterlimit="10" stroke-dasharray="3"/></g><g transform="translate(-6,-6) scale(1,1)"><rect fill="#ffffff" stroke="none" x="1498.2777777777778" y="40" width="34.44444444444434" height="40"/></g><g transform="translate(-6,-6) scale(1,1)"><path fill="none" stroke="#000000" d="M 1498.2777777777778 40 L 1532.7222222222222 40 L 1532.7222222222222 80 L 1498.2777777777778 80 L 1498.2777777777778 40 Z Z" stroke-miterlimit="10"/></g><g transform="translate(-6,-6) scale(1,1)"><rect fill="#ffffff" stroke="none" x="1488.2777777777778" y="47" width="20" height="10"/></g><g transform="translate(-6,-6) scale(1,1)"><path fill="none" stroke="#000000" d="M 1488.2777777777778 47 L 1508.2777777777778 47 L 1508.2777777777778 57 L 1488.2777777777778 57 L 1488.2777777777778 47 Z Z" stroke-miterlimit="10"/></g><g transform="translate(-6,-6) scale(1,1)"><rect fill="#ffffff" stroke="none" x="1488.2777777777778" y="67" width="20" height="10"/></g><g transform="translate(-6,-6) scale(1,1)"><path fill="none" stroke="#000000" d="M 1488.2777777777778 67 L 1508.2777777777778 67 L 1508.2777777777778 77 L 1488.2777777777778 77 L 1488.2777777777778 67 Z Z" stroke-miterlimit="10"/></g><g transform="translate(-6,-6) scale(1,1)"><g><path fill="none" stroke="none"/><text fill="#000000" stroke="none" font-family="Arial" font-size="13px" font-style="normal" font-weight="bold" text-decoration="none" x="1458" y="99.5">Lifeline8: gaia-bus</text></g></g><g transform="translate(-6,-6) scale(1,1)"><path fill="none" stroke="#000000" d="M 1511.5 105 L 1511.5 372" stroke-miterlimit="10" stroke-dasharray="3"/></g><g transform="translate(-6,-6) scale(1,1)"><rect fill="#ffffff" stroke="none" x="116.77777777777777" y="40" width="34.44444444444446" height="40"/></g><g transform="translate(-6,-6) scale(1,1)"><path fill="none" stroke="#000000" d="M 116.77777777777777 40 L 151.22222222222223 40 L 151.22222222222223 80 L 116.77777777777777 80 L 116.77777777777777 40 Z Z" stroke-miterlimit="10"/></g><g transform="translate(-6,-6) scale(1,1)"><rect fill="#ffffff" stroke="none" x="106.77777777777777" y="47" width="20" height="10"/></g><g transform="translate(-6,-6) scale(1,1)"><path fill="none" stroke="#000000" d="M 106.77777777777777 47 L 126.77777777777777 47 L 126.77777777777777 57 L 106.77777777777777 57 L 106.77777777777777 47 Z Z" stroke-miterlimit="10"/></g><g transform="translate(-6,-6) scale(1,1)"><rect fill="#ffffff" stroke="none" x="106.77777777777777" y="67" width="20" height="10"/></g><g transform="translate(-6,-6) scale(1,1)"><path fill="none" stroke="#000000" d="M 106.77777777777777 67 L 126.77777777777777 67 L 126.77777777777777 77 L 106.77777777777777 77 L 106.77777777777777 67 Z Z" stroke-miterlimit="10"/></g><g transform="translate(-6,-6) scale(1,1)"><g><path fill="none" stroke="none"/><text fill="#000000" stroke="none" font-family="Arial" font-size="13px" font-style="normal" font-weight="bold" text-decoration="none" x="54.5" y="99.5">Lifeline9: uranus-manager</text></g></g><g transform="translate(-6,-6) scale(1,1)"><path fill="none" stroke="#000000" d="M 130.5 105 L 130.5 458" stroke-miterlimit="10" stroke-dasharray="3"/></g><g transform="translate(-6,-6) scale(1,1)"><path fill="none" stroke="#000000" d="M 1032 254 L 876 254" stroke-miterlimit="10" stroke-dasharray="3"/></g><g transform="translate(-6,-6) scale(1,1)"><path fill="none" stroke="#000000" d="M 886.1626748576241 249.790482243984 L 876 254 L 886.1626748576241 258.209517756016" stroke-miterlimit="10"/></g><g transform="translate(-6,-6) scale(1,1)"><g><path fill="none" stroke="none"/><text fill="#000000" stroke="none" font-family="Arial" font-size="13px" font-style="normal" font-weight="normal" text-decoration="none" x="911" y="250">9 : response</text></g></g><g transform="translate(-6,-6) scale(1,1)"><path fill="none" stroke="#000000" d="M 876 288 L 1182 288" stroke-miterlimit="10"/></g><g transform="translate(-6,-6) scale(1,1)"><path fill="#000000" stroke="none" d="M 1171.837325142376 292.209517756016 L 1182 288 L 1171.837325142376 283.790482243984"/></g><g transform="translate(-6,-6) scale(1,1)"><path fill="none" stroke="#000000" d="M 1171.837325142376 292.209517756016 L 1182 288 L 1171.837325142376 283.790482243984 L 1171.837325142376 292.209517756016" stroke-miterlimit="10"/></g><g transform="translate(-6,-6) scale(1,1)"><g><path fill="none" stroke="none"/><text fill="#000000" stroke="none" font-family="Arial" font-size="13px" font-style="normal" font-weight="normal" text-decoration="none" x="956" y="284">10 : article process</text></g></g><g transform="translate(-6,-6) scale(1,1)"><rect fill="#ffffff" stroke="none" x="1182" y="288" width="13" height="28"/></g><g transform="translate(-6,-6) scale(1,1)"><path fill="none" stroke="#000000" d="M 1182 288 L 1195 288 L 1195 316 L 1182 316 L 1182 288 Z Z" stroke-miterlimit="10"/></g><g transform="translate(-6,-6) scale(1,1)"><path fill="none" stroke="#000000" d="M 1182 311 L 876 311" stroke-miterlimit="10" stroke-dasharray="3"/></g><g transform="translate(-6,-6) scale(1,1)"><path fill="none" stroke="#000000" d="M 886.1626748576241 306.790482243984 L 876 311 L 886.1626748576241 315.209517756016" stroke-miterlimit="10"/></g><g transform="translate(-6,-6) scale(1,1)"><g><path fill="none" stroke="none"/><text fill="#000000" stroke="none" font-family="Arial" font-size="13px" font-style="normal" font-weight="normal" text-decoration="none" x="989" y="328">11 : response</text></g></g><g transform="translate(-6,-6) scale(1,1)"><path fill="none" stroke="#000000" d="M 876 346 L 1504 346" stroke-miterlimit="10"/></g><g transform="translate(-6,-6) scale(1,1)"><path fill="#000000" stroke="none" d="M 1493.837325142376 350.209517756016 L 1504 346 L 1493.837325142376 341.790482243984"/></g><g transform="translate(-6,-6) scale(1,1)"><path fill="none" stroke="#000000" d="M 1493.837325142376 350.209517756016 L 1504 346 L 1493.837325142376 341.790482243984 L 1493.837325142376 350.209517756016" stroke-miterlimit="10"/></g><g transform="translate(-6,-6) scale(1,1)"><g><path fill="none" stroke="none"/><text fill="#000000" stroke="none" font-family="Arial" font-size="13px" font-style="normal" font-weight="normal" text-decoration="none" x="1139" y="343">12 : send  to  bus</text></g></g><g transform="translate(-6,-6) scale(1,1)"><rect fill="#ffffff" stroke="none" x="1504" y="346" width="13" height="28"/></g><g transform="translate(-6,-6) scale(1,1)"><path fill="none" stroke="#000000" d="M 1504 346 L 1517 346 L 1517 374 L 1504 374 L 1504 346 Z Z" stroke-miterlimit="10"/></g><g transform="translate(-6,-6) scale(1,1)"><path fill="none" stroke="#000000" d="M 863 368 L 483 368" stroke-miterlimit="10"/></g><g transform="translate(-6,-6) scale(1,1)"><path fill="#000000" stroke="none" d="M 493.16267485762415 363.790482243984 L 483 368 L 493.16267485762415 372.209517756016"/></g><g transform="translate(-6,-6) scale(1,1)"><path fill="none" stroke="#000000" d="M 493.16267485762415 363.790482243984 L 483 368 L 493.16267485762415 372.209517756016 L 493.16267485762415 363.790482243984" stroke-miterlimit="10"/></g><g transform="translate(-6,-6) scale(1,1)"><g><path fill="none" stroke="none"/><text fill="#000000" stroke="none" font-family="Arial" font-size="13px" font-style="normal" font-weight="normal" text-decoration="none" x="620" y="385">13 : add message</text></g></g><g transform="translate(-6,-6) scale(1,1)"><rect fill="#ffffff" stroke="none" x="470" y="368" width="13" height="28"/></g><g transform="translate(-6,-6) scale(1,1)"><path fill="none" stroke="#000000" d="M 470 368 L 483 368 L 483 396 L 470 396 L 470 368 Z Z" stroke-miterlimit="10"/></g><g transform="translate(-6,-6) scale(1,1)"><path fill="none" stroke="#000000" d="M 876 200 L 1032 200" stroke-miterlimit="10"/></g><g transform="translate(-6,-6) scale(1,1)"><path fill="#000000" stroke="none" d="M 1021.8373251423759 204.209517756016 L 1032 200 L 1021.8373251423758 195.790482243984"/></g><g transform="translate(-6,-6) scale(1,1)"><path fill="none" stroke="#000000" d="M 1021.8373251423759 204.209517756016 L 1032 200 L 1021.8373251423758 195.790482243984 L 1021.8373251423759 204.209517756016" stroke-miterlimit="10"/></g><g transform="translate(-6,-6) scale(1,1)"><g><path fill="none" stroke="none"/><text fill="#000000" stroke="none" font-family="Arial" font-size="13px" font-style="normal" font-weight="normal" text-decoration="none" x="918" y="197">14 : crawling</text></g></g><g transform="translate(-6,-6) scale(1,1)"><rect fill="#ffffff" stroke="none" x="1032" y="200" width="13" height="64"/></g><g transform="translate(-6,-6) scale(1,1)"><path fill="none" stroke="#000000" d="M 1032 200 L 1045 200 L 1045 264 L 1032 264 L 1032 200 Z Z" stroke-miterlimit="10"/></g><g transform="translate(-6,-6) scale(1,1)"><path fill="none" stroke="#000000" d="M 1348 240 L 1045 240" stroke-miterlimit="10" stroke-dasharray="3"/></g><g transform="translate(-6,-6) scale(1,1)"><path fill="none" stroke="#000000" d="M 1055.162674857624 235.790482243984 L 1045 240 L 1055.162674857624 244.209517756016" stroke-miterlimit="10"/></g><g transform="translate(-6,-6) scale(1,1)"><g><path fill="none" stroke="none"/><text fill="#000000" stroke="none" font-family="Arial" font-size="13px" font-style="normal" font-weight="normal" text-decoration="none" x="1220" y="260">15 : response</text></g></g><g transform="translate(-6,-6) scale(1,1)"><path fill="none" stroke="#000000" d="M 695 176 L 863 176" stroke-miterlimit="10"/></g><g transform="translate(-6,-6) scale(1,1)"><path fill="#000000" stroke="none" d="M 852.8373251423759 180.209517756016 L 863 176 L 852.8373251423758 171.790482243984"/></g><g transform="translate(-6,-6) scale(1,1)"><path fill="none" stroke="#000000" d="M 852.8373251423759 180.209517756016 L 863 176 L 852.8373251423758 171.790482243984 L 852.8373251423759 180.209517756016" stroke-miterlimit="10"/></g><g transform="translate(-6,-6) scale(1,1)"><g><path fill="none" stroke="none"/><text fill="#000000" stroke="none" font-family="Arial" font-size="13px" font-style="normal" font-weight="normal" text-decoration="none" x="728" y="173">4 : send to server</text></g></g><g transform="translate(-6,-6) scale(1,1)"><rect fill="#ffffff" stroke="none" x="863" y="176" width="13" height="200"/></g><g transform="translate(-6,-6) scale(1,1)"><path fill="none" stroke="#000000" d="M 863 176 L 876 176 L 876 376 L 863 376 L 863 176 Z Z" stroke-miterlimit="10"/></g><g transform="translate(-6,-6) scale(1,1)"><path fill="none" stroke="#000000" d="M 490 152 L 682 152" stroke-miterlimit="10"/></g><g transform="translate(-6,-6) scale(1,1)"><path fill="#000000" stroke="none" d="M 671.8373251423759 156.209517756016 L 682 152 L 671.8373251423758 147.790482243984"/></g><g transform="translate(-6,-6) scale(1,1)"><path fill="none" stroke="#000000" d="M 671.8373251423759 156.209517756016 L 682 152 L 671.8373251423758 147.790482243984 L 671.8373251423759 156.209517756016" stroke-miterlimit="10"/></g><g transform="translate(-6,-6) scale(1,1)"><g><path fill="none" stroke="none"/><text fill="#000000" stroke="none" font-family="Arial" font-size="13px" font-style="normal" font-weight="normal" text-decoration="none" x="551" y="149">5 : schedule</text></g></g><g transform="translate(-6,-6) scale(1,1)"><rect fill="#ffffff" stroke="none" x="682" y="152" width="13" height="28"/></g><g transform="translate(-6,-6) scale(1,1)"><path fill="none" stroke="#000000" d="M 682 152 L 695 152 L 695 180 L 682 180 L 682 152 Z Z" stroke-miterlimit="10"/></g><g transform="translate(-6,-6) scale(1,1)"><path fill="none" stroke="#000000" d="M 130 128 L 477 128" stroke-miterlimit="10"/></g><g transform="translate(-6,-6) scale(1,1)"><path fill="#000000" stroke="none" d="M 466.83732514237585 132.209517756016 L 477 128 L 466.83732514237585 123.79048224398402"/></g><g transform="translate(-6,-6) scale(1,1)"><path fill="none" stroke="#000000" d="M 466.83732514237585 132.209517756016 L 477 128 L 466.83732514237585 123.79048224398402 L 466.83732514237585 132.209517756016" stroke-miterlimit="10"/></g><g transform="translate(-6,-6) scale(1,1)"><g><path fill="none" stroke="none"/><text fill="#000000" stroke="none" font-family="Arial" font-size="13px" font-style="normal" font-weight="normal" text-decoration="none" x="142" y="124">3 : manager common media</text></g></g><g transform="translate(-6,-6) scale(1,1)"><rect fill="#ffffff" stroke="none" x="477" y="128" width="13" height="28"/></g><g transform="translate(-6,-6) scale(1,1)"><path fill="none" stroke="#000000" d="M 477 128 L 490 128 L 490 156 L 477 156 L 477 128 Z Z" stroke-miterlimit="10"/></g><g transform="translate(-6,-6) scale(1,1)"><path fill="none" stroke="#000000" d="M 301 112 L 470 112" stroke-miterlimit="10"/></g><g transform="translate(-6,-6) scale(1,1)"><path fill="#000000" stroke="none" d="M 459.83732514237585 116.20951775601598 L 470 112 L 459.83732514237585 107.79048224398402"/></g><g transform="translate(-6,-6) scale(1,1)"><path fill="none" stroke="#000000" d="M 459.83732514237585 116.20951775601598 L 470 112 L 459.83732514237585 107.79048224398402 L 459.83732514237585 116.20951775601598" stroke-miterlimit="10"/></g><g transform="translate(-6,-6) scale(1,1)"><g><path fill="none" stroke="none"/><text fill="#000000" stroke="none" font-family="Arial" font-size="13px" font-style="normal" font-weight="normal" text-decoration="none" x="333" y="109">1 : send message</text></g></g><g transform="translate(-6,-6) scale(1,1)"><rect fill="#ffffff" stroke="none" x="470" y="112" width="13" height="47"/></g><g transform="translate(-6,-6) scale(1,1)"><path fill="none" stroke="#000000" d="M 470 112 L 483 112 L 483 159 L 470 159 L 470 112 Z Z" stroke-miterlimit="10"/></g><g transform="translate(-6,-6) scale(1,1)"><path fill="none" stroke="#000000" d="M 1045 216 L 1348 216" stroke-miterlimit="10"/></g><g transform="translate(-6,-6) scale(1,1)"><path fill="#000000" stroke="none" d="M 1337.837325142376 220.209517756016 L 1348 216 L 1337.837325142376 211.790482243984"/></g><g transform="translate(-6,-6) scale(1,1)"><path fill="none" stroke="#000000" d="M 1337.837325142376 220.209517756016 L 1348 216 L 1337.837325142376 211.790482243984 L 1337.837325142376 220.209517756016" stroke-miterlimit="10"/></g><g transform="translate(-6,-6) scale(1,1)"><g><path fill="none" stroke="none"/><text fill="#000000" stroke="none" font-family="Arial" font-size="13px" font-style="normal" font-weight="normal" text-decoration="none" x="1216" y="213">6 : proxy</text></g></g><g transform="translate(-6,-6) scale(1,1)"><rect fill="#ffffff" stroke="none" x="1348" y="216" width="13" height="28"/></g><g transform="translate(-6,-6) scale(1,1)"><path fill="none" stroke="#000000" d="M 1348 216 L 1361 216 L 1361 244 L 1348 244 L 1348 216 Z Z" stroke-miterlimit="10"/></g></g></svg>