<svg version="1.1" xmlns="http://www.w3.org/2000/svg" xmlns:xlink="http://www.w3.org/1999/xlink" width="834" height="761"><defs/><g><g transform="translate(-46,-30) scale(1,1)"><path fill="#C0C0C0" stroke="none" d="M 87 394.5 C 87 379.312168 118.340064 367 157 367 C 195.65993600000002 367 227 379.312168 227 394.5 C 227 409.687832 195.65993600000002 422 157 422 C 118.340064 422 87 409.687832 87 394.5 Z" opacity="0.2"/></g><g transform="translate(-46,-30) scale(1,1)"><path fill="#ffffff" stroke="none" d="M 80 387.5 C 80 372.312168 111.340064 360 150 360 C 188.65993600000002 360 220 372.312168 220 387.5 C 220 402.687832 188.65993600000002 415 150 415 C 111.340064 415 80 402.687832 80 387.5 Z"/></g><g transform="translate(-46,-30) scale(1,1)"><path fill="none" stroke="#000000" d="M 80 387.5 C 80 372.312168 111.340064 360 150 360 C 188.65993600000002 360 220 372.312168 220 387.5 C 220 402.687832 188.65993600000002 415 150 415 C 111.340064 415 80 402.687832 80 387.5 Z" stroke-miterlimit="10"/></g><g transform="translate(-46,-30) scale(1,1)"><g><path fill="none" stroke="none"/><text fill="#000000" stroke="none" font-family="Arial" font-size="13px" font-style="normal" font-weight="bold" text-decoration="none" x="111" y="387">采集微博数据</text></g></g><g transform="translate(-46,-30) scale(1,1)"><g><path fill="none" stroke="none"/><text fill="#000000" stroke="none" font-family="Arial" font-size="13px" font-style="normal" font-weight="normal" text-decoration="none" x="105" y="402">(from 用例视图)</text></g></g><g transform="translate(-46,-30) scale(1,1)"><path fill="#C0C0C0" stroke="none" d="M 287 416 C 287 406.6111584 322.81721600000003 399 367 399 C 411.18278399999997 399 447 406.6111584 447 416 C 447 425.3888416 411.18278399999997 433 367 433 C 322.81721600000003 433 287 425.3888416 287 416 Z" opacity="0.2"/></g><g transform="translate(-46,-30) scale(1,1)"><path fill="#ffffff" stroke="none" d="M 280 409 C 280 399.6111584 315.81721600000003 392 360 392 C 404.18278399999997 392 440 399.6111584 440 409 C 440 418.3888416 404.18278399999997 426 360 426 C 315.81721600000003 426 280 418.3888416 280 409 Z"/></g><g transform="translate(-46,-30) scale(1,1)"><path fill="none" stroke="#000000" d="M 280 409 C 280 399.6111584 315.81721600000003 392 360 392 C 404.18278399999997 392 440 399.6111584 440 409 C 440 418.3888416 404.18278399999997 426 360 426 C 315.81721600000003 426 280 418.3888416 280 409 Z" stroke-miterlimit="10"/></g><g transform="translate(-46,-30) scale(1,1)"><g><path fill="none" stroke="none"/><text fill="#000000" stroke="none" font-family="Arial" font-size="13px" font-style="normal" font-weight="bold" text-decoration="none" x="308" y="416">采集微博文章数据</text></g></g><g transform="translate(-46,-30) scale(1,1)"><path fill="none" stroke="#000000" d="M 221 394 L 279 401" stroke-miterlimit="10" stroke-dasharray="3"/></g><g transform="translate(-46,-30) scale(1,1)"><path fill="none" stroke="#000000" d="M 268.40615589305196 403.9614974316521 L 279 401 L 269.41492607675616 395.60311590953165" stroke-miterlimit="10"/></g><g transform="translate(-46,-30) scale(1,1)"><g><path fill="none" stroke="none"/><text fill="#000000" stroke="none" font-family="Arial" font-size="13px" font-style="normal" font-weight="normal" text-decoration="none" x="227" y="374">«include»</text></g></g><g transform="translate(-46,-30) scale(1,1)"><path fill="#C0C0C0" stroke="none" d="M 351 320 C 351 310.6111584 386.81721600000003 303 431 303 C 475.18278399999997 303 511 310.6111584 511 320 C 511 329.3888416 475.18278399999997 337 431 337 C 386.81721600000003 337 351 329.3888416 351 320 Z" opacity="0.2"/></g><g transform="translate(-46,-30) scale(1,1)"><path fill="#ffffff" stroke="none" d="M 344 313 C 344 303.6111584 379.81721600000003 296 424 296 C 468.18278399999997 296 504 303.6111584 504 313 C 504 322.3888416 468.18278399999997 330 424 330 C 379.81721600000003 330 344 322.3888416 344 313 Z"/></g><g transform="translate(-46,-30) scale(1,1)"><path fill="none" stroke="#000000" d="M 344 313 C 344 303.6111584 379.81721600000003 296 424 296 C 468.18278399999997 296 504 303.6111584 504 313 C 504 322.3888416 468.18278399999997 330 424 330 C 379.81721600000003 330 344 322.3888416 344 313 Z" stroke-miterlimit="10"/></g><g transform="translate(-46,-30) scale(1,1)"><g><path fill="none" stroke="none"/><text fill="#000000" stroke="none" font-family="Arial" font-size="13px" font-style="normal" font-weight="bold" text-decoration="none" x="372" y="320">采集微博媒体数据</text></g></g><g transform="translate(-46,-30) scale(1,1)"><path fill="none" stroke="#000000" d="M 221 368 L 357 331" stroke-miterlimit="10" stroke-dasharray="3"/></g><g transform="translate(-46,-30) scale(1,1)"><path fill="none" stroke="#000000" d="M 348.2988269034614 337.7297538397829 L 357 331 L 346.0886869233329 329.6059960749863" stroke-miterlimit="10"/></g><g transform="translate(-46,-30) scale(1,1)"><g><path fill="none" stroke="none"/><text fill="#000000" stroke="none" font-family="Arial" font-size="13px" font-style="normal" font-weight="normal" text-decoration="none" x="254" y="326">«include»</text></g></g><g transform="translate(-46,-30) scale(1,1)"><path fill="#ffffff" stroke="none" d="M 56 560 L 290 560 L 300 570 L 300 780 L 56 780 L 56 560"/></g><g transform="translate(-46,-30) scale(1,1)"><path fill="none" stroke="#000000" d="M 56 560 L 290 560 L 300 570 L 300 780 L 56 780 L 56 560 L 56 560" stroke-miterlimit="10"/></g><g transform="translate(-46,-30) scale(1,1)"><path fill="none" stroke="#000000" d="M 290 560 L 290 570 L 300 570 L 290 560" stroke-miterlimit="10"/></g><g transform="translate(-46,-30) scale(1,1)"><g><path fill="none" stroke="none"/><text fill="#000000" stroke="none" font-family="Arial" font-size="13px" font-style="normal" font-weight="normal" text-decoration="none" x="61" y="578">采集的字段：</text></g></g><g transform="translate(-46,-30) scale(1,1)"><g><path fill="none" stroke="none"/><text fill="#000000" stroke="none" font-family="Arial" font-size="13px" font-style="normal" font-weight="normal" text-decoration="none" x="61" y="593">1.媒体ID</text></g></g><g transform="translate(-46,-30) scale(1,1)"><g><path fill="none" stroke="none"/><text fill="#000000" stroke="none" font-family="Arial" font-size="13px" font-style="normal" font-weight="normal" text-decoration="none" x="61" y="608">2.文章URL</text></g></g><g transform="translate(-46,-30) scale(1,1)"><g><path fill="none" stroke="none"/><text fill="#000000" stroke="none" font-family="Arial" font-size="13px" font-style="normal" font-weight="normal" text-decoration="none" x="61" y="623">3.微博名称</text></g></g><g transform="translate(-46,-30) scale(1,1)"><g><path fill="none" stroke="none"/><text fill="#000000" stroke="none" font-family="Arial" font-size="13px" font-style="normal" font-weight="normal" text-decoration="none" x="61" y="638">4.图片</text></g></g><g transform="translate(-46,-30) scale(1,1)"><g><path fill="none" stroke="none"/><text fill="#000000" stroke="none" font-family="Arial" font-size="13px" font-style="normal" font-weight="normal" text-decoration="none" x="61" y="653">5.视频</text></g></g><g transform="translate(-46,-30) scale(1,1)"><g><path fill="none" stroke="none"/><text fill="#000000" stroke="none" font-family="Arial" font-size="13px" font-style="normal" font-weight="normal" text-decoration="none" x="61" y="668">6.话题</text></g></g><g transform="translate(-46,-30) scale(1,1)"><g><path fill="none" stroke="none"/><text fill="#000000" stroke="none" font-family="Arial" font-size="13px" font-style="normal" font-weight="normal" text-decoration="none" x="61" y="683">7.@用户</text></g></g><g transform="translate(-46,-30) scale(1,1)"><g><path fill="none" stroke="none"/><text fill="#000000" stroke="none" font-family="Arial" font-size="13px" font-style="normal" font-weight="normal" text-decoration="none" x="61" y="698">8.发布时间</text></g></g><g transform="translate(-46,-30) scale(1,1)"><g><path fill="none" stroke="none"/><text fill="#000000" stroke="none" font-family="Arial" font-size="13px" font-style="normal" font-weight="normal" text-decoration="none" x="61" y="713">9.文章正文</text></g></g><g transform="translate(-46,-30) scale(1,1)"><g><path fill="none" stroke="none"/><text fill="#000000" stroke="none" font-family="Arial" font-size="13px" font-style="normal" font-weight="normal" text-decoration="none" x="61" y="728">10.消息类型（图片，书品，投票等等）</text></g></g><g transform="translate(-46,-30) scale(1,1)"><g><path fill="none" stroke="none"/><text fill="#000000" stroke="none" font-family="Arial" font-size="13px" font-style="normal" font-weight="normal" text-decoration="none" x="61" y="743">11.文章摘要</text></g></g><g transform="translate(-46,-30) scale(1,1)"><g><path fill="none" stroke="none"/></g></g><g transform="translate(-46,-30) scale(1,1)"><g><path fill="none" stroke="none"/><text fill="#000000" stroke="none" font-family="Arial" font-size="13px" font-style="normal" font-weight="normal" text-decoration="none" x="61" y="760">采集方式</text></g></g><g transform="translate(-46,-30) scale(1,1)"><g><path fill="none" stroke="none"/><text fill="#000000" stroke="none" font-family="Arial" font-size="13px" font-style="normal" font-weight="normal" text-decoration="none" x="61" y="775">1 一次性采集</text></g></g><g transform="translate(-46,-30) scale(1,1)"><path fill="none" stroke="#000000" d="M 242 531 L 229 559" stroke-miterlimit="10" stroke-dasharray="3"/></g><g transform="translate(-46,-30) scale(1,1)"><path fill="#C0C0C0" stroke="none" d="M 159 520 C 159 510.6111584 202.8760896 503 257 503 C 311.1239104 503 355 510.6111584 355 520 C 355 529.3888416 311.1239104 537 257 537 C 202.8760896 537 159 529.3888416 159 520 Z" opacity="0.2"/></g><g transform="translate(-46,-30) scale(1,1)"><path fill="#ffffff" stroke="none" d="M 152 513 C 152 503.6111584 195.8760896 496 250 496 C 304.1239104 496 348 503.6111584 348 513 C 348 522.3888416 304.1239104 530 250 530 C 195.8760896 530 152 522.3888416 152 513 Z"/></g><g transform="translate(-46,-30) scale(1,1)"><path fill="none" stroke="#000000" d="M 152 513 C 152 503.6111584 195.8760896 496 250 496 C 304.1239104 496 348 503.6111584 348 513 C 348 522.3888416 304.1239104 530 250 530 C 195.8760896 530 152 522.3888416 152 513 Z" stroke-miterlimit="10"/></g><g transform="translate(-46,-30) scale(1,1)"><g><path fill="none" stroke="none"/><text fill="#000000" stroke="none" font-family="Arial" font-size="13px" font-style="normal" font-weight="bold" text-decoration="none" x="185" y="520">采集微博媒体静态数据</text></g></g><g transform="translate(-46,-30) scale(1,1)"><path fill="none" stroke="#000000" d="M 341 427 L 269 495" stroke-miterlimit="10" stroke-dasharray="3"/></g><g transform="translate(-46,-30) scale(1,1)"><path fill="none" stroke="#000000" d="M 273.4980443328709 484.96169351038094 L 269 495 L 279.2787522402893 491.0824430594122" stroke-miterlimit="10"/></g><g transform="translate(-46,-30) scale(1,1)"><g><path fill="none" stroke="none"/><text fill="#000000" stroke="none" font-family="Arial" font-size="13px" font-style="normal" font-weight="normal" text-decoration="none" x="298" y="489">«include»</text></g></g><g transform="translate(-46,-30) scale(1,1)"><path fill="#C0C0C0" stroke="none" d="M 391 512 C 391 502.6111584 426.81721600000003 495 471 495 C 515.182784 495 551 502.6111584 551 512 C 551 521.3888416 515.182784 529 471 529 C 426.81721600000003 529 391 521.3888416 391 512 Z" opacity="0.2"/></g><g transform="translate(-46,-30) scale(1,1)"><path fill="#ffffff" stroke="none" d="M 384 505 C 384 495.6111584 419.81721600000003 488 464 488 C 508.18278399999997 488 544 495.6111584 544 505 C 544 514.3888416 508.18278399999997 522 464 522 C 419.81721600000003 522 384 514.3888416 384 505 Z"/></g><g transform="translate(-46,-30) scale(1,1)"><path fill="none" stroke="#000000" d="M 384 505 C 384 495.6111584 419.81721600000003 488 464 488 C 508.18278399999997 488 544 495.6111584 544 505 C 544 514.3888416 508.18278399999997 522 464 522 C 419.81721600000003 522 384 514.3888416 384 505 Z" stroke-miterlimit="10"/></g><g transform="translate(-46,-30) scale(1,1)"><g><path fill="none" stroke="none"/><text fill="#000000" stroke="none" font-family="Arial" font-size="13px" font-style="normal" font-weight="bold" text-decoration="none" x="412" y="512">微博媒体动态数据</text></g></g><g transform="translate(-46,-30) scale(1,1)"><path fill="none" stroke="#000000" d="M 380 427 L 445 487" stroke-miterlimit="10" stroke-dasharray="3"/></g><g transform="translate(-46,-30) scale(1,1)"><path fill="none" stroke="#000000" d="M 434.67719937198143 483.20002800086905 L 445 487 L 440.3876636439958 477.0136917061868" stroke-miterlimit="10"/></g><g transform="translate(-46,-30) scale(1,1)"><g><path fill="none" stroke="none"/><text fill="#000000" stroke="none" font-family="Arial" font-size="13px" font-style="normal" font-weight="normal" text-decoration="none" x="405" y="441">«include»</text></g></g><g transform="translate(-46,-30) scale(1,1)"><path fill="#ffffff" stroke="none" d="M 392 552 L 544 552 L 554 562 L 554 712 L 392 712 L 392 552"/></g><g transform="translate(-46,-30) scale(1,1)"><path fill="none" stroke="#000000" d="M 392 552 L 544 552 L 554 562 L 554 712 L 392 712 L 392 552 L 392 552" stroke-miterlimit="10"/></g><g transform="translate(-46,-30) scale(1,1)"><path fill="none" stroke="#000000" d="M 544 552 L 544 562 L 554 562 L 544 552" stroke-miterlimit="10"/></g><g transform="translate(-46,-30) scale(1,1)"><g><path fill="none" stroke="none"/><text fill="#000000" stroke="none" font-family="Courier" font-size="13px" font-style="normal" font-weight="normal" text-decoration="none" x="397" y="570">采集的字段</text></g></g><g transform="translate(-46,-30) scale(1,1)"><g><path fill="none" stroke="none"/><text fill="#000000" stroke="none" font-family="Courier" font-size="13px" font-style="normal" font-weight="normal" text-decoration="none" x="397" y="585">1.转发数</text></g></g><g transform="translate(-46,-30) scale(1,1)"><g><path fill="none" stroke="none"/><text fill="#000000" stroke="none" font-family="Courier" font-size="13px" font-style="normal" font-weight="normal" text-decoration="none" x="397" y="600">2.点赞数</text></g></g><g transform="translate(-46,-30) scale(1,1)"><g><path fill="none" stroke="none"/><text fill="#000000" stroke="none" font-family="Courier" font-size="13px" font-style="normal" font-weight="normal" text-decoration="none" x="397" y="615">3.评论数</text></g></g><g transform="translate(-46,-30) scale(1,1)"><g><path fill="none" stroke="none"/></g></g><g transform="translate(-46,-30) scale(1,1)"><g><path fill="none" stroke="none"/><text fill="#000000" stroke="none" font-family="Courier" font-size="13px" font-style="normal" font-weight="normal" text-decoration="none" x="397" y="632">采集方式</text></g></g><g transform="translate(-46,-30) scale(1,1)"><g><path fill="none" stroke="none"/><text fill="#000000" stroke="none" font-family="Courier" font-size="13px" font-style="normal" font-weight="normal" text-decoration="none" x="397" y="647">1 定时采集</text></g></g><g transform="translate(-46,-30) scale(1,1)"><path fill="none" stroke="#000000" d="M 465 523 L 467 551" stroke-miterlimit="10" stroke-dasharray="3"/></g><g transform="translate(-46,-30) scale(1,1)"><path fill="#ffffff" stroke="none" d="M 592 400 L 680 400 L 690 410 L 690 560 L 592 560 L 592 400"/></g><g transform="translate(-46,-30) scale(1,1)"><path fill="none" stroke="#000000" d="M 592 400 L 680 400 L 690 410 L 690 560 L 592 560 L 592 400 L 592 400" stroke-miterlimit="10"/></g><g transform="translate(-46,-30) scale(1,1)"><path fill="none" stroke="#000000" d="M 680 400 L 680 410 L 690 410 L 680 400" stroke-miterlimit="10"/></g><g transform="translate(-46,-30) scale(1,1)"><g><path fill="none" stroke="none"/><text fill="#000000" stroke="none" font-family="Arial" font-size="13px" font-style="normal" font-weight="normal" text-decoration="none" x="597" y="418">采集的字段</text></g></g><g transform="translate(-46,-30) scale(1,1)"><g><path fill="none" stroke="none"/><text fill="#000000" stroke="none" font-family="Arial" font-size="13px" font-style="normal" font-weight="normal" text-decoration="none" x="597" y="433">1.昵称</text></g></g><g transform="translate(-46,-30) scale(1,1)"><g><path fill="none" stroke="none"/><text fill="#000000" stroke="none" font-family="Arial" font-size="13px" font-style="normal" font-weight="normal" text-decoration="none" x="597" y="448">2.简述</text></g></g><g transform="translate(-46,-30) scale(1,1)"><g><path fill="none" stroke="none"/><text fill="#000000" stroke="none" font-family="Arial" font-size="13px" font-style="normal" font-weight="normal" text-decoration="none" x="597" y="463">3.头像</text></g></g><g transform="translate(-46,-30) scale(1,1)"><g><path fill="none" stroke="none"/><text fill="#000000" stroke="none" font-family="Arial" font-size="13px" font-style="normal" font-weight="normal" text-decoration="none" x="597" y="478">4.微博ID</text></g></g><g transform="translate(-46,-30) scale(1,1)"><g><path fill="none" stroke="none"/><text fill="#000000" stroke="none" font-family="Arial" font-size="13px" font-style="normal" font-weight="normal" text-decoration="none" x="597" y="493">5.省份</text></g></g><g transform="translate(-46,-30) scale(1,1)"><g><path fill="none" stroke="none"/><text fill="#000000" stroke="none" font-family="Arial" font-size="13px" font-style="normal" font-weight="normal" text-decoration="none" x="597" y="508">6.性别</text></g></g><g transform="translate(-46,-30) scale(1,1)"><g><path fill="none" stroke="none"/><text fill="#000000" stroke="none" font-family="Arial" font-size="13px" font-style="normal" font-weight="normal" text-decoration="none" x="597" y="523">7.创建时间</text></g></g><g transform="translate(-46,-30) scale(1,1)"><g><path fill="none" stroke="none"/></g></g><g transform="translate(-46,-30) scale(1,1)"><g><path fill="none" stroke="none"/><text fill="#000000" stroke="none" font-family="Arial" font-size="13px" font-style="normal" font-weight="normal" text-decoration="none" x="597" y="540">采集方式</text></g></g><g transform="translate(-46,-30) scale(1,1)"><g><path fill="none" stroke="none"/><text fill="#000000" stroke="none" font-family="Arial" font-size="13px" font-style="normal" font-weight="normal" text-decoration="none" x="597" y="555">一次性采集</text></g></g><g transform="translate(-46,-30) scale(1,1)"><path fill="none" stroke="#000000" d="M 651 363 L 648 399" stroke-miterlimit="10" stroke-dasharray="3"/></g><g transform="translate(-46,-30) scale(1,1)"><path fill="#C0C0C0" stroke="none" d="M 383 224 C 383 214.6111584 410.5344848 207 444.5 207 C 478.4655152 207 506 214.6111584 506 224 C 506 233.3888416 478.4655152 241 444.5 241 C 410.5344848 241 383 233.3888416 383 224 Z" opacity="0.2"/></g><g transform="translate(-46,-30) scale(1,1)"><path fill="#ffffff" stroke="none" d="M 376 217 C 376 207.6111584 403.5344848 200 437.5 200 C 471.4655152 200 499 207.6111584 499 217 C 499 226.3888416 471.4655152 234 437.5 234 C 403.5344848 234 376 226.3888416 376 217 Z"/></g><g transform="translate(-46,-30) scale(1,1)"><path fill="none" stroke="#000000" d="M 376 217 C 376 207.6111584 403.5344848 200 437.5 200 C 471.4655152 200 499 207.6111584 499 217 C 499 226.3888416 471.4655152 234 437.5 234 C 403.5344848 234 376 226.3888416 376 217 Z" stroke-miterlimit="10"/></g><g transform="translate(-46,-30) scale(1,1)"><g><path fill="none" stroke="none"/><text fill="#000000" stroke="none" font-family="Arial" font-size="13px" font-style="normal" font-weight="bold" text-decoration="none" x="398.5" y="224">微博动态数据</text></g></g><g transform="translate(-46,-30) scale(1,1)"><path fill="none" stroke="#000000" d="M 426 295 L 435 235" stroke-miterlimit="10" stroke-dasharray="3"/></g><g transform="translate(-46,-30) scale(1,1)"><path fill="none" stroke="#000000" d="M 437.655409345606 245.6746803796305 L 435 235 L 429.3295190716684 244.42579683853987" stroke-miterlimit="10"/></g><g transform="translate(-46,-30) scale(1,1)"><g><path fill="none" stroke="none"/><text fill="#000000" stroke="none" font-family="Arial" font-size="13px" font-style="normal" font-weight="normal" text-decoration="none" x="373" y="267">«include»</text></g></g><g transform="translate(-46,-30) scale(1,1)"><path fill="#C0C0C0" stroke="none" d="M 599 352 C 599 342.6111584 626.5344848 335 660.5 335 C 694.4655152 335 722 342.6111584 722 352 C 722 361.3888416 694.4655152 369 660.5 369 C 626.5344848 369 599 361.3888416 599 352 Z" opacity="0.2"/></g><g transform="translate(-46,-30) scale(1,1)"><path fill="#ffffff" stroke="none" d="M 592 345 C 592 335.6111584 619.5344848 328 653.5 328 C 687.4655152 328 715 335.6111584 715 345 C 715 354.3888416 687.4655152 362 653.5 362 C 619.5344848 362 592 354.3888416 592 345 Z"/></g><g transform="translate(-46,-30) scale(1,1)"><path fill="none" stroke="#000000" d="M 592 345 C 592 335.6111584 619.5344848 328 653.5 328 C 687.4655152 328 715 335.6111584 715 345 C 715 354.3888416 687.4655152 362 653.5 362 C 619.5344848 362 592 354.3888416 592 345 Z" stroke-miterlimit="10"/></g><g transform="translate(-46,-30) scale(1,1)"><g><path fill="none" stroke="none"/><text fill="#000000" stroke="none" font-family="Arial" font-size="13px" font-style="normal" font-weight="bold" text-decoration="none" x="614.5" y="352">微博静态数据</text></g></g><g transform="translate(-46,-30) scale(1,1)"><path fill="none" stroke="#000000" d="M 505 324 L 591 336" stroke-miterlimit="10" stroke-dasharray="3"/></g><g transform="translate(-46,-30) scale(1,1)"><path fill="none" stroke="#000000" d="M 580.353098420859 338.76468565375615 L 591 336 L 581.5165757211436 330.42643166838377" stroke-miterlimit="10"/></g><g transform="translate(-46,-30) scale(1,1)"><g><path fill="none" stroke="none"/><text fill="#000000" stroke="none" font-family="Arial" font-size="13px" font-style="normal" font-weight="normal" text-decoration="none" x="525" y="307">«include»</text></g></g><g transform="translate(-46,-30) scale(1,1)"><path fill="#ffffff" stroke="none" d="M 560 168 L 648 168 L 658 178 L 658 270 L 560 270 L 560 168"/></g><g transform="translate(-46,-30) scale(1,1)"><path fill="none" stroke="#000000" d="M 560 168 L 648 168 L 658 178 L 658 270 L 560 270 L 560 168 L 560 168" stroke-miterlimit="10"/></g><g transform="translate(-46,-30) scale(1,1)"><path fill="none" stroke="#000000" d="M 648 168 L 648 178 L 658 178 L 648 168" stroke-miterlimit="10"/></g><g transform="translate(-46,-30) scale(1,1)"><g><path fill="none" stroke="none"/><text fill="#000000" stroke="none" font-family="Arial" font-size="13px" font-style="normal" font-weight="normal" text-decoration="none" x="565" y="186">采集的字段</text></g></g><g transform="translate(-46,-30) scale(1,1)"><g><path fill="none" stroke="none"/><text fill="#000000" stroke="none" font-family="Arial" font-size="13px" font-style="normal" font-weight="normal" text-decoration="none" x="565" y="201">1.发文数</text></g></g><g transform="translate(-46,-30) scale(1,1)"><g><path fill="none" stroke="none"/><text fill="#000000" stroke="none" font-family="Arial" font-size="13px" font-style="normal" font-weight="normal" text-decoration="none" x="565" y="216">2.关注数</text></g></g><g transform="translate(-46,-30) scale(1,1)"><g><path fill="none" stroke="none"/><text fill="#000000" stroke="none" font-family="Arial" font-size="13px" font-style="normal" font-weight="normal" text-decoration="none" x="565" y="231">3.粉丝数</text></g></g><g transform="translate(-46,-30) scale(1,1)"><g><path fill="none" stroke="none"/></g></g><g transform="translate(-46,-30) scale(1,1)"><g><path fill="none" stroke="none"/><text fill="#000000" stroke="none" font-family="Arial" font-size="13px" font-style="normal" font-weight="normal" text-decoration="none" x="565" y="248">采集方式</text></g></g><g transform="translate(-46,-30) scale(1,1)"><g><path fill="none" stroke="none"/><text fill="#000000" stroke="none" font-family="Arial" font-size="13px" font-style="normal" font-weight="normal" text-decoration="none" x="565" y="263">定时采集</text></g></g><g transform="translate(-46,-30) scale(1,1)"><g><path fill="none" stroke="none"/></g></g><g transform="translate(-46,-30) scale(1,1)"><path fill="none" stroke="#000000" d="M 500 218 L 559 218" stroke-miterlimit="10" stroke-dasharray="3"/></g><g transform="translate(-46,-30) scale(1,1)"><path fill="#C0C0C0" stroke="none" d="M 87 216 C 87 206.6111584 135.3532416 199 195 199 C 254.6467584 199 303 206.6111584 303 216 C 303 225.3888416 254.6467584 233 195 233 C 135.3532416 233 87 225.3888416 87 216 Z" opacity="0.2"/></g><g transform="translate(-46,-30) scale(1,1)"><path fill="#ffffff" stroke="none" d="M 80 209 C 80 199.6111584 128.3532416 192 188 192 C 247.6467584 192 296 199.6111584 296 209 C 296 218.3888416 247.6467584 226 188 226 C 128.3532416 226 80 218.3888416 80 209 Z"/></g><g transform="translate(-46,-30) scale(1,1)"><path fill="none" stroke="#000000" d="M 80 209 C 80 199.6111584 128.3532416 192 188 192 C 247.6467584 192 296 199.6111584 296 209 C 296 218.3888416 247.6467584 226 188 226 C 128.3532416 226 80 218.3888416 80 209 Z" stroke-miterlimit="10"/></g><g transform="translate(-46,-30) scale(1,1)"><g><path fill="none" stroke="none"/><text fill="#000000" stroke="none" font-family="Arial" font-size="13px" font-style="normal" font-weight="bold" text-decoration="none" x="116" y="216">自动收录24小内媒体文章</text></g></g><g transform="translate(-46,-30) scale(1,1)"><path fill="none" stroke="#000000" d="M 156 359 L 184 227" stroke-miterlimit="10" stroke-dasharray="3"/></g><g transform="translate(-46,-30) scale(1,1)"><path fill="none" stroke="#000000" d="M 186.0090961180583 237.8149679975672 L 184 227 L 177.7733082797393 236.06798269852987" stroke-miterlimit="10"/></g><g transform="translate(-46,-30) scale(1,1)"><g><path fill="none" stroke="none"/><text fill="#000000" stroke="none" font-family="Arial" font-size="13px" font-style="normal" font-weight="normal" text-decoration="none" x="113" y="293">«include»</text></g></g><g transform="translate(-46,-30) scale(1,1)"><path fill="#ffffff" stroke="none" d="M 184 40 L 387 40 L 397 50 L 397 88 L 184 88 L 184 40"/></g><g transform="translate(-46,-30) scale(1,1)"><path fill="none" stroke="#000000" d="M 184 40 L 387 40 L 397 50 L 397 88 L 184 88 L 184 40 L 184 40" stroke-miterlimit="10"/></g><g transform="translate(-46,-30) scale(1,1)"><path fill="none" stroke="#000000" d="M 387 40 L 387 50 L 397 50 L 387 40" stroke-miterlimit="10"/></g><g transform="translate(-46,-30) scale(1,1)"><g><path fill="none" stroke="none"/><text fill="#000000" stroke="none" font-family="Arial" font-size="13px" font-style="normal" font-weight="normal" text-decoration="none" x="189" y="58">定时收录调度微信媒体的最新文章</text></g></g><g transform="translate(-46,-30) scale(1,1)"><path fill="none" stroke="#000000" d="M 201 191 L 273 90" stroke-miterlimit="10" stroke-dasharray="3"/></g><g transform="translate(-46,-30) scale(1,1)"><path fill="#C0C0C0" stroke="none" d="M 791 360 C 791 350.6111584 810.2517536 343 834 343 C 857.7482464 343 877 350.6111584 877 360 C 877 369.3888416 857.7482464 377 834 377 C 810.2517536 377 791 369.3888416 791 360 Z" opacity="0.2"/></g><g transform="translate(-46,-30) scale(1,1)"><path fill="#ffffff" stroke="none" d="M 784 353 C 784 343.6111584 803.2517536 336 827 336 C 850.7482464 336 870 343.6111584 870 353 C 870 362.3888416 850.7482464 370 827 370 C 803.2517536 370 784 362.3888416 784 353 Z"/></g><g transform="translate(-46,-30) scale(1,1)"><path fill="none" stroke="#000000" d="M 784 353 C 784 343.6111584 803.2517536 336 827 336 C 850.7482464 336 870 343.6111584 870 353 C 870 362.3888416 850.7482464 370 827 370 C 803.2517536 370 784 362.3888416 784 353 Z" stroke-miterlimit="10"/></g><g transform="translate(-46,-30) scale(1,1)"><g><path fill="none" stroke="none"/><text fill="#000000" stroke="none" font-family="Arial" font-size="13px" font-style="normal" font-weight="bold" text-decoration="none" x="801" y="360">文章分析</text></g></g><g transform="translate(-46,-30) scale(1,1)"><path fill="none" stroke="#000000" d="M 716 348 L 783 351" stroke-miterlimit="10" stroke-dasharray="3"/></g><g transform="translate(-46,-30) scale(1,1)"><path fill="none" stroke="#000000" d="M 772.6592002213652 354.75071459033956 L 783 351 L 773.0357946325106 346.3401060747594" stroke-miterlimit="10"/></g><g transform="translate(-46,-30) scale(1,1)"><g><path fill="none" stroke="none"/><text fill="#000000" stroke="none" font-family="Arial" font-size="13px" font-style="normal" font-weight="normal" text-decoration="none" x="724" y="326">«extend»</text></g></g></g></svg>