<svg version="1.1" xmlns="http://www.w3.org/2000/svg" xmlns:xlink="http://www.w3.org/1999/xlink" width="692" height="388"><defs/><g><g transform="translate(-14,-70) scale(1,1)"><path fill="none" stroke="#000000" d="M 112 80 L 696 80 L 696 448 L 112 448 L 112 80" stroke-miterlimit="10"/></g><g transform="translate(-14,-70) scale(1,1)"><path fill="#ffffff" stroke="none" d="M 112 80 L 112 102 L 276 102 L 287 91 L 287 80 L 112 80"/></g><g transform="translate(-14,-70) scale(1,1)"><path fill="none" stroke="#000000" d="M 112 80 L 112 102 L 276 102 L 287 91 L 287 80 L 112 80 L 112 80" stroke-miterlimit="10"/></g><g transform="translate(-14,-70) scale(1,1)"><g><path fill="none" stroke="none"/><text fill="#000000" stroke="none" font-family="Arial" font-size="13px" font-style="normal" font-weight="normal" text-decoration="none" x="176" y="97.5">uranus 顶级用例</text></g></g><g transform="translate(-14,-70) scale(1,1)"><g><path fill="none" stroke="none"/><text fill="#000000" stroke="none" font-family="Arial" font-size="13px" font-style="normal" font-weight="bold" text-decoration="none" x="117" y="97.5">use case</text></g></g><g transform="translate(-14,-70) scale(1,1)"><path fill="#C0C0C0" stroke="none" d="M 167 232 C 167 222.6111584 188.7141872 215 215.5 215 C 242.2858128 215 264 222.6111584 264 232 C 264 241.3888416 242.2858128 249 215.5 249 C 188.7141872 249 167 241.3888416 167 232 Z" opacity="0.2"/></g><g transform="translate(-14,-70) scale(1,1)"><path fill="#ffffff" stroke="none" d="M 160 225 C 160 215.6111584 181.7141872 208 208.5 208 C 235.2858128 208 257 215.6111584 257 225 C 257 234.3888416 235.2858128 242 208.5 242 C 181.7141872 242 160 234.3888416 160 225 Z"/></g><g transform="translate(-14,-70) scale(1,1)"><path fill="none" stroke="#000000" d="M 160 225 C 160 215.6111584 181.7141872 208 208.5 208 C 235.2858128 208 257 215.6111584 257 225 C 257 234.3888416 235.2858128 242 208.5 242 C 181.7141872 242 160 234.3888416 160 225 Z" stroke-miterlimit="10"/></g><g transform="translate(-14,-70) scale(1,1)"><g><path fill="none" stroke="none"/><text fill="#000000" stroke="none" font-family="Arial" font-size="13px" font-style="normal" font-weight="bold" text-decoration="none" x="182.5" y="232">采集数据</text></g></g><g transform="translate(-14,-70) scale(1,1)"><path fill="#C0C0C0" stroke="none" d="M 223 408 C 223 398.6111584 250.5344848 391 284.5 391 C 318.4655152 391 346 398.6111584 346 408 C 346 417.3888416 318.4655152 425 284.5 425 C 250.5344848 425 223 417.3888416 223 408 Z" opacity="0.2"/></g><g transform="translate(-14,-70) scale(1,1)"><path fill="#ffffff" stroke="none" d="M 216 401 C 216 391.6111584 243.5344848 384 277.5 384 C 311.4655152 384 339 391.6111584 339 401 C 339 410.3888416 311.4655152 418 277.5 418 C 243.5344848 418 216 410.3888416 216 401 Z"/></g><g transform="translate(-14,-70) scale(1,1)"><path fill="none" stroke="#000000" d="M 216 401 C 216 391.6111584 243.5344848 384 277.5 384 C 311.4655152 384 339 391.6111584 339 401 C 339 410.3888416 311.4655152 418 277.5 418 C 243.5344848 418 216 410.3888416 216 401 Z" stroke-miterlimit="10"/></g><g transform="translate(-14,-70) scale(1,1)"><g><path fill="none" stroke="none"/><text fill="#000000" stroke="none" font-family="Arial" font-size="13px" font-style="normal" font-weight="bold" text-decoration="none" x="238.5" y="408">采集微信数据</text></g></g><g transform="translate(-14,-70) scale(1,1)"><path fill="#C0C0C0" stroke="none" d="M 399 232 C 399 222.6111584 426.5344848 215 460.5 215 C 494.4655152 215 522 222.6111584 522 232 C 522 241.3888416 494.4655152 249 460.5 249 C 426.5344848 249 399 241.3888416 399 232 Z" opacity="0.2"/></g><g transform="translate(-14,-70) scale(1,1)"><path fill="#ffffff" stroke="none" d="M 392 225 C 392 215.6111584 419.5344848 208 453.5 208 C 487.4655152 208 515 215.6111584 515 225 C 515 234.3888416 487.4655152 242 453.5 242 C 419.5344848 242 392 234.3888416 392 225 Z"/></g><g transform="translate(-14,-70) scale(1,1)"><path fill="none" stroke="#000000" d="M 392 225 C 392 215.6111584 419.5344848 208 453.5 208 C 487.4655152 208 515 215.6111584 515 225 C 515 234.3888416 487.4655152 242 453.5 242 C 419.5344848 242 392 234.3888416 392 225 Z" stroke-miterlimit="10"/></g><g transform="translate(-14,-70) scale(1,1)"><g><path fill="none" stroke="none"/><text fill="#000000" stroke="none" font-family="Arial" font-size="13px" font-style="normal" font-weight="bold" text-decoration="none" x="414.5" y="232">采集微博数据</text></g></g><g transform="translate(-14,-70) scale(1,1)"><path fill="#C0C0C0" stroke="none" d="M 263 144 C 263 134.6111584 298.81721600000003 127 343 127 C 387.18278399999997 127 423 134.6111584 423 144 C 423 153.3888416 387.18278399999997 161 343 161 C 298.81721600000003 161 263 153.3888416 263 144 Z" opacity="0.2"/></g><g transform="translate(-14,-70) scale(1,1)"><path fill="#ffffff" stroke="none" d="M 256 137 C 256 127.6111584 291.81721600000003 120 336 120 C 380.18278399999997 120 416 127.6111584 416 137 C 416 146.3888416 380.18278399999997 154 336 154 C 291.81721600000003 154 256 146.3888416 256 137 Z"/></g><g transform="translate(-14,-70) scale(1,1)"><path fill="none" stroke="#000000" d="M 256 137 C 256 127.6111584 291.81721600000003 120 336 120 C 380.18278399999997 120 416 127.6111584 416 137 C 416 146.3888416 380.18278399999997 154 336 154 C 291.81721600000003 154 256 146.3888416 256 137 Z" stroke-miterlimit="10"/></g><g transform="translate(-14,-70) scale(1,1)"><g><path fill="none" stroke="none"/><text fill="#000000" stroke="none" font-family="Arial" font-size="13px" font-style="normal" font-weight="bold" text-decoration="none" x="284" y="144">采集公共媒体文章</text></g></g><g transform="translate(-14,-70) scale(1,1)"><path fill="none" stroke="#000000" d="M 310 155 L 234 207" stroke-miterlimit="10" stroke-dasharray="3"/></g><g transform="translate(-14,-70) scale(1,1)"><path fill="none" stroke="#000000" d="M 240.0102823844972 197.78715539810844 L 234 207 L 244.76437632293943 204.7354465389086" stroke-miterlimit="10"/></g><g transform="translate(-14,-70) scale(1,1)"><g><path fill="none" stroke="none"/><text fill="#000000" stroke="none" font-family="Arial" font-size="13px" font-style="normal" font-weight="normal" text-decoration="none" x="279" y="189">«extend»</text></g></g><g transform="translate(-14,-70) scale(1,1)"><path fill="#C0C0C0" stroke="none" d="M 255 304 C 255 294.6111584 286.5639216 287 325.5 287 C 364.4360784 287 396 294.6111584 396 304 C 396 313.3888416 364.4360784 321 325.5 321 C 286.5639216 321 255 313.3888416 255 304 Z" opacity="0.2"/></g><g transform="translate(-14,-70) scale(1,1)"><path fill="#ffffff" stroke="none" d="M 248 297 C 248 287.6111584 279.5639216 280 318.5 280 C 357.4360784 280 389 287.6111584 389 297 C 389 306.3888416 357.4360784 314 318.5 314 C 279.5639216 314 248 306.3888416 248 297 Z"/></g><g transform="translate(-14,-70) scale(1,1)"><path fill="none" stroke="#000000" d="M 248 297 C 248 287.6111584 279.5639216 280 318.5 280 C 357.4360784 280 389 287.6111584 389 297 C 389 306.3888416 357.4360784 314 318.5 314 C 279.5639216 314 248 306.3888416 248 297 Z" stroke-miterlimit="10"/></g><g transform="translate(-14,-70) scale(1,1)"><g><path fill="none" stroke="none"/><text fill="#000000" stroke="none" font-family="Arial" font-size="13px" font-style="normal" font-weight="bold" text-decoration="none" x="273" y="304">采集自媒体数据</text></g></g><g transform="translate(-14,-70) scale(1,1)"><path fill="none" stroke="#000000" d="M 291 279 L 236 243" stroke-miterlimit="10" stroke-dasharray="3"/></g><g transform="translate(-14,-70) scale(1,1)"><path fill="none" stroke="#000000" d="M 246.8085064891978 245.0435722333622 L 236 243 L 242.19774444895563 252.0877920170655" stroke-miterlimit="10"/></g><g transform="translate(-14,-70) scale(1,1)"><g><path fill="none" stroke="none"/><text fill="#000000" stroke="none" font-family="Arial" font-size="13px" font-style="normal" font-weight="normal" text-decoration="none" x="200" y="285">«extend»</text></g></g><g transform="translate(-14,-70) scale(1,1)"><path fill="none" stroke="#000000" d="M 284 383 L 311 315" stroke-miterlimit="10" stroke-dasharray="3"/></g><g transform="translate(-14,-70) scale(1,1)"><path fill="none" stroke="#000000" d="M 311.1620326120182 325.9988065458323 L 311 315 L 303.3372436652145 322.89190505224843" stroke-miterlimit="10"/></g><g transform="translate(-14,-70) scale(1,1)"><g><path fill="none" stroke="none"/><text fill="#000000" stroke="none" font-family="Arial" font-size="13px" font-style="normal" font-weight="normal" text-decoration="none" x="243" y="344">«extend»</text></g></g><g transform="translate(-14,-70) scale(1,1)"><path fill="none" stroke="#000000" d="M 419 243 L 352 279" stroke-miterlimit="10" stroke-dasharray="3"/></g><g transform="translate(-14,-70) scale(1,1)"><path fill="none" stroke="#000000" d="M 358.95979793879377 270.48171304479814 L 352 279 L 362.94465878832534 277.8979818480931" stroke-miterlimit="10"/></g><g transform="translate(-14,-70) scale(1,1)"><g><path fill="none" stroke="none"/><text fill="#000000" stroke="none" font-family="Arial" font-size="13px" font-style="normal" font-weight="normal" text-decoration="none" x="404" y="288">«extend»</text></g></g><g transform="translate(-14,-70) scale(1,1)"><path fill="#ffffff" stroke="none" d="M 39.82072727272727 185.68 C 39.82072727272727 180.886167936 43.706569597672726 177 48.5 177 C 53.293430402327274 177 57.17927272727273 180.886167936 57.17927272727273 185.68 C 57.17927272727273 190.47383206400002 53.293430402327274 194.36 48.5 194.36 C 43.706569597672726 194.36 39.82072727272727 190.47383206400002 39.82072727272727 185.68 Z"/></g><g transform="translate(-14,-70) scale(1,1)"><path fill="none" stroke="#000000" d="M 39.82072727272727 185.68 C 39.82072727272727 180.886167936 43.706569597672726 177 48.5 177 C 53.293430402327274 177 57.17927272727273 180.886167936 57.17927272727273 185.68 C 57.17927272727273 190.47383206400002 53.293430402327274 194.36 48.5 194.36 C 43.706569597672726 194.36 39.82072727272727 190.47383206400002 39.82072727272727 185.68 Z" stroke-miterlimit="10"/></g><g transform="translate(-14,-70) scale(1,1)"><path fill="none" stroke="#000000" d="M 48.5 194.36 L 48.5 211.64" stroke-miterlimit="10"/></g><g transform="translate(-14,-70) scale(1,1)"><path fill="none" stroke="#000000" d="M 39.31018181818182 200.84 L 57.68981818181818 200.84" stroke-miterlimit="10"/></g><g transform="translate(-14,-70) scale(1,1)"><path fill="none" stroke="#000000" d="M 48.5 211.64 L 35.736363636363635 229" stroke-miterlimit="10"/></g><g transform="translate(-14,-70) scale(1,1)"><path fill="none" stroke="#000000" d="M 48.5 211.64 L 61.263636363636365 229" stroke-miterlimit="10"/></g><g transform="translate(-14,-70) scale(1,1)"><g><path fill="none" stroke="none"/><text fill="#000000" stroke="none" font-family="Arial" font-size="13px" font-style="normal" font-weight="bold" text-decoration="none" x="36.5" y="249.5">gaia</text></g></g><g transform="translate(-14,-70) scale(1,1)"><path fill="none" stroke="#000000" d="M 74 217 L 159 222" stroke-miterlimit="10"/></g><g transform="translate(-14,-70) scale(1,1)"><path fill="#ffffff" stroke="none" d="M 528 88 L 666 88 L 676 98 L 676 231 L 528 231 L 528 88"/></g><g transform="translate(-14,-70) scale(1,1)"><path fill="none" stroke="#000000" d="M 528 88 L 666 88 L 676 98 L 676 231 L 528 231 L 528 88 L 528 88" stroke-miterlimit="10"/></g><g transform="translate(-14,-70) scale(1,1)"><path fill="none" stroke="#000000" d="M 666 88 L 666 98 L 676 98 L 666 88" stroke-miterlimit="10"/></g><g transform="translate(-14,-70) scale(1,1)"><g><path fill="none" stroke="none"/><text fill="#000000" stroke="none" font-family="Arial" font-size="13px" font-style="normal" font-weight="normal" text-decoration="none" x="533" y="106">需支持：</text></g></g><g transform="translate(-14,-70) scale(1,1)"><g><path fill="none" stroke="none"/><text fill="#000000" stroke="none" font-family="Arial" font-size="13px" font-style="normal" font-weight="normal" text-decoration="none" x="533" y="121">1.新浪 </text></g></g><g transform="translate(-14,-70) scale(1,1)"><g><path fill="none" stroke="none"/><text fill="#000000" stroke="none" font-family="Arial" font-size="13px" font-style="normal" font-weight="normal" text-decoration="none" x="533" y="136">2.搜狐</text></g></g><g transform="translate(-14,-70) scale(1,1)"><g><path fill="none" stroke="none"/><text fill="#000000" stroke="none" font-family="Arial" font-size="13px" font-style="normal" font-weight="normal" text-decoration="none" x="533" y="151">3.网易</text></g></g><g transform="translate(-14,-70) scale(1,1)"><g><path fill="none" stroke="none"/><text fill="#000000" stroke="none" font-family="Arial" font-size="13px" font-style="normal" font-weight="normal" text-decoration="none" x="533" y="166">4.腾讯</text></g></g><g transform="translate(-14,-70) scale(1,1)"><g><path fill="none" stroke="none"/><text fill="#000000" stroke="none" font-family="Arial" font-size="13px" font-style="normal" font-weight="normal" text-decoration="none" x="533" y="181">5.澎湃</text></g></g><g transform="translate(-14,-70) scale(1,1)"><g><path fill="none" stroke="none"/><text fill="#000000" stroke="none" font-family="Arial" font-size="13px" font-style="normal" font-weight="normal" text-decoration="none" x="533" y="196">6.人民网</text></g></g><g transform="translate(-14,-70) scale(1,1)"><g><path fill="none" stroke="none"/><text fill="#000000" stroke="none" font-family="Arial" font-size="13px" font-style="normal" font-weight="normal" text-decoration="none" x="533" y="211">7.新华网</text></g></g><g transform="translate(-14,-70) scale(1,1)"><g><path fill="none" stroke="none"/><text fill="#000000" stroke="none" font-family="Arial" font-size="13px" font-style="normal" font-weight="normal" text-decoration="none" x="533" y="226">8.凤凰网</text></g></g><g transform="translate(-14,-70) scale(1,1)"><path fill="none" stroke="#000000" d="M 417 144 L 527 154" stroke-miterlimit="10" stroke-dasharray="3"/></g></g></svg>